<svg width="18" height="16" viewBox="0 0 18 16" fill="none" xmlns="http://www.w3.org/2000/svg">
    <path fill-rule="evenodd" clip-rule="evenodd" d="M7.41612 15.4488C7.50878 15.6368 7.43364 15.8657 7.2485 15.9598C7.19633 15.9862 7.13908 16 7.08069 16H4.68749C4.4805 16 4.31251 15.8295 4.31251 15.6191L3.18758 10.3522H2.25006C1.00743 10.3522 0 9.32874 0 8.06636V5.78074C0 4.51836 1.00743 3.49491 2.25006 3.49491H5.43744V10.3522L7.41612 15.4488ZM15.7355 0.282428C15.7451 0.31725 15.75 0.353219 15.75 0.389381V13.3251C15.75 13.5402 15.5822 13.7147 15.375 13.7147C15.3402 13.7147 15.3055 13.7095 15.272 13.6996L6.56258 10.4764V3.23807L15.272 0.0150974C15.471 -0.0440221 15.6786 0.07575 15.7355 0.282384L15.7355 0.282428ZM17.625 5.20938C17.832 5.20938 18 5.38005 18 5.59032V8.25706C18 8.46752 17.832 8.638 17.625 8.638H16.8749V5.20936L17.625 5.20938Z" fill="#67BC2A" />
</svg>