<svg width="427" height="362" viewBox="0 0 427 362" fill="none" xmlns="http://www.w3.org/2000/svg">
<path d="M203.044 325.266C246.52 325.266 281.765 320.229 281.765 314.016C281.765 307.803 246.52 302.766 203.044 302.766C159.567 302.766 124.322 307.803 124.322 314.016C124.322 320.229 159.567 325.266 203.044 325.266Z" fill="#67BC2A"/>
<path opacity="0.5" d="M203.044 325.266C246.52 325.266 281.765 320.229 281.765 314.016C281.765 307.803 246.52 302.766 203.044 302.766C159.567 302.766 124.322 307.803 124.322 314.016C124.322 320.229 159.567 325.266 203.044 325.266Z" fill="white"/>
<path d="M376.029 351.704C400.451 351.704 420.249 346.667 420.249 340.454C420.249 334.24 400.451 329.203 376.029 329.203C351.607 329.203 331.809 334.24 331.809 340.454C331.809 346.667 351.607 351.704 376.029 351.704Z" fill="#67BC2A"/>
<path opacity="0.5" d="M376.029 351.704C400.451 351.704 420.249 346.667 420.249 340.454C420.249 334.24 400.451 329.203 376.029 329.203C351.607 329.203 331.809 334.24 331.809 340.454C331.809 346.667 351.607 351.704 376.029 351.704Z" fill="white"/>
<path d="M0.66331 81.4502C0.441825 80.6493 0.391488 79.8109 0.515573 78.9893C0.639657 78.1677 0.935381 77.3815 1.38349 76.6818C1.83161 75.9821 2.42206 75.3847 3.11641 74.9283C3.81075 74.472 4.59343 74.167 5.41347 74.0332C10.372 73.3561 16.4659 80.0126 18.3931 84.044C18.5597 84.3878 20.539 90.1379 20.4765 90.1379C20.414 90.1379 11.6845 90.3359 8.10106 88.7733C5.00721 87.4295 1.52792 84.8774 0.66331 81.4502ZM128.032 66.1684C127.303 69.6268 123.865 72.2728 120.834 73.6895C117.803 75.1062 110.657 75.3562 108.896 75.3874C107.948 76.5229 106.938 77.7313 105.854 79.1063C103.958 81.5335 101.854 84.3148 99.7604 87.4399C99.1979 88.2837 98.6354 89.2004 98.0624 90.0859C99.3333 88.7941 101.094 87.0441 101.281 86.8878C104.771 84.1065 113.157 80.7835 117.323 83.544C118.004 84.0218 118.576 84.6377 119.002 85.3515C119.429 86.0653 119.7 86.8609 119.798 87.6865C119.896 88.5121 119.82 89.3492 119.573 90.1431C119.326 90.9371 118.914 91.67 118.365 92.2943C116.126 95.0235 111.834 95.784 108.5 95.6486C105.167 95.5131 98.4999 92.3464 97.0415 91.638C95.8123 93.6172 94.604 95.6798 93.4581 97.8882C91.3546 101.892 89.6116 106.076 88.2496 110.389L88.4996 110.514C89.5413 109.18 91.7289 106.42 91.9372 106.211C95.0623 103.086 103.073 98.8362 107.563 101.128C108.291 101.529 108.927 102.079 109.428 102.741C109.93 103.404 110.286 104.166 110.474 104.976C110.662 105.785 110.677 106.626 110.518 107.442C110.359 108.258 110.03 109.031 109.552 109.712C107.625 112.67 103.448 113.878 100.177 114.128C96.3436 114.399 88.4058 111.399 88.1142 111.284C86.865 115.623 85.9011 120.039 85.2287 124.504C84.7078 127.795 84.3224 131.16 83.9682 134.546C84.6557 133.587 87.5516 129.962 87.7912 129.723C90.9163 126.598 98.927 122.347 103.417 124.639C104.145 125.04 104.781 125.59 105.282 126.253C105.784 126.916 106.14 127.677 106.328 128.487C106.516 129.297 106.531 130.137 106.372 130.953C106.213 131.769 105.884 132.542 105.406 133.223C103.479 136.181 99.302 137.39 96.0311 137.64C92.281 137.9 84.6661 135.067 84.0307 134.827C83.8744 136.358 83.6973 137.89 83.5515 139.431C83.0619 144.452 82.5932 149.494 81.9785 154.453C81.7702 156.171 81.4889 157.859 81.2285 159.547C82.2702 158.14 84.3536 155.63 84.5203 155.432C87.6454 152.307 95.6561 148.057 100.146 150.348C100.874 150.749 101.51 151.299 102.011 151.962C102.513 152.625 102.869 153.386 103.057 154.196C103.245 155.006 103.26 155.846 103.101 156.662C102.942 157.478 102.613 158.252 102.135 158.932C100.208 161.89 96.0311 163.099 92.7081 163.338C89.385 163.578 82.9057 161.328 81.1035 160.672C80.6348 163.484 80.0618 166.255 79.468 169.005C79.1659 170.172 78.9368 171.37 78.5826 172.474C78.2284 173.578 77.9159 174.693 77.5409 175.787C76.7805 178.016 76.0929 180.099 75.3325 182.162C74.9575 183.204 74.5825 184.183 74.197 185.193C75.0825 183.61 76.52 181.12 76.6867 180.912C79.3326 177.318 86.5724 171.932 91.2705 173.526C92.0507 173.812 92.7621 174.258 93.3582 174.837C93.9543 175.416 94.4219 176.114 94.7305 176.885C95.039 177.656 95.1817 178.484 95.1491 179.314C95.1165 180.145 94.9095 180.959 94.5415 181.704C93.0831 184.922 89.135 186.756 85.8849 187.495C82.3015 188.308 74.6033 186.745 73.6553 186.547C72.7178 189.016 71.7907 191.412 70.874 193.641C67.9885 200.683 65.3217 206.454 63.3946 210.454C63.2904 210.684 63.1862 210.882 63.0821 211.1H77.1138L72.2699 305.551C72.1007 309.039 70.5911 312.326 68.0561 314.727C65.5212 317.128 62.1568 318.457 58.6653 318.437C55.2055 318.429 51.8801 317.097 49.3716 314.714C46.863 312.332 45.3615 309.079 45.1752 305.624L40.3417 211.142H55.3943C55.3214 210.486 55.2485 209.798 55.1547 209.059C54.6547 204.694 53.8422 198.454 52.5296 191.027C52.165 188.881 51.7275 186.62 51.2692 184.297C50.29 184.422 42.5189 185.402 39.0084 184.297C35.8103 183.318 32.0185 181.172 30.8102 177.88C30.4975 177.11 30.3507 176.283 30.3791 175.452C30.4076 174.622 30.6108 173.806 30.9754 173.059C31.34 172.312 31.8579 171.651 32.4953 171.117C33.1327 170.584 33.8754 170.191 34.6749 169.964C39.5188 168.724 46.3419 174.63 48.717 178.422C48.8629 178.662 50.3421 181.724 51.0608 183.308C50.7796 181.901 50.4983 180.506 50.1754 179.047C49.7275 176.964 49.1337 174.745 48.6753 172.609C48.3628 171.516 48.0607 170.401 47.7482 169.286C47.4357 168.172 47.0399 167.099 46.7065 165.984C46.1544 164.37 45.4981 162.724 44.8523 161.088C42.7689 161.672 36.5187 163.276 33.3311 162.817C30.1435 162.359 25.9558 160.807 24.2579 157.713C23.8329 156.998 23.5632 156.202 23.4661 155.376C23.369 154.55 23.4468 153.713 23.6944 152.92C23.942 152.126 24.3538 151.393 24.9032 150.769C25.4525 150.144 26.127 149.643 26.8829 149.296C31.4873 147.348 39.1125 152.15 42.0397 155.546C42.1335 155.651 42.6751 156.432 43.3106 157.359C42.6335 155.776 41.9564 154.234 41.2272 152.619C39.1438 148.14 36.8416 143.64 34.5707 139.077C34.1019 138.14 33.6436 137.192 33.1748 136.244C31.3935 136.744 24.6745 138.546 21.3307 138.056C17.9868 137.567 13.9554 136.046 12.2575 132.952C11.831 132.238 11.56 131.443 11.4622 130.617C11.3643 129.792 11.4418 128.955 11.6896 128.161C11.9374 127.368 12.3498 126.636 12.9001 126.013C13.4503 125.389 14.1258 124.889 14.8825 124.545C19.4764 122.587 27.1121 127.4 30.0393 130.796C30.1435 130.921 30.7893 131.837 31.5081 132.879C30.3101 130.4 29.1434 127.92 28.0601 125.431C26.1894 121.154 24.6026 116.759 23.3099 112.274C22.6849 112.462 14.8513 114.733 11.1324 114.191C7.83022 113.712 3.75716 112.18 2.05919 109.087C1.63893 108.376 1.37209 107.586 1.27588 106.767C1.17966 105.947 1.25621 105.117 1.50058 104.329C1.74496 103.541 2.15173 102.812 2.6947 102.191C3.23767 101.57 3.90477 101.069 4.65303 100.722C9.25735 98.7632 16.8826 103.576 19.8098 106.972C20.0181 107.211 22.3307 110.597 23.1224 111.826C23.118 111.774 23.118 111.722 23.1224 111.67C21.9619 107.233 21.2018 102.701 20.8515 98.1278C20.5107 94.0468 20.4133 89.9491 20.5598 85.8566C20.6431 82.0648 20.9557 78.5647 21.2682 75.5333C21.4453 73.8666 21.6328 72.3561 21.8307 70.9498L21.7474 71.0019C21.664 71.0019 19.9869 65.2204 19.9244 64.835C19.1848 60.4286 20.3619 51.4804 24.7995 49.2095C25.5473 48.8467 26.3633 48.6459 27.194 48.62C28.0247 48.5942 28.8515 48.744 29.6204 49.0596C30.3893 49.3752 31.0829 49.8496 31.6559 50.4516C32.2289 51.0536 32.6684 51.7698 32.9457 52.5534C34.2478 55.8347 32.8311 59.9494 31.0914 62.8037C29.3518 65.658 23.5287 69.8039 22.0807 70.7936C21.9036 72.2624 21.7369 73.8353 21.5911 75.5854C21.3515 78.648 21.1119 82.1064 21.1015 85.8878C21.1015 86.9295 21.1015 87.9712 21.1536 89.0129C21.4973 87.242 21.9974 84.8461 22.0703 84.5753C23.4453 80.3251 28.6018 72.929 33.6123 72.929C34.4428 72.9549 35.2584 73.1551 36.0065 73.5166C36.7546 73.878 37.4183 74.3927 37.9546 75.0273C38.4909 75.6618 38.8878 76.402 39.1196 77.1998C39.3514 77.9977 39.4129 78.8353 39.3 79.6584C38.9354 83.169 35.7791 86.1691 32.9248 87.8983C30.0705 89.6275 22.7578 90.6588 21.1848 90.8463C21.2473 93.1797 21.3828 95.5652 21.6536 98.0549C22.1075 102.573 22.9616 107.042 24.2058 111.409H24.487C24.6016 109.732 24.9245 106.201 24.9766 105.92C25.8829 101.545 30.1851 93.6276 35.1749 93.086C36.0033 93.02 36.8363 93.1289 37.6199 93.4057C38.4035 93.6825 39.1201 94.121 39.7233 94.6927C40.3264 95.2644 40.8026 95.9566 41.1209 96.7242C41.4392 97.4919 41.5926 98.3179 41.5709 99.1487C41.5709 102.68 38.7792 106.003 36.1333 108.034C33.0394 110.295 24.7683 112.18 24.4454 112.243C25.7969 116.55 27.4289 120.764 29.3309 124.858C30.6956 127.889 32.2581 130.931 33.8207 133.931C33.8207 132.744 34.279 128.129 34.3519 127.795C35.2582 123.42 39.5605 115.503 44.5398 114.962C45.3677 114.894 46.2005 115.002 46.9841 115.277C47.7677 115.553 48.4844 115.99 49.0878 116.561C49.6911 117.132 50.1675 117.824 50.4859 118.591C50.8043 119.358 50.9576 120.184 50.9358 121.014C50.9358 124.545 48.1545 127.868 45.5086 129.9C42.5293 132.191 34.6124 134.067 33.9457 134.181C34.6645 135.546 35.3624 136.921 36.0916 138.285C38.4562 142.744 40.8417 147.202 43.0606 151.682C43.8314 153.234 44.5398 154.807 45.2481 156.349C45.3731 154.578 45.6752 151.369 45.7273 151.088C46.6336 146.723 50.9358 138.796 55.9152 138.254C56.7436 138.188 57.5766 138.297 58.3602 138.574C59.1438 138.851 59.8604 139.289 60.4636 139.861C61.0667 140.433 61.5429 141.125 61.8612 141.892C62.1795 142.66 62.3328 143.486 62.3112 144.317C62.3112 147.848 59.5299 151.171 56.8839 153.203C54.238 155.234 47.6024 156.932 45.7273 157.369C46.894 159.963 47.9878 162.578 48.9462 165.182C49.3316 166.318 49.8004 167.453 50.1129 168.568L51.1546 171.87C51.7588 174.151 52.3317 176.266 52.8317 178.412C53.1026 179.453 53.3213 180.495 53.5609 181.537C53.4255 179.735 53.2588 176.86 53.2692 176.599C53.4984 172.141 56.561 163.651 61.3945 162.37C62.2069 162.167 63.0529 162.14 63.8767 162.289C64.7004 162.438 65.483 162.761 66.1725 163.236C66.8621 163.711 67.4428 164.327 67.8762 165.043C68.3096 165.759 68.5858 166.559 68.6864 167.391C68.756 167.821 68.7839 168.257 68.7698 168.693C70.7464 172.095 71.822 175.946 71.8949 179.881C71.8949 180.162 71.4261 183.537 71.1553 185.245C71.6969 183.922 72.197 182.599 72.7595 181.214C73.5408 179.214 74.3116 177.047 75.0616 174.964C75.4054 173.922 75.7596 172.776 76.1033 171.672C76.4471 170.568 76.718 169.453 77.0305 168.339C77.468 166.682 77.8326 164.953 78.1972 163.224C76.1138 162.557 70.0406 160.463 67.6343 158.317C65.228 156.171 62.5925 152.567 62.8737 149.046C62.9149 148.216 63.1301 147.404 63.5053 146.663C63.8806 145.922 64.4075 145.268 65.0518 144.743C65.6962 144.219 66.4436 143.835 67.2456 143.618C68.0477 143.401 68.8864 143.355 69.7073 143.483C74.6241 144.39 78.3326 152.609 78.9159 157.026C78.9159 157.161 78.9159 158.067 78.9159 159.244C79.2285 157.546 79.541 155.859 79.791 154.13C80.5097 149.234 81.0827 144.213 81.6869 139.202C81.8015 138.16 81.9473 137.119 82.0723 136.077C80.3222 135.514 73.7387 133.306 71.1969 131.056C68.6552 128.806 66.1551 125.306 66.4468 121.795C66.4851 120.965 66.698 120.152 67.0714 119.41C67.4449 118.667 67.9706 118.012 68.6144 117.486C69.2581 116.96 70.0054 116.576 70.8075 116.358C71.6097 116.14 72.4487 116.094 73.2699 116.222C78.1972 117.128 81.9056 125.358 82.4786 129.764C82.4786 129.921 82.4786 131.056 82.5411 132.327C82.9057 129.598 83.3119 126.889 83.7807 124.212C84.5784 119.63 85.6781 115.106 87.0725 110.67C86.4579 110.472 78.6659 108.045 75.8638 105.545C73.3741 103.315 70.8219 99.7945 71.1032 96.2736C71.1444 95.4437 71.3595 94.6318 71.7348 93.8905C72.11 93.1492 72.6369 92.4951 73.2813 91.9705C73.9256 91.446 74.6731 91.0628 75.4751 90.8458C76.2771 90.6288 77.1158 90.5828 77.9367 90.7109C82.8536 91.6172 86.562 99.8362 87.1454 104.253C87.1454 104.566 87.2495 108.659 87.2183 110.128V109.972C88.7023 105.65 90.5637 101.467 92.781 97.4715C94.7538 93.8752 96.9346 90.3969 99.3125 87.0545C101.479 83.9294 103.656 81.221 105.563 78.8355C106.604 77.5438 107.646 76.3875 108.563 75.3145H108.448C108.365 75.3145 110.188 69.5123 110.344 69.1581C112.157 65.085 118.063 58.2619 123.042 58.8036C123.879 58.9066 124.683 59.1874 125.402 59.6271C126.121 60.0668 126.737 60.6552 127.21 61.3528C127.683 62.0503 128 62.841 128.142 63.6716C128.284 64.5022 128.247 65.3535 128.032 66.1684ZM70.6657 186.193C69.8219 185.777 63.2592 182.526 60.6966 179.756C58.4858 180.978 56.2039 182.066 53.863 183.016C54.4464 185.589 54.9881 188.11 55.4464 190.475C56.936 197.944 57.884 204.215 58.4882 208.621C58.6236 209.559 58.7278 210.402 58.8319 211.163H59.1653L60.207 209.027C62.1966 205.111 64.9571 199.465 67.9677 192.548C68.8844 190.516 69.7802 188.381 70.6657 186.193ZM96.8749 90.7005C96.9582 90.7526 98.4687 84.8669 98.5312 84.4503C99.1458 80.023 97.7291 71.1165 93.2289 68.9393C92.4653 68.6004 91.6386 68.4269 90.8032 68.4305C89.9678 68.434 89.1426 68.6144 88.3819 68.9598C87.6212 69.3052 86.9423 69.8078 86.3898 70.4345C85.8374 71.0611 85.4239 71.7977 85.1766 72.5957C83.9682 75.9083 85.4995 79.9814 87.26 82.7835C89.4371 86.0232 96.8749 90.7005 96.8749 90.7005Z" fill="#67BC2A"/>
<path opacity="0.3" d="M0.66331 81.4502C0.441825 80.6493 0.391488 79.8109 0.515573 78.9893C0.639657 78.1677 0.935381 77.3815 1.38349 76.6818C1.83161 75.9821 2.42206 75.3847 3.11641 74.9283C3.81075 74.472 4.59343 74.167 5.41347 74.0332C10.372 73.3561 16.4659 80.0126 18.3931 84.044C18.5597 84.3878 20.539 90.1379 20.4765 90.1379C20.414 90.1379 11.6845 90.3359 8.10106 88.7733C5.00721 87.4295 1.52792 84.8774 0.66331 81.4502ZM128.032 66.1684C127.303 69.6268 123.865 72.2728 120.834 73.6895C117.803 75.1062 110.657 75.3562 108.896 75.3874C107.948 76.5229 106.938 77.7313 105.854 79.1063C103.958 81.5335 101.854 84.3148 99.7604 87.4399C99.1979 88.2837 98.6354 89.2004 98.0624 90.0859C99.3333 88.7941 101.094 87.0441 101.281 86.8878C104.771 84.1065 113.157 80.7835 117.323 83.544C118.004 84.0218 118.576 84.6377 119.002 85.3515C119.429 86.0653 119.7 86.8609 119.798 87.6865C119.896 88.5121 119.82 89.3492 119.573 90.1431C119.326 90.9371 118.914 91.67 118.365 92.2943C116.126 95.0235 111.834 95.784 108.5 95.6486C105.167 95.5131 98.4999 92.3464 97.0415 91.638C95.8123 93.6172 94.604 95.6798 93.4581 97.8882C91.3546 101.892 89.6116 106.076 88.2496 110.389L88.4996 110.514C89.5413 109.18 91.7289 106.42 91.9372 106.211C95.0623 103.086 103.073 98.8362 107.563 101.128C108.291 101.529 108.927 102.079 109.428 102.741C109.93 103.404 110.286 104.166 110.474 104.976C110.662 105.785 110.677 106.626 110.518 107.442C110.359 108.258 110.03 109.031 109.552 109.712C107.625 112.67 103.448 113.878 100.177 114.128C96.3436 114.399 88.4058 111.399 88.1142 111.284C86.865 115.623 85.9011 120.039 85.2287 124.504C84.7078 127.795 84.3224 131.16 83.9682 134.546C84.6557 133.587 87.5516 129.962 87.7912 129.723C90.9163 126.598 98.927 122.347 103.417 124.639C104.145 125.04 104.781 125.59 105.282 126.253C105.784 126.916 106.14 127.677 106.328 128.487C106.516 129.297 106.531 130.137 106.372 130.953C106.213 131.769 105.884 132.542 105.406 133.223C103.479 136.181 99.302 137.39 96.0311 137.64C92.281 137.9 84.6661 135.067 84.0307 134.827C83.8744 136.358 83.6973 137.89 83.5515 139.431C83.0619 144.452 82.5932 149.494 81.9785 154.453C81.7702 156.171 81.4889 157.859 81.2285 159.547C82.2702 158.14 84.3536 155.63 84.5203 155.432C87.6454 152.307 95.6561 148.057 100.146 150.348C100.874 150.749 101.51 151.299 102.011 151.962C102.513 152.625 102.869 153.386 103.057 154.196C103.245 155.006 103.26 155.846 103.101 156.662C102.942 157.478 102.613 158.252 102.135 158.932C100.208 161.89 96.0311 163.099 92.7081 163.338C89.385 163.578 82.9057 161.328 81.1035 160.672C80.6348 163.484 80.0618 166.255 79.468 169.005C79.1659 170.172 78.9368 171.37 78.5826 172.474C78.2284 173.578 77.9159 174.693 77.5409 175.787C76.7805 178.016 76.0929 180.099 75.3325 182.162C74.9575 183.204 74.5825 184.183 74.197 185.193C75.0825 183.61 76.52 181.12 76.6867 180.912C79.3326 177.318 86.5724 171.932 91.2705 173.526C92.0507 173.812 92.7621 174.258 93.3582 174.837C93.9543 175.416 94.4219 176.114 94.7305 176.885C95.039 177.656 95.1817 178.484 95.1491 179.314C95.1165 180.145 94.9095 180.959 94.5415 181.704C93.0831 184.922 89.135 186.756 85.8849 187.495C82.3015 188.308 74.6033 186.745 73.6553 186.547C72.7178 189.016 71.7907 191.412 70.874 193.641C67.9885 200.683 65.3217 206.454 63.3946 210.454C63.2904 210.684 63.1862 210.882 63.0821 211.1H77.1138L72.2699 305.551C72.1007 309.039 70.5911 312.326 68.0561 314.727C65.5212 317.128 62.1568 318.457 58.6653 318.437C55.2055 318.429 51.8801 317.097 49.3716 314.714C46.863 312.332 45.3615 309.079 45.1752 305.624L40.3417 211.142H55.3943C55.3214 210.486 55.2485 209.798 55.1547 209.059C54.6547 204.694 53.8422 198.454 52.5296 191.027C52.165 188.881 51.7275 186.62 51.2692 184.297C50.29 184.422 42.5189 185.402 39.0084 184.297C35.8103 183.318 32.0185 181.172 30.8102 177.88C30.4975 177.11 30.3507 176.283 30.3791 175.452C30.4076 174.622 30.6108 173.806 30.9754 173.059C31.34 172.312 31.8579 171.651 32.4953 171.117C33.1327 170.584 33.8754 170.191 34.6749 169.964C39.5188 168.724 46.3419 174.63 48.717 178.422C48.8629 178.662 50.3421 181.724 51.0608 183.308C50.7796 181.901 50.4983 180.506 50.1754 179.047C49.7275 176.964 49.1337 174.745 48.6753 172.609C48.3628 171.516 48.0607 170.401 47.7482 169.286C47.4357 168.172 47.0399 167.099 46.7065 165.984C46.1544 164.37 45.4981 162.724 44.8523 161.088C42.7689 161.672 36.5187 163.276 33.3311 162.817C30.1435 162.359 25.9558 160.807 24.2579 157.713C23.8329 156.998 23.5632 156.202 23.4661 155.376C23.369 154.55 23.4468 153.713 23.6944 152.92C23.942 152.126 24.3538 151.393 24.9032 150.769C25.4525 150.144 26.127 149.643 26.8829 149.296C31.4873 147.348 39.1125 152.15 42.0397 155.546C42.1335 155.651 42.6751 156.432 43.3106 157.359C42.6335 155.776 41.9564 154.234 41.2272 152.619C39.1438 148.14 36.8416 143.64 34.5707 139.077C34.1019 138.14 33.6436 137.192 33.1748 136.244C31.3935 136.744 24.6745 138.546 21.3307 138.056C17.9868 137.567 13.9554 136.046 12.2575 132.952C11.831 132.238 11.56 131.443 11.4622 130.617C11.3643 129.792 11.4418 128.955 11.6896 128.161C11.9374 127.368 12.3498 126.636 12.9001 126.013C13.4503 125.389 14.1258 124.889 14.8825 124.545C19.4764 122.587 27.1121 127.4 30.0393 130.796C30.1435 130.921 30.7893 131.837 31.5081 132.879C30.3101 130.4 29.1434 127.92 28.0601 125.431C26.1894 121.154 24.6026 116.759 23.3099 112.274C22.6849 112.462 14.8513 114.733 11.1324 114.191C7.83022 113.712 3.75716 112.18 2.05919 109.087C1.63893 108.376 1.37209 107.586 1.27588 106.767C1.17966 105.947 1.25621 105.117 1.50058 104.329C1.74496 103.541 2.15173 102.812 2.6947 102.191C3.23767 101.57 3.90477 101.069 4.65303 100.722C9.25735 98.7632 16.8826 103.576 19.8098 106.972C20.0181 107.211 22.3307 110.597 23.1224 111.826C23.118 111.774 23.118 111.722 23.1224 111.67C21.9619 107.233 21.2018 102.701 20.8515 98.1278C20.5107 94.0468 20.4133 89.9491 20.5598 85.8566C20.6431 82.0648 20.9557 78.5647 21.2682 75.5333C21.4453 73.8666 21.6328 72.3561 21.8307 70.9498L21.7474 71.0019C21.664 71.0019 19.9869 65.2204 19.9244 64.835C19.1848 60.4286 20.3619 51.4804 24.7995 49.2095C25.5473 48.8467 26.3633 48.6459 27.194 48.62C28.0247 48.5942 28.8515 48.744 29.6204 49.0596C30.3893 49.3752 31.0829 49.8496 31.6559 50.4516C32.2289 51.0536 32.6684 51.7698 32.9457 52.5534C34.2478 55.8347 32.8311 59.9494 31.0914 62.8037C29.3518 65.658 23.5287 69.8039 22.0807 70.7936C21.9036 72.2624 21.7369 73.8353 21.5911 75.5854C21.3515 78.648 21.1119 82.1064 21.1015 85.8878C21.1015 86.9295 21.1015 87.9712 21.1536 89.0129C21.4973 87.242 21.9974 84.8461 22.0703 84.5753C23.4453 80.3251 28.6018 72.929 33.6123 72.929C34.4428 72.9549 35.2584 73.1551 36.0065 73.5166C36.7546 73.878 37.4183 74.3927 37.9546 75.0273C38.4909 75.6618 38.8878 76.402 39.1196 77.1998C39.3514 77.9977 39.4129 78.8353 39.3 79.6584C38.9354 83.169 35.7791 86.1691 32.9248 87.8983C30.0705 89.6275 22.7578 90.6588 21.1848 90.8463C21.2473 93.1797 21.3828 95.5652 21.6536 98.0549C22.1075 102.573 22.9616 107.042 24.2058 111.409H24.487C24.6016 109.732 24.9245 106.201 24.9766 105.92C25.8829 101.545 30.1851 93.6276 35.1749 93.086C36.0033 93.02 36.8363 93.1289 37.6199 93.4057C38.4035 93.6825 39.1201 94.121 39.7233 94.6927C40.3264 95.2644 40.8026 95.9566 41.1209 96.7242C41.4392 97.4919 41.5926 98.3179 41.5709 99.1487C41.5709 102.68 38.7792 106.003 36.1333 108.034C33.0394 110.295 24.7683 112.18 24.4454 112.243C25.7969 116.55 27.4289 120.764 29.3309 124.858C30.6956 127.889 32.2581 130.931 33.8207 133.931C33.8207 132.744 34.279 128.129 34.3519 127.795C35.2582 123.42 39.5605 115.503 44.5398 114.962C45.3677 114.894 46.2005 115.002 46.9841 115.277C47.7677 115.553 48.4844 115.99 49.0878 116.561C49.6911 117.132 50.1675 117.824 50.4859 118.591C50.8043 119.358 50.9576 120.184 50.9358 121.014C50.9358 124.545 48.1545 127.868 45.5086 129.9C42.5293 132.191 34.6124 134.067 33.9457 134.181C34.6645 135.546 35.3624 136.921 36.0916 138.285C38.4562 142.744 40.8417 147.202 43.0606 151.682C43.8314 153.234 44.5398 154.807 45.2481 156.349C45.3731 154.578 45.6752 151.369 45.7273 151.088C46.6336 146.723 50.9358 138.796 55.9152 138.254C56.7436 138.188 57.5766 138.297 58.3602 138.574C59.1438 138.851 59.8604 139.289 60.4636 139.861C61.0667 140.433 61.5429 141.125 61.8612 141.892C62.1795 142.66 62.3328 143.486 62.3112 144.317C62.3112 147.848 59.5299 151.171 56.8839 153.203C54.238 155.234 47.6024 156.932 45.7273 157.369C46.894 159.963 47.9878 162.578 48.9462 165.182C49.3316 166.318 49.8004 167.453 50.1129 168.568L51.1546 171.87C51.7588 174.151 52.3317 176.266 52.8317 178.412C53.1026 179.453 53.3213 180.495 53.5609 181.537C53.4255 179.735 53.2588 176.86 53.2692 176.599C53.4984 172.141 56.561 163.651 61.3945 162.37C62.2069 162.167 63.0529 162.14 63.8767 162.289C64.7004 162.438 65.483 162.761 66.1725 163.236C66.8621 163.711 67.4428 164.327 67.8762 165.043C68.3096 165.759 68.5858 166.559 68.6864 167.391C68.756 167.821 68.7839 168.257 68.7698 168.693C70.7464 172.095 71.822 175.946 71.8949 179.881C71.8949 180.162 71.4261 183.537 71.1553 185.245C71.6969 183.922 72.197 182.599 72.7595 181.214C73.5408 179.214 74.3116 177.047 75.0616 174.964C75.4054 173.922 75.7596 172.776 76.1033 171.672C76.4471 170.568 76.718 169.453 77.0305 168.339C77.468 166.682 77.8326 164.953 78.1972 163.224C76.1138 162.557 70.0406 160.463 67.6343 158.317C65.228 156.171 62.5925 152.567 62.8737 149.046C62.9149 148.216 63.1301 147.404 63.5053 146.663C63.8806 145.922 64.4075 145.268 65.0518 144.743C65.6962 144.219 66.4436 143.835 67.2456 143.618C68.0477 143.401 68.8864 143.355 69.7073 143.483C74.6241 144.39 78.3326 152.609 78.9159 157.026C78.9159 157.161 78.9159 158.067 78.9159 159.244C79.2285 157.546 79.541 155.859 79.791 154.13C80.5097 149.234 81.0827 144.213 81.6869 139.202C81.8015 138.16 81.9473 137.119 82.0723 136.077C80.3222 135.514 73.7387 133.306 71.1969 131.056C68.6552 128.806 66.1551 125.306 66.4468 121.795C66.4851 120.965 66.698 120.152 67.0714 119.41C67.4449 118.667 67.9706 118.012 68.6144 117.486C69.2581 116.96 70.0054 116.576 70.8075 116.358C71.6097 116.14 72.4487 116.094 73.2699 116.222C78.1972 117.128 81.9056 125.358 82.4786 129.764C82.4786 129.921 82.4786 131.056 82.5411 132.327C82.9057 129.598 83.3119 126.889 83.7807 124.212C84.5784 119.63 85.6781 115.106 87.0725 110.67C86.4579 110.472 78.6659 108.045 75.8638 105.545C73.3741 103.315 70.8219 99.7945 71.1032 96.2736C71.1444 95.4437 71.3595 94.6318 71.7348 93.8905C72.11 93.1492 72.6369 92.4951 73.2813 91.9705C73.9256 91.446 74.6731 91.0628 75.4751 90.8458C76.2771 90.6288 77.1158 90.5828 77.9367 90.7109C82.8536 91.6172 86.562 99.8362 87.1454 104.253C87.1454 104.566 87.2495 108.659 87.2183 110.128V109.972C88.7023 105.65 90.5637 101.467 92.781 97.4715C94.7538 93.8752 96.9346 90.3969 99.3125 87.0545C101.479 83.9294 103.656 81.221 105.563 78.8355C106.604 77.5438 107.646 76.3875 108.563 75.3145H108.448C108.365 75.3145 110.188 69.5123 110.344 69.1581C112.157 65.085 118.063 58.2619 123.042 58.8036C123.879 58.9066 124.683 59.1874 125.402 59.6271C126.121 60.0668 126.737 60.6552 127.21 61.3528C127.683 62.0503 128 62.841 128.142 63.6716C128.284 64.5022 128.247 65.3535 128.032 66.1684ZM70.6657 186.193C69.8219 185.777 63.2592 182.526 60.6966 179.756C58.4858 180.978 56.2039 182.066 53.863 183.016C54.4464 185.589 54.9881 188.11 55.4464 190.475C56.936 197.944 57.884 204.215 58.4882 208.621C58.6236 209.559 58.7278 210.402 58.8319 211.163H59.1653L60.207 209.027C62.1966 205.111 64.9571 199.465 67.9677 192.548C68.8844 190.516 69.7802 188.381 70.6657 186.193ZM96.8749 90.7005C96.9582 90.7526 98.4687 84.8669 98.5312 84.4503C99.1458 80.023 97.7291 71.1165 93.2289 68.9393C92.4653 68.6004 91.6386 68.4269 90.8032 68.4305C89.9678 68.434 89.1426 68.6144 88.3819 68.9598C87.6212 69.3052 86.9423 69.8078 86.3898 70.4345C85.8374 71.0611 85.4239 71.7977 85.1766 72.5957C83.9682 75.9083 85.4995 79.9814 87.26 82.7835C89.4371 86.0232 96.8749 90.7005 96.8749 90.7005Z" fill="white"/>
<path d="M363.081 322.875C359.308 325.628 355.331 328.09 351.185 330.24C346.278 332.5 345.33 332.5 345.518 333.823C345.705 335.146 351.372 337.219 361.758 334.771C372.144 332.323 377.05 332.875 378.561 327.969C380.071 323.062 377.623 324.385 374.602 324.385C370.738 324.085 366.892 323.58 363.081 322.875Z" fill="#2E353A" stroke="#2E353A" stroke-linecap="round" stroke-linejoin="round"/>
<path d="M377.999 329.273C373.571 330.44 365.592 332.399 358.925 333.44C354.548 334.233 350.048 334.034 345.758 332.857C345.642 332.984 345.559 333.139 345.517 333.306C345.476 333.473 345.476 333.648 345.518 333.815C345.706 335.138 351.373 337.211 361.759 334.763C371.113 332.565 376.009 332.784 377.999 329.273Z" fill="white" stroke="#2E353A" stroke-linecap="round" stroke-linejoin="round"/>
<path d="M414.042 232.717C414.042 232.717 414.428 239.331 409.875 248.394C405.323 257.457 391.969 258.207 388.385 258.207C384.802 258.207 385.927 254.436 385.927 254.436L386.489 251.03L380.447 249.519C380.447 249.519 364.405 270.864 364.405 272.562C364.405 274.26 380.989 313.24 381.937 317.772C382.885 322.303 383.447 323.438 381.364 325.136C379.821 326.225 378.047 326.945 376.181 327.239C374.316 327.533 372.407 327.395 370.603 326.834C367.799 325.957 365.082 324.82 362.488 323.438C362.383 321.742 362.383 320.041 362.488 318.345C362.676 316.647 365.509 317.97 364.186 315.136C362.863 312.303 362.103 311.542 361.353 309.657C360.603 307.771 342.738 277.999 343.498 271.01C344.259 264.02 361.009 239.759 361.009 239.196C361.715 237.427 362.533 235.705 363.457 234.04C363.457 234.04 364.207 231.581 366.103 231.206C367.999 230.831 396.875 231.206 404.24 230.269C411.605 229.331 415.188 229.696 414.042 232.717Z" fill="#67BC2A" stroke="#2E353A" stroke-linecap="round" stroke-linejoin="round"/>
<path d="M366.967 286.32L368.04 288.602" stroke="#2E353A" stroke-width="0.75" stroke-linecap="round" stroke-linejoin="round"/>
<path d="M370.343 260.414L362.197 271.06C362.197 271.06 351.78 272.321 354.905 272.529C358.03 272.737 361.155 272.737 361.155 272.737C361.155 272.737 358.437 273.571 359.072 273.987C359.804 274.279 360.587 274.421 361.374 274.404L365.822 283.863" stroke="#2E353A" stroke-width="0.75" stroke-linecap="round" stroke-linejoin="round"/>
<path d="M354.424 153.225C354.424 153.225 351.789 154.684 347.82 156.944C343.851 159.205 341.569 160.34 341.028 162.236C340.486 164.132 328.934 187.779 328.934 187.779C328.934 187.779 333.465 190.425 337.621 192.31C340.78 193.608 344.07 194.558 347.434 195.144L351.216 187.216C351.216 187.216 358.508 200.987 361.633 205.904C367.195 214.686 365.404 220.071 364.654 223.092C363.904 226.113 361.82 231.78 362.383 232.53C362.945 233.28 377.675 239.895 387.123 239.333C396.571 238.77 412.759 237.895 413.895 236.572C415.03 235.249 415.218 227.624 415.218 227.051C415.218 226.478 413.551 211.759 411.853 202.883C410.155 194.008 400.905 170.216 397.884 163.799C394.863 157.382 392.029 155.298 384.342 152.663C376.654 150.027 365.268 149.454 360.549 150.017C355.83 150.58 354.424 153.225 354.424 153.225Z" fill="#2E353A" stroke="#2E353A" stroke-linecap="round" stroke-linejoin="round"/>
<path d="M386.207 178.547L397.905 182.307L388.093 183.349" stroke="white" stroke-width="0.75" stroke-linecap="round" stroke-linejoin="round"/>
<path d="M366.998 208.414C366.998 208.414 378.269 217.602 392.061 217.602" stroke="white" stroke-width="0.75" stroke-linecap="round" stroke-linejoin="round"/>
<path d="M370.76 216.766C370.76 216.766 380.135 221.151 389.76 219.693" stroke="white" stroke-width="0.75" stroke-linecap="round" stroke-linejoin="round"/>
<path d="M346.529 175.625L351.217 187.209L341.311 172.906" stroke="white" stroke-width="0.75" stroke-linecap="round" stroke-linejoin="round"/>
<path d="M353.622 154.547C353.368 156.676 353.305 158.823 353.435 160.964C353.622 164.932 354.945 167.766 353.81 170.599C352.674 173.433 354.008 174.766 355.133 173.433C356.258 172.099 358.154 167.005 358.539 166.068C358.925 165.13 366.873 163.422 367.977 163.422C369.081 163.422 372.696 169.089 374.394 169.839C376.092 170.589 375.717 169.089 374.581 166.068C373.446 163.047 372.133 152.526 369.488 149.255C366.842 145.984 356.31 146.807 353.622 154.547Z" fill="white" stroke="#2E353A" stroke-linecap="round" stroke-linejoin="round"/>
<path d="M355.561 157.943C354.519 157.578 361.03 167.579 363.676 172.672C366.322 177.766 368.77 176.454 369.155 172.485C369.541 168.516 367.832 155.297 367.832 155.297C367.832 155.297 361.03 159.839 355.561 157.943Z" fill="white" stroke="#2E353A" stroke-linecap="round" stroke-linejoin="round"/>
<path d="M369.081 167.734C366.645 168.779 363.949 169.056 361.352 168.526C362.237 170.047 363.06 171.495 363.675 172.693C366.32 177.787 368.768 176.474 369.154 172.505C369.235 170.915 369.211 169.321 369.081 167.734Z" fill="#67BC2A" stroke="#2E353A" stroke-linecap="round" stroke-linejoin="round"/>
<path d="M374.623 238.07V261.415" stroke="#2E353A" stroke-width="4" stroke-linecap="round" stroke-linejoin="round"/>
<path d="M394.646 243.326C394.539 243.336 394.431 243.336 394.323 243.326L359.207 239.159C358.512 239.049 357.885 238.673 357.46 238.112C357.034 237.55 356.843 236.845 356.925 236.146C357.007 235.446 357.357 234.805 357.9 234.357C358.444 233.909 359.14 233.689 359.843 233.742L394.959 237.909C395.667 237.966 396.324 238.298 396.791 238.834C397.257 239.369 397.495 240.066 397.455 240.775C397.414 241.485 397.097 242.15 396.572 242.628C396.047 243.107 395.356 243.361 394.646 243.336V243.326Z" fill="white" stroke="#2E353A" stroke-linecap="round" stroke-linejoin="round"/>
<path d="M394.801 242.461C395.739 242.461 396.499 241.566 396.499 240.461C396.499 239.356 395.739 238.461 394.801 238.461C393.864 238.461 393.104 239.356 393.104 240.461C393.104 241.566 393.864 242.461 394.801 242.461Z" fill="white" stroke="#2E353A" stroke-width="0.75" stroke-linecap="round" stroke-linejoin="round"/>
<path d="M362.914 340.948L383.966 351.313C384.088 351.367 384.219 351.395 384.352 351.395C384.485 351.395 384.616 351.367 384.737 351.313L397.373 346.636C397.553 346.569 397.71 346.45 397.822 346.294C397.935 346.138 397.999 345.953 398.005 345.761C398.012 345.569 397.962 345.379 397.86 345.215C397.759 345.052 397.611 344.923 397.436 344.844L377.706 335.708C377.504 335.614 377.276 335.592 377.06 335.646L363.122 339.135C362.927 339.181 362.752 339.285 362.619 339.434C362.486 339.583 362.402 339.77 362.379 339.968C362.357 340.167 362.396 340.367 362.491 340.543C362.587 340.718 362.735 340.86 362.914 340.948Z" fill="white" stroke="#2E353A" stroke-linecap="round" stroke-linejoin="round"/>
<path d="M379.665 344.396H375.498C374.551 344.393 373.644 344.016 372.975 343.346C372.305 342.677 371.928 341.77 371.925 340.823L369.311 264.466C369.311 263.607 369.652 262.783 370.259 262.175C370.867 261.568 371.691 261.227 372.55 261.227H377.394C378.253 261.227 379.077 261.568 379.685 262.175C380.293 262.783 380.634 263.607 380.634 264.466L383.249 340.823C383.249 341.293 383.156 341.759 382.976 342.193C382.795 342.627 382.531 343.021 382.198 343.353C381.865 343.685 381.47 343.948 381.036 344.127C380.601 344.306 380.135 344.397 379.665 344.396Z" fill="white" stroke="#2E353A" stroke-linecap="round" stroke-linejoin="round"/>
<path d="M389.894 341.75C386.727 344.725 383.384 347.508 379.884 350.084C375.717 352.917 375.352 352.542 376.3 354.427C377.248 356.313 380.071 357.448 388.009 355.75C395.947 354.052 398.582 352.73 402.926 350.271C407.27 347.813 408.583 347.813 407.458 346.302C406.332 344.792 389.894 341.75 389.894 341.75Z" fill="#2E353A" stroke="#2E353A" stroke-linecap="round" stroke-linejoin="round"/>
<path d="M402.927 350.248C407.26 347.789 408.583 347.789 407.458 346.279C407.16 346 406.804 345.791 406.416 345.664C400.66 349.066 394.564 351.859 388.228 353.998C380.103 356.446 376.145 353.612 376.145 353.612L376.051 353.769C376.133 353.975 376.227 354.177 376.332 354.373C377.27 356.258 380.103 357.394 388.041 355.696C395.979 353.998 398.583 352.706 402.927 350.248Z" fill="white" stroke="#2E353A" stroke-linecap="round" stroke-linejoin="round"/>
<path d="M419.75 190.797C418.4 187.84 417.204 184.815 416.167 181.734C413 183.245 403.323 191.349 403.323 191.349L411.823 202.86C411.823 202.86 403.708 214.569 399.927 221.184C397.148 225.697 393.711 229.77 389.728 233.267L380.447 233.153C380.037 233.413 379.692 233.763 379.437 234.176C379.183 234.589 379.026 235.055 378.978 235.538C378.978 236.997 377.332 242.132 378.061 243.049C378.791 243.966 383.197 244.143 383.197 244.143C383.197 244.143 390.343 244.882 391.624 243.049C391.624 243.049 389.426 240.663 389.603 239.57C389.781 238.476 391.989 237.736 391.989 237.736L394.385 237.559C394.385 237.559 395.208 238.132 395.895 234.434C397.75 233.205 404.489 228.684 408.052 225.121C412.219 220.954 424.48 207.183 425.417 204.537C426.355 201.891 422.209 196.277 419.75 190.797Z" fill="white" stroke="#2E353A" stroke-linecap="round" stroke-linejoin="round"/>
<path d="M418.875 188.787C417.031 184.464 416.166 181.734 416.166 181.734C413 183.245 403.322 191.349 403.322 191.349L407.364 196.818C411.889 195.295 415.884 192.508 418.875 188.787Z" fill="#67BC2A" stroke="#2E353A" stroke-linecap="round" stroke-linejoin="round"/>
<path d="M392.749 177.202L402.76 194.911L408.615 190.942C411.921 188.492 414.848 185.568 417.302 182.265C413.237 175.825 408.693 169.699 403.708 163.941C395.77 154.878 391.999 154.316 388.604 154.503" fill="#2E353A"/>
<path d="M392.749 177.202L402.76 194.911L408.615 190.942C411.921 188.492 414.848 185.568 417.302 182.265C413.237 175.825 408.693 169.699 403.708 163.941C395.77 154.878 391.999 154.316 388.604 154.503" stroke="#2E353A" stroke-linecap="round" stroke-linejoin="round"/>
<path d="M368.353 238.671C368.353 237.931 365.227 230.244 365.227 230.244L355.852 225.087C351.987 217.316 346.05 204.878 345.029 202.691C344.267 201.173 343.633 199.594 343.133 197.972L344.727 194.576C342.307 194.039 339.943 193.279 337.664 192.305C335.904 191.513 334.091 190.586 332.581 189.773C331.747 192.961 330.32 198.451 330.862 201.18C331.403 203.909 343.727 219.514 349.883 227.4C349.883 227.4 352.456 238.306 353.56 239.952L354.665 241.598C354.665 241.598 356.488 243.619 357.404 243.431C358.191 243.184 358.934 242.811 359.602 242.327C360.253 242.54 360.944 242.604 361.623 242.515C362.517 242.13 363.324 241.57 363.998 240.869C363.998 240.869 364.915 241.911 367.123 241.421C369.332 240.931 368.353 239.4 368.353 238.671Z" fill="white" stroke="#2E353A" stroke-linecap="round" stroke-linejoin="round"/>
<path d="M331.434 194.307C334.967 196.701 339.034 198.189 343.278 198.641C343.142 198.235 343.09 198.026 343.09 198.026L344.684 194.63C342.264 194.094 339.9 193.334 337.621 192.359C335.861 191.568 334.048 190.641 332.538 189.828C332.204 191.036 331.746 192.641 331.434 194.307Z" fill="#67BC2A" stroke="#2E353A" stroke-linecap="round" stroke-linejoin="round"/>
<path d="M196.326 244.313V237.938" stroke="#2E353A" stroke-width="6" stroke-linecap="round" stroke-linejoin="round"/>
<path d="M374.905 329.242L367.019 330.555C367.019 330.555 362.207 331.868 361.332 336.243C359.227 346.774 348.331 350.733 339.039 352.816C325.891 355.856 312.55 357.997 299.111 359.223C278.61 361.046 257.787 360.702 237.484 357.139C225.827 355.056 208.056 352.806 199.368 343.93C198.635 343.259 198.083 342.413 197.764 341.472C197.066 338.909 199.441 336.576 201.733 335.222C205.942 332.969 210.428 331.277 215.077 330.19C227.004 326.919 241.901 326.294 253.016 321.107C256.266 319.596 258.224 317.18 254.911 314.263C244.599 305.127 196.326 303.512 196.326 286.335V244.312" stroke="#2E353A" stroke-width="3" stroke-linecap="round" stroke-linejoin="round"/>
<path d="M345.999 145.025C345.626 143.05 344.974 141.138 344.061 139.348C342.77 137.15 339.217 133.608 338.571 130.254C337.926 126.899 342.905 122.962 342.905 122.962C342.905 122.962 340.186 122.962 340.822 121.795C341.457 120.628 344.572 121.149 344.572 121.149C344.36 120.542 344.309 119.89 344.422 119.257C344.535 118.624 344.809 118.031 345.218 117.534C346.634 115.857 347.155 119.086 347.155 119.086C348.682 115.96 351.052 113.322 353.999 111.472C358.645 108.753 366.916 112.513 367.822 114.826C368.729 117.139 366.541 116.347 366.541 116.347C366.541 116.347 377.646 121.378 378.417 128.847C379.187 136.316 372.739 135.045 372.739 135.045C372.739 135.045 373.125 139.441 372.218 140.993C371.312 142.546 370.927 143.077 366.406 139.441C361.885 135.806 352.593 137.118 352.072 139.962C351.551 142.806 349.989 147.056 347.686 146.546C345.384 146.035 345.999 145.025 345.999 145.025Z" fill="#2E353A" stroke="#2E353A" stroke-linecap="round" stroke-linejoin="round"/>
<path d="M352.385 128.013C352.385 128.013 347.916 124.159 352.791 123.357C357.666 122.555 359.479 131.263 364.552 133.086C367.685 134.143 371.108 133.926 374.083 132.482" stroke="white" stroke-width="0.5" stroke-linecap="round" stroke-linejoin="round"/>
<path d="M351.624 127.336C351.624 127.336 346.509 124.003 346.946 121.773C347.384 119.544 355.634 116.648 360.082 119.325C364.53 122.003 364.76 127.565 370.322 128.899C375.885 130.232 375 127.117 374.333 126.221" stroke="white" stroke-width="0.5" stroke-linecap="round" stroke-linejoin="round"/>
<path d="M341.831 131.128C340.935 130.014 340.716 125.784 344.279 125.118C347.842 124.451 350.738 128.243 350.738 128.243C350.06 128.68 346.06 129.795 345.394 133.139C344.727 136.483 348.06 136.472 346.508 139.389" stroke="white" stroke-width="0.5" stroke-linecap="round" stroke-linejoin="round"/>
<path d="M346.643 145.104C346.643 145.104 346.455 144.864 346.174 144.573C345.487 143.864 343.549 143.354 342.955 144.771C342.122 146.781 344.393 150.594 346.08 151.094C346.542 151.248 347.034 151.286 347.514 151.204C347.994 151.122 348.446 150.923 348.831 150.625C348.831 150.625 353.477 160 359.32 162.198C365.164 164.396 368.05 157.479 369.894 152.823C371.738 148.167 371.06 146.479 371.06 146.479C371.06 146.479 374.186 147.219 375.154 143.541C376.123 139.864 374.571 138.458 373.571 138.625C372.629 138.889 371.728 139.281 370.894 139.791L369.394 135.781C369.394 135.781 366.55 137.458 361.706 135.614C356.862 133.77 354.518 129.27 353.372 129.603C352.226 129.937 352.331 132.937 352.331 132.937C352.331 132.937 350.164 131.77 349.331 132.77C348.497 133.77 350.664 134.947 349.664 138.625C348.664 142.302 347.476 143.427 347.476 143.427C347.476 143.427 348.31 145.094 347.643 145.094L346.643 145.104Z" fill="white" stroke="#2E353A" stroke-linecap="round" stroke-linejoin="round"/>
<path d="M356.31 142.663C356.467 143.371 356.258 144.007 355.862 144.09C355.467 144.173 355.008 143.684 354.821 142.975C354.633 142.267 354.873 141.631 355.279 141.548C355.685 141.465 356.164 141.965 356.31 142.663Z" fill="#2E353A"/>
<path d="M364.323 141.74C364.323 142.459 364.031 143.063 363.614 143.073C363.198 143.084 362.854 142.511 362.833 141.792C362.812 141.073 363.114 140.479 363.531 140.469C363.948 140.458 364.291 141.021 364.323 141.74Z" fill="#2E353A"/>
<path d="M352.092 140.399C352.382 139.702 352.849 139.094 353.446 138.634C354.044 138.173 354.751 137.877 355.498 137.773" stroke="#2E353A" stroke-linecap="round" stroke-linejoin="round"/>
<path d="M362.113 137.298C362.862 137.117 363.647 137.159 364.372 137.418C365.098 137.677 365.732 138.142 366.197 138.756" stroke="#2E353A" stroke-linecap="round" stroke-linejoin="round"/>
<path d="M363.466 152.175C363.466 152.175 357.737 154.31 354.914 150.32" stroke="#2E353A" stroke-linecap="round" stroke-linejoin="round"/>
<path d="M356.748 152.078C356.748 152.078 356.946 155.964 358.988 156.745C361.029 157.526 361.998 152.578 361.998 152.578C360.233 152.839 358.432 152.667 356.748 152.078Z" fill="#2E353A" stroke="#2E353A" stroke-linecap="round" stroke-linejoin="round"/>
<path d="M357.217 154.441C357.331 154.93 357.549 155.389 357.857 155.786C358.164 156.183 358.553 156.509 358.998 156.743C360.04 157.149 360.842 155.972 361.342 154.764C360.027 154.26 358.594 154.148 357.217 154.441Z" fill="white" stroke="#2E353A" stroke-linecap="round" stroke-linejoin="round"/>
<path d="M361.821 138.648C361.209 140.739 361.173 142.956 361.717 145.065C362.696 148.086 364.154 148.19 363.571 148.565C362.988 148.94 360.446 149.44 359.873 148.961" fill="white"/>
<path d="M361.821 138.648C361.209 140.739 361.173 142.956 361.717 145.065C362.696 148.086 364.154 148.19 363.571 148.565C362.988 148.94 360.446 149.44 359.873 148.961" stroke="#2E353A" stroke-linecap="round" stroke-linejoin="round"/>
<path d="M385.551 247.078C385.551 247.078 374.811 272.746 374.457 278.413C374.103 284.08 390.291 332.498 390.666 334.581C391.041 336.665 388.03 336.279 388.03 338.352C388.069 339.789 388.387 341.204 388.968 342.519C389.155 343.082 404.072 347.613 406.531 347.8C408.989 347.988 410.114 347.425 410.114 345.717C410.114 344.009 408.989 338.727 408.989 338.165C408.989 337.602 412.01 333.998 410.875 328.914C409.739 323.831 399.176 291.632 397.854 288.226C396.531 284.819 395.02 281.246 395.02 281.246C395.601 280.396 395.988 279.429 396.156 278.413C396.27 277.534 396.27 276.645 396.156 275.767C396.156 275.767 412.521 249.547 412.542 241.391" fill="#67BC2A"/>
<path d="M385.551 247.078C385.551 247.078 374.811 272.746 374.457 278.413C374.103 284.08 390.291 332.498 390.666 334.581C391.041 336.665 388.03 336.279 388.03 338.352C388.069 339.789 388.387 341.204 388.968 342.519C389.155 343.082 404.072 347.613 406.531 347.8C408.989 347.988 410.114 347.425 410.114 345.717C410.114 344.009 408.989 338.727 408.989 338.165C408.989 337.602 412.01 333.998 410.875 328.914C409.739 323.831 399.176 291.632 397.854 288.226C396.531 284.819 395.02 281.246 395.02 281.246C395.601 280.396 395.988 279.429 396.156 278.413C396.27 277.534 396.27 276.645 396.156 275.767C396.156 275.767 412.521 249.547 412.542 241.391" stroke="#2E353A" stroke-linecap="round" stroke-linejoin="round"/>
<path d="M397.01 301.367C401.281 314.763 406.323 330.712 406.677 333.087C407.302 337.254 406.052 338.108 406.468 340.191C406.885 342.275 407.718 345.202 407.718 345.202" stroke="#2E353A" stroke-width="0.75" stroke-linecap="round" stroke-linejoin="round"/>
<path d="M406.459 244.477C403.209 252.404 397.229 267.029 396.042 270.04C394.365 274.207 391.438 277.561 392.073 277.978C392.708 278.394 394.365 278.394 393.115 279.853C391.865 281.311 391.031 281.738 391.031 282.363C391.031 282.582 392.948 288.561 395.427 296.343" stroke="#2E353A" stroke-width="0.75" stroke-linecap="round" stroke-linejoin="round"/>
<path d="M408.553 239.32L407.512 241.935" stroke="#2E353A" stroke-width="0.75" stroke-linecap="round" stroke-linejoin="round"/>
<path d="M380.479 243.612C380.479 243.612 381.083 236.914 381.697 236.102" stroke="#2E353A" stroke-width="0.75" stroke-linecap="round" stroke-linejoin="round"/>
<path d="M385.353 236.141C385.353 236.141 382.665 244.755 383.196 244.203" stroke="#2E353A" stroke-width="0.75" stroke-linecap="round" stroke-linejoin="round"/>
<path d="M387.384 236.703L386.165 243.203C386.165 243.203 385.957 243.818 387.79 244.016" stroke="#2E353A" stroke-width="0.75" stroke-linecap="round" stroke-linejoin="round"/>
<path d="M363.956 240.87L362.811 239.547" stroke="#2E353A" stroke-width="0.75" stroke-linecap="round" stroke-linejoin="round"/>
<path d="M359.56 242.336L358.539 241.586" stroke="#2E353A" stroke-width="0.75" stroke-linecap="round" stroke-linejoin="round"/>
<path d="M357.363 243.432L355.904 241.172" stroke="#2E353A" stroke-width="0.75" stroke-linecap="round" stroke-linejoin="round"/>
<path d="M294.246 217.053C300.779 209.972 306.505 202.188 311.32 193.844" stroke="#2E353A" stroke-linecap="round" stroke-linejoin="round"/>
<path d="M209.867 258.228C239.892 255.795 268.113 242.912 289.62 221.82" stroke="#2E353A" stroke-linecap="round" stroke-linejoin="round"/>
<path d="M180.117 257.266C184.295 257.893 188.502 258.311 192.722 258.516" stroke="#2E353A" stroke-linecap="round" stroke-linejoin="round"/>
<path d="M140.709 242.398C143.383 243.787 146.095 245.083 148.845 246.284" stroke="#2E353A" stroke-linecap="round" stroke-linejoin="round"/>
<path d="M71.8633 139.391C73.7006 159.646 80.2813 179.184 91.0728 196.424C101.864 213.663 116.563 228.12 133.98 238.623" stroke="#2E353A" stroke-linecap="round" stroke-linejoin="round"/>
<path d="M272.037 23.64C253.645 10.9204 232.273 3.17975 210.002 1.1717C187.731 -0.836362 165.319 2.95658 144.949 12.1812" stroke="#2E353A" stroke-linecap="round" stroke-linejoin="round"/>
<path d="M317.622 77.3362C316.337 74.4195 314.948 71.5652 313.455 68.7734" stroke="#2E353A" stroke-linecap="round" stroke-linejoin="round"/>
<path d="M267.766 219.271C274.736 214.095 281.105 208.155 286.756 201.562" stroke="#2E353A" stroke-linecap="round" stroke-linejoin="round"/>
<path d="M186.096 241.758C213.125 244.591 240.292 237.856 262.869 222.727" stroke="#2E353A" stroke-linecap="round" stroke-linejoin="round"/>
<path d="M159.865 235.961C163.435 237.19 167.091 238.256 170.834 239.159" stroke="#2E353A" stroke-linecap="round" stroke-linejoin="round"/>
<path d="M86.3633 159.258C87.148 161.862 88.0196 164.432 88.9779 166.966" stroke="#2E353A" stroke-linecap="round" stroke-linejoin="round"/>
<path d="M109.501 49.9141C97.5796 63.862 89.1099 80.4209 84.7774 98.2505C80.4449 116.08 80.3713 134.679 84.5627 152.543" stroke="#2E353A" stroke-linecap="round" stroke-linejoin="round"/>
<path d="M247.255 19.995C228.949 11.5119 208.757 7.9167 188.648 9.55976C168.539 11.2028 149.198 18.0281 132.512 29.3703" stroke="#2E353A" stroke-linecap="round" stroke-linejoin="round"/>
<path d="M306.652 83.1478C297.089 58.8675 279.689 38.4784 257.213 25.2188" stroke="#2E353A" stroke-linecap="round" stroke-linejoin="round"/>
<path d="M311.684 99.2659C311.038 96.4637 310.278 93.7032 309.424 90.9844" stroke="#2E353A" stroke-linecap="round" stroke-linejoin="round"/>
<path d="M306.892 126.99C306.892 125.615 308.122 124.219 308.07 122.823C308.017 121.427 306.684 120.146 306.59 118.791C306.497 117.437 307.632 115.937 307.465 114.625C307.299 113.312 305.882 112.062 305.684 110.708C305.486 109.354 306.497 107.791 306.236 106.447C305.976 105.104 304.476 104.01 304.153 102.676C303.83 101.343 304.736 99.7075 304.392 98.3846C304.049 97.0616 302.444 96.0928 302.038 94.7803C301.632 93.4677 302.403 91.7698 301.955 90.4885C301.507 89.2072 299.871 88.3426 299.34 87.0717C298.809 85.8008 299.476 84.0403 298.934 82.7903C298.392 81.5402 296.663 80.8111 296.069 79.5818C295.475 78.3526 295.975 76.5505 295.34 75.3421C294.705 74.1338 292.934 73.5504 292.215 72.3629C291.496 71.1753 291.902 69.3523 291.173 68.196C290.444 67.0398 288.631 66.5814 287.861 65.4564C287.09 64.3313 287.319 62.4771 286.506 61.3729C285.694 60.2687 283.86 59.9562 283.006 58.8832C282.152 57.8103 282.246 55.9561 281.35 54.9144C280.454 53.8727 278.6 53.6956 277.673 52.6955C276.746 51.6955 276.694 49.8308 275.725 48.8621C274.756 47.8933 272.891 47.8204 271.891 46.9141C270.891 46.0078 270.704 44.1327 269.672 43.2369C268.641 42.341 266.766 42.4348 265.704 41.5806C264.641 40.7264 264.308 38.893 263.214 38.0804C262.12 37.2679 260.266 37.4971 259.13 36.7262C257.995 35.9554 257.547 34.1428 256.38 33.4136C255.214 32.6844 253.401 33.0594 252.214 32.3719C251.026 31.6844 250.443 29.9239 249.234 29.2468C248.026 28.5697 246.224 29.1114 244.995 28.5176C243.765 27.9239 243.047 26.205 241.786 25.6529C240.526 25.1008 238.786 25.7467 237.505 25.2467C236.223 24.7467 235.421 23.0904 234.088 22.632C232.755 22.1737 231.109 22.9549 229.796 22.5487C228.484 22.1424 227.515 20.559 226.192 20.2048C224.869 19.8507 223.244 20.7465 221.9 20.434C220.556 20.1215 219.483 18.6215 218.129 18.3506C216.775 18.0798 215.233 19.1111 213.868 18.9027C212.504 18.6944 211.327 17.2777 209.962 17.1214C208.597 16.9651 207.118 18.1006 205.795 17.9964C204.472 17.8923 203.129 16.5693 201.754 16.5172C200.378 16.4651 199.003 17.7048 197.587 17.7048C196.17 17.7048 194.826 16.4651 193.42 16.5172C192.014 16.5693 190.743 17.9027 189.378 17.9964C188.013 18.0902 186.534 16.9547 185.211 17.1214C183.888 17.2881 182.649 18.7048 181.305 18.9027C179.961 19.1006 178.388 18.0902 177.044 18.3506C175.701 18.611 174.607 20.1111 173.273 20.434C171.94 20.7569 170.305 19.8507 168.982 20.2048C167.659 20.559 166.679 22.1424 165.377 22.5487C164.075 22.9549 162.367 22.1841 161.075 22.632C159.783 23.0799 158.992 24.7154 157.669 25.2467C156.346 25.7779 154.637 25.1113 153.387 25.6529C152.137 26.1946 151.408 27.9239 150.179 28.5176C148.95 29.1114 147.148 28.6114 145.939 29.2468C144.731 29.8822 144.137 31.6531 142.96 32.3719C141.783 33.0907 139.939 32.6948 138.793 33.4136C137.647 34.1324 137.178 35.945 136.053 36.7158C134.928 37.4867 133.074 37.2575 131.97 38.07C130.866 38.8826 130.553 40.716 129.48 41.5806C128.407 42.4452 126.553 42.3306 125.511 43.2265C124.47 44.1223 124.293 45.9765 123.293 46.9037C122.293 47.8308 120.428 47.8829 119.459 48.8516C118.49 49.8204 118.417 51.6851 117.511 52.6851C116.605 53.6851 114.761 53.8518 113.865 54.8935C112.969 55.9352 113.063 57.7894 112.209 58.8624C111.355 59.9353 109.521 60.2479 108.709 61.3521C107.896 62.4563 108.125 64.3001 107.355 65.4251C106.584 66.5502 104.771 67.0085 104.042 68.1752C103.313 69.3419 103.688 71.1545 103 72.342C102.313 73.5296 100.542 74.1129 99.8751 75.3317C99.2084 76.5505 99.7397 78.3318 99.1459 79.561C98.5521 80.7902 96.8333 81.5194 96.2812 82.7694C95.7291 84.0195 96.375 85.7695 95.875 87.0508C95.3749 88.3321 93.7082 89.1342 93.2603 90.4676C92.8123 91.801 93.5728 93.4469 93.1769 94.7594C92.7811 96.072 91.1769 97.0408 90.8227 98.3637C90.4685 99.6867 91.3644 101.322 91.0623 102.656C90.7602 103.989 89.2497 105.072 88.9789 106.426C88.708 107.781 89.7498 109.333 89.5414 110.687C89.3331 112.041 87.9164 113.229 87.7601 114.604C87.6038 115.979 88.7393 117.437 88.6351 118.771C88.531 120.104 87.1976 121.427 87.1559 122.802C87.1142 124.177 88.333 125.563 88.333 126.969C88.333 128.375 87.1038 129.729 87.1559 131.136C87.208 132.542 88.5414 133.813 88.6351 135.177C88.7289 136.542 87.5934 138.021 87.7601 139.344C87.9268 140.667 89.3435 141.907 89.5414 143.251C89.7393 144.594 88.7289 146.178 88.9789 147.522C89.2289 148.865 90.7498 149.949 91.0623 151.282C91.3748 152.616 90.4685 154.261 90.8227 155.574C91.1769 156.887 92.7707 157.876 93.1769 159.178C93.5832 160.48 92.8123 162.189 93.2603 163.48C93.7082 164.772 95.3437 165.616 95.875 166.897C96.4062 168.179 95.7395 169.918 96.2812 171.168C96.8229 172.418 98.5521 173.147 99.1459 174.377C99.7397 175.606 99.2292 177.408 99.8751 178.616C100.521 179.825 102.281 180.419 103 181.606C103.719 182.794 103.313 184.617 104.042 185.773C104.771 186.929 106.584 187.388 107.355 188.513C108.125 189.638 107.896 191.492 108.709 192.596C109.521 193.7 111.355 194.013 112.209 195.086C113.063 196.159 112.969 198.023 113.865 199.055C114.761 200.086 116.615 200.273 117.542 201.284C118.469 202.294 118.522 204.149 119.49 205.117C120.459 206.086 122.324 206.159 123.324 207.055C124.324 207.951 124.511 209.847 125.543 210.732C126.574 211.618 128.439 211.534 129.512 212.388C130.584 213.243 130.907 215.076 132.001 215.889C133.095 216.701 134.949 216.472 136.085 217.243C137.22 218.014 137.668 219.826 138.835 220.555C140.001 221.285 141.814 220.91 143.002 221.597C144.189 222.285 144.772 224.055 145.981 224.722C147.189 225.389 148.981 224.858 150.221 225.451C151.46 226.045 152.169 227.764 153.429 228.316C154.689 228.868 156.429 228.222 157.71 228.722C158.992 229.222 159.794 230.889 161.127 231.337C162.461 231.785 164.106 231.024 165.419 231.42C166.732 231.816 167.7 233.42 169.023 233.775C170.346 234.129 171.971 233.233 173.315 233.535C174.659 233.837 175.732 235.348 177.086 235.618C178.44 235.889 179.982 234.848 181.347 235.056C182.711 235.264 183.888 236.681 185.253 236.837C186.618 236.993 188.097 235.858 189.42 235.962C190.743 236.066 192.087 237.4 193.462 237.452C194.837 237.504 196.212 236.264 197.628 236.264C199.045 236.264 200.399 237.493 201.795 237.452C203.191 237.41 204.472 236.066 205.827 235.962C207.181 235.858 208.681 237.004 209.993 236.837C211.306 236.67 212.556 235.254 213.91 235.056C215.264 234.858 216.827 235.868 218.171 235.618C219.515 235.368 220.608 233.847 221.942 233.535C223.275 233.222 224.911 234.129 226.233 233.775C227.556 233.42 228.536 231.827 229.838 231.42C231.14 231.014 232.848 231.785 234.14 231.337C235.432 230.889 236.276 229.254 237.546 228.722C238.817 228.191 240.578 228.868 241.828 228.316C243.078 227.764 243.807 226.045 245.036 225.451C246.265 224.858 248.068 225.368 249.276 224.722C250.484 224.076 251.078 222.316 252.255 221.597C253.432 220.878 255.266 221.285 256.422 220.555C257.578 219.826 258.037 218.014 259.162 217.243C260.287 216.472 262.141 216.701 263.245 215.889C264.349 215.076 264.662 213.243 265.735 212.388C266.808 211.534 268.662 211.628 269.704 210.732C270.745 209.836 270.923 207.982 271.923 207.055C272.923 206.128 274.787 206.076 275.756 205.107C276.725 204.138 276.798 202.284 277.704 201.273C278.61 200.263 280.485 200.086 281.381 199.055C282.277 198.023 282.183 196.159 283.037 195.086C283.892 194.013 285.725 193.7 286.538 192.596C287.35 191.492 287.121 189.648 287.892 188.513C288.663 187.377 290.475 186.929 291.204 185.773C291.934 184.617 291.559 182.783 292.246 181.606C292.934 180.429 294.694 179.835 295.371 178.627C296.048 177.418 295.507 175.627 296.1 174.387C296.694 173.148 298.413 172.439 298.965 171.179C299.517 169.918 298.871 168.179 299.371 166.897C299.871 165.616 301.528 164.814 301.986 163.491C302.444 162.168 301.663 160.501 302.069 159.189C302.476 157.876 304.069 156.918 304.424 155.584C304.778 154.251 303.882 152.636 304.184 151.293C304.486 149.949 305.997 148.876 306.267 147.532C306.538 146.188 305.507 144.626 305.715 143.261C305.924 141.896 307.34 140.719 307.497 139.355C307.653 137.99 306.517 136.511 306.622 135.188C306.726 133.865 308.049 132.521 308.101 131.146C308.153 129.771 306.892 128.365 306.892 126.99Z" fill="#67BC2A" stroke="#2E353A" stroke-width="2" stroke-linecap="round" stroke-linejoin="round"/>
<path d="M164.908 22.9688L166.835 28.3648" stroke="#2E353A" stroke-width="2" stroke-linecap="round" stroke-linejoin="round"/>
<path d="M157.574 25.8672L159.314 30.1069" stroke="#2E353A" stroke-width="2" stroke-linecap="round" stroke-linejoin="round"/>
<path d="M291.798 72.5391C288.646 75.2417 285.061 77.3935 281.193 78.9039" stroke="#2E353A" stroke-width="2" stroke-linecap="round" stroke-linejoin="round"/>
<path d="M295.653 79.6719C294.217 80.5803 292.736 81.4148 291.215 82.172" stroke="#2E353A" stroke-width="2" stroke-linecap="round" stroke-linejoin="round"/>
<path d="M135.596 217.391C135.596 217.391 140.221 212.182 140.992 208.328" stroke="#2E353A" stroke-width="2" stroke-linecap="round" stroke-linejoin="round"/>
<path d="M122.668 206.748C122.668 206.748 126.533 201.935 127.304 201.164" stroke="#2E353A" stroke-width="2" stroke-linecap="round" stroke-linejoin="round"/>
<path d="M221.796 232.979L220.254 224.5" stroke="#2E353A" stroke-width="2" stroke-linecap="round" stroke-linejoin="round"/>
<path d="M230.275 231.253L229.119 226.43" stroke="#2E353A" stroke-width="2" stroke-linecap="round" stroke-linejoin="round"/>
<path d="M265.568 212.154L259.016 204.82" stroke="#2E353A" stroke-width="2" stroke-linecap="round" stroke-linejoin="round"/>
<path d="M296.424 174.354L286.59 169.156" stroke="#2E353A" stroke-width="2" stroke-linecap="round" stroke-linejoin="round"/>
<path d="M89.1133 127.109L97.4052 127.297" stroke="#2E353A" stroke-width="2" stroke-linecap="round" stroke-linejoin="round"/>
<path d="M100.875 127.5L104.927 127.688" stroke="#2E353A" stroke-width="2" stroke-linecap="round" stroke-linejoin="round"/>
<path d="M99.7188 174.935C100.688 174.55 107.011 172.852 107.011 172.852" stroke="#2E353A" stroke-width="2" stroke-linecap="round" stroke-linejoin="round"/>
<path d="M221.858 20.5938C221.274 21.7605 220.107 28.4794 220.107 28.4794" stroke="#2E353A" stroke-width="2" stroke-linecap="round" stroke-linejoin="round"/>
<path d="M229.441 23.2188L228.566 27.6043" stroke="#2E353A" stroke-width="2" stroke-linecap="round" stroke-linejoin="round"/>
<path d="M259.505 37.5234L257.172 40.4402" stroke="#2E353A" stroke-width="2" stroke-linecap="round" stroke-linejoin="round"/>
<path d="M107.156 65.5469L112.99 68.7553" stroke="#2E353A" stroke-width="2" stroke-linecap="round" stroke-linejoin="round"/>
<path d="M116.5 70.5078L121.167 73.1329" stroke="#2E353A" stroke-width="2" stroke-linecap="round" stroke-linejoin="round"/>
<path d="M228.505 95.1463C228.505 95.1463 226.723 92.3857 217.723 86.7085C208.723 81.0312 185.43 75.6352 176.253 70.6767C167.076 65.5619 156.846 55.9158 153.273 51.2802C149.7 46.6446 150.252 43.1445 147.377 42.8633C144.502 42.582 141.627 43.905 139.627 49.926C137.627 55.947 140.075 71.0309 141.71 75.6664C143.346 80.302 148.148 83.2396 151.2 84.4688C154.252 85.698 161.075 88.9377 161.065 91.8441C161.055 94.7504 160.69 95.3234 159.429 95.5421C158.169 95.7609 130.46 99.8652 126.189 101.105C121.918 102.344 120.074 110.126 121.293 116.262C122.512 122.397 127.345 124.324 125.887 128.679C124.428 133.033 121.918 138.137 124.397 143.919C126.876 149.7 131.533 148.804 129.72 153.294C127.908 157.784 127.887 163.034 130.199 166.409C132.512 169.784 135.564 171.972 135.543 176.066C135.522 180.16 142.668 189.17 147.158 190.452C149.377 191.118 169.524 193.327 189.139 193.525C208.744 194.025 227.817 192.483 227.786 192.483C228.022 160.016 228.262 127.571 228.505 95.1463Z" fill="white" stroke="#2E353A" stroke-width="3" stroke-linecap="round" stroke-linejoin="round"/>
<path d="M267.65 189.433C255.983 191.197 244.274 192.495 232.524 193.329C231.764 193.362 231.006 193.236 230.298 192.957C229.59 192.679 228.949 192.255 228.416 191.713C227.882 191.171 227.469 190.522 227.202 189.81C226.935 189.098 226.821 188.338 226.867 187.579C226.985 158.265 227.103 128.966 227.222 99.6799C227.192 98.91 227.318 98.1422 227.591 97.4218C227.864 96.7015 228.279 96.0434 228.812 95.4867C229.344 94.9299 229.983 94.4858 230.691 94.1808C231.398 93.8757 232.16 93.716 232.93 93.7109C244.68 94.0443 256.389 94.52 268.056 95.1381C269.576 95.2458 271 95.9239 272.041 97.0366C273.082 98.1493 273.664 99.6144 273.671 101.138C273.546 128.354 273.424 155.591 273.306 182.849C273.26 184.429 272.674 185.944 271.644 187.143C270.614 188.341 269.204 189.15 267.65 189.433Z" fill="#2E353A" stroke="#2E353A" stroke-width="3" stroke-linecap="round" stroke-linejoin="round"/>
<path d="M241.568 182.844C241.596 182.272 241.504 181.701 241.298 181.166C241.092 180.632 240.776 180.147 240.37 179.742C239.965 179.338 239.479 179.023 238.944 178.818C238.409 178.613 237.837 178.523 237.265 178.552C236.06 178.682 234.947 179.257 234.143 180.165C233.34 181.072 232.904 182.247 232.921 183.459C232.887 184.034 232.974 184.61 233.178 185.148C233.381 185.687 233.697 186.177 234.103 186.585C234.509 186.993 234.998 187.311 235.535 187.517C236.073 187.724 236.649 187.814 237.224 187.782C238.427 187.634 239.534 187.049 240.335 186.139C241.135 185.229 241.574 184.057 241.568 182.844Z" fill="white" stroke="#2E353A" stroke-width="3" stroke-linecap="round" stroke-linejoin="round"/>
<path d="M228.138 84.4129C239.69 84.4129 249.055 75.0478 249.055 63.4955C249.055 51.9431 239.69 42.5781 228.138 42.5781C216.586 42.5781 207.221 51.9431 207.221 63.4955C207.221 75.0478 216.586 84.4129 228.138 84.4129Z" fill="white"/>
<path d="M263.397 94.4637C266.432 91.4289 266.432 86.5086 263.397 83.4738C260.362 80.439 255.442 80.439 252.407 83.4738C249.372 86.5086 249.372 91.4289 252.407 94.4637C255.442 97.4985 260.362 97.4985 263.397 94.4637Z" fill="white"/>
<path opacity="0.2" d="M189.806 232.653C191.118 232.747 192.368 234.038 193.702 234.09C195.035 234.142 196.369 232.944 197.692 232.944C199.014 232.944 200.369 234.132 201.692 234.09C203.015 234.049 204.275 232.747 205.588 232.653C206.9 232.559 208.338 233.695 209.65 233.497C210.963 233.299 212.13 231.976 213.432 231.778C214.734 231.58 216.255 232.559 217.598 232.319C218.942 232.08 219.953 230.611 221.234 230.319C222.515 230.028 224.109 230.892 225.401 230.549C226.693 230.205 227.62 228.674 228.88 228.278C230.141 227.882 231.786 228.632 233.047 228.194C234.307 227.757 235.13 226.111 236.349 225.673C237.568 225.236 239.276 225.809 240.516 225.278C241.756 224.746 242.422 223.09 243.641 222.507C244.86 221.923 246.568 222.423 247.735 221.809C248.902 221.194 249.475 219.475 250.62 218.819C251.766 218.163 253.537 218.507 254.652 217.777C255.766 217.048 256.214 215.319 257.308 214.579C258.402 213.84 260.183 214.058 261.246 213.267C262.308 212.475 262.621 210.704 263.652 209.881C264.683 209.058 266.486 209.152 267.486 208.287C268.486 207.423 268.663 205.631 269.631 204.735C270.6 203.839 272.402 203.787 273.34 202.85C274.277 201.912 274.319 200.12 275.215 199.152C276.111 198.183 277.913 198.006 278.778 196.995C279.642 195.985 279.548 194.204 280.371 193.162C281.194 192.12 282.965 191.818 283.757 190.756C284.549 189.693 284.319 187.912 285.069 186.818C285.819 185.724 287.559 185.287 288.257 184.162C288.955 183.037 288.611 181.276 289.299 180.13C289.986 178.984 291.674 178.422 292.288 177.255C292.903 176.088 292.424 174.349 292.997 173.161C293.57 171.974 295.236 171.276 295.768 170.036C296.299 168.796 295.674 167.14 296.164 165.869C296.653 164.598 298.247 163.786 298.685 162.567C299.122 161.348 298.372 159.682 298.768 158.4C299.164 157.119 300.695 156.202 301.039 154.921C301.382 153.64 300.507 152.067 300.81 150.754C301.112 149.442 302.56 148.421 302.81 147.119C303.06 145.817 302.07 144.316 302.268 142.952C302.466 141.587 303.841 140.483 303.987 139.171C304.133 137.858 303.039 136.431 303.143 135.097C303.247 133.764 304.528 132.535 304.57 131.201C304.612 129.868 303.424 128.535 303.424 127.212C303.424 125.889 304.622 124.535 304.57 123.212C304.518 121.889 303.237 120.628 303.143 119.316C303.049 118.003 304.133 116.566 303.987 115.253C303.841 113.94 302.455 112.774 302.268 111.472C302.08 110.17 303.049 108.649 302.81 107.305C302.57 105.961 301.101 104.951 300.81 103.669C300.75 103.385 300.733 103.094 300.757 102.805C227.422 165.307 136.169 160.484 94.6152 154.015C94.597 154.284 94.6216 154.555 94.6881 154.817C95.0318 156.098 96.5631 157.036 96.959 158.296C97.3548 159.557 96.6048 161.202 97.0423 162.463C97.4798 163.723 99.1257 164.546 99.5632 165.755C100.001 166.963 99.4278 168.682 99.9591 169.922C100.49 171.161 102.147 171.838 102.73 173.047C103.313 174.255 102.813 175.974 103.428 177.141C104.043 178.307 105.761 178.88 106.418 180.026C107.074 181.172 106.73 182.932 107.459 184.047C108.189 185.162 109.918 185.61 110.657 186.703C111.397 187.797 111.178 189.578 111.97 190.651C112.762 191.724 114.532 192.016 115.355 193.058C116.178 194.099 116.085 195.881 116.949 196.891C117.814 197.902 119.606 198.068 120.501 199.037C121.397 200.006 121.449 201.808 122.387 202.746C123.324 203.683 125.116 203.714 126.085 204.621C127.054 205.527 127.231 207.308 128.241 208.173C129.252 209.037 131.033 208.944 132.075 209.767C133.116 210.59 133.419 212.371 134.481 213.152C135.544 213.933 137.325 213.715 138.419 214.465C139.512 215.215 139.95 216.954 141.075 217.663C142.2 218.371 143.961 218.007 145.106 218.704C146.252 219.402 146.815 221.069 147.982 221.694C149.148 222.319 150.888 221.819 152.075 222.402C153.263 222.986 153.961 224.632 155.201 225.163C156.44 225.694 158.096 225.069 159.367 225.559C160.638 226.048 161.451 227.642 162.67 228.08C163.888 228.517 165.555 227.778 166.836 228.163C168.118 228.549 169.034 230.09 170.316 230.434C171.597 230.778 173.17 229.913 174.482 230.205C175.795 230.496 176.826 231.955 178.128 232.205C179.431 232.455 180.931 231.465 182.243 231.663C183.556 231.861 184.712 233.236 186.024 233.382C187.337 233.528 188.472 232.559 189.806 232.653Z" fill="black"/>
</svg>
