<svg width="427" height="362" viewBox="0 0 427 362" fill="none" xmlns="http://www.w3.org/2000/svg">
<path d="M203.044 325.446C246.52 325.446 281.765 320.409 281.765 314.196C281.765 307.982 246.52 302.945 203.044 302.945C159.567 302.945 124.322 307.982 124.322 314.196C124.322 320.409 159.567 325.446 203.044 325.446Z" fill="#DC3333"/>
<path opacity="0.5" d="M203.044 325.446C246.52 325.446 281.765 320.409 281.765 314.196C281.765 307.982 246.52 302.945 203.044 302.945C159.567 302.945 124.322 307.982 124.322 314.196C124.322 320.409 159.567 325.446 203.044 325.446Z" fill="white"/>
<path d="M376.029 351.884C400.451 351.884 420.249 346.847 420.249 340.633C420.249 334.42 400.451 329.383 376.029 329.383C351.607 329.383 331.809 334.42 331.809 340.633C331.809 346.847 351.607 351.884 376.029 351.884Z" fill="#DC3333"/>
<path opacity="0.5" d="M376.029 351.884C400.451 351.884 420.249 346.847 420.249 340.633C420.249 334.42 400.451 329.383 376.029 329.383C351.607 329.383 331.809 334.42 331.809 340.633C331.809 346.847 351.607 351.884 376.029 351.884Z" fill="white"/>
<path d="M0.66331 81.6298C0.441825 80.829 0.391488 79.9905 0.515573 79.169C0.639657 78.3474 0.935381 77.5612 1.38349 76.8615C1.83161 76.1618 2.42206 75.5644 3.11641 75.108C3.81075 74.6517 4.59343 74.3467 5.41347 74.2129C10.372 73.5358 16.4659 80.1923 18.3931 84.2237C18.5597 84.5675 20.539 90.3176 20.4765 90.3176C20.414 90.3176 11.6845 90.5156 8.10106 88.953C5.00721 87.6092 1.52792 85.057 0.66331 81.6298ZM128.032 66.3481C127.303 69.8065 123.865 72.4525 120.834 73.8692C117.803 75.2859 110.657 75.5359 108.896 75.5671C107.948 76.7026 106.938 77.911 105.854 79.286C103.958 81.7132 101.854 84.4945 99.7604 87.6196C99.1979 88.4634 98.6354 89.3801 98.0624 90.2655C99.3333 88.9738 101.094 87.2238 101.281 87.0675C104.771 84.2862 113.157 80.9632 117.323 83.7237C118.004 84.2015 118.576 84.8174 119.002 85.5312C119.429 86.245 119.7 87.0406 119.798 87.8662C119.896 88.6918 119.82 89.5289 119.573 90.3228C119.326 91.1167 118.914 91.8497 118.365 92.474C116.126 95.2032 111.834 95.9637 108.5 95.8282C105.167 95.6928 98.4999 92.526 97.0415 91.8177C95.8123 93.7969 94.604 95.8595 93.4581 98.0679C91.3546 102.072 89.6116 106.255 88.2496 110.568L88.4996 110.693C89.5413 109.36 91.7289 106.599 91.9372 106.391C95.0623 103.266 103.073 99.0158 107.563 101.308C108.291 101.708 108.927 102.258 109.428 102.921C109.93 103.584 110.286 104.345 110.474 105.155C110.662 105.965 110.677 106.805 110.518 107.621C110.359 108.437 110.03 109.211 109.552 109.891C107.625 112.85 103.448 114.058 100.177 114.308C96.3436 114.579 88.4058 111.579 88.1142 111.464C86.865 115.803 85.9011 120.219 85.2287 124.683C84.7078 127.975 84.3224 131.34 83.9682 134.725C84.6557 133.767 87.5516 130.142 87.7912 129.902C90.9163 126.777 98.927 122.527 103.417 124.819C104.145 125.22 104.781 125.769 105.282 126.432C105.784 127.095 106.14 127.857 106.328 128.666C106.516 129.476 106.531 130.317 106.372 131.133C106.213 131.949 105.884 132.722 105.406 133.402C103.479 136.361 99.302 137.569 96.0311 137.819C92.281 138.08 84.6661 135.246 84.0307 135.007C83.8744 136.538 83.6973 138.069 83.5515 139.611C83.0619 144.632 82.5932 149.674 81.9785 154.632C81.7702 156.351 81.4889 158.039 81.2285 159.726C82.2702 158.32 84.3536 155.809 84.5203 155.612C87.6454 152.486 95.6561 148.236 100.146 150.528C100.874 150.929 101.51 151.479 102.011 152.142C102.513 152.805 102.869 153.566 103.057 154.376C103.245 155.185 103.26 156.026 103.101 156.842C102.942 157.658 102.613 158.431 102.135 159.112C100.208 162.07 96.0311 163.278 92.7081 163.518C89.385 163.758 82.9057 161.508 81.1035 160.851C80.6348 163.664 80.0618 166.435 79.468 169.185C79.1659 170.352 78.9368 171.55 78.5826 172.654C78.2284 173.758 77.9159 174.873 77.5409 175.966C76.7805 178.196 76.0929 180.279 75.3325 182.342C74.9575 183.383 74.5825 184.362 74.197 185.373C75.0825 183.79 76.52 181.3 76.6867 181.092C79.3326 177.498 86.5724 172.112 91.2705 173.706C92.0507 173.991 92.7621 174.438 93.3582 175.017C93.9543 175.596 94.4219 176.293 94.7305 177.065C95.039 177.836 95.1817 178.664 95.1491 179.494C95.1165 180.324 94.9095 181.138 94.5415 181.883C93.0831 185.102 89.135 186.935 85.8849 187.675C82.3015 188.488 74.6033 186.925 73.6553 186.727C72.7178 189.196 71.7907 191.592 70.874 193.821C67.9885 200.863 65.3217 206.634 63.3946 210.634C63.2904 210.863 63.1862 211.061 63.0821 211.28H77.1138L72.2699 305.731C72.1007 309.219 70.5911 312.506 68.0561 314.907C65.5212 317.308 62.1568 318.637 58.6653 318.617C55.2055 318.609 51.8801 317.277 49.3716 314.894C46.863 312.511 45.3615 309.259 45.1752 305.804L40.3417 211.322H55.3943C55.3214 210.665 55.2485 209.978 55.1547 209.238C54.6547 204.874 53.8422 198.634 52.5296 191.206C52.165 189.061 51.7275 186.8 51.2692 184.477C50.29 184.602 42.5189 185.581 39.0084 184.477C35.8103 183.498 32.0185 181.352 30.8102 178.06C30.4975 177.29 30.3507 176.463 30.3791 175.632C30.4076 174.801 30.6108 173.986 30.9754 173.239C31.34 172.492 31.8579 171.83 32.4953 171.297C33.1327 170.764 33.8754 170.37 34.6749 170.143C39.5188 168.904 46.3419 174.81 48.717 178.602C48.8629 178.841 50.3421 181.904 51.0608 183.487C50.7796 182.081 50.4983 180.685 50.1754 179.227C49.7275 177.143 49.1337 174.925 48.6753 172.789C48.3628 171.695 48.0607 170.581 47.7482 169.466C47.4357 168.352 47.0399 167.279 46.7065 166.164C46.1544 164.549 45.4981 162.903 44.8523 161.268C42.7689 161.851 36.5187 163.456 33.3311 162.997C30.1435 162.539 25.9558 160.987 24.2579 157.893C23.8329 157.178 23.5632 156.382 23.4661 155.556C23.369 154.73 23.4468 153.893 23.6944 153.099C23.942 152.305 24.3538 151.573 24.9032 150.948C25.4525 150.324 26.127 149.822 26.8829 149.476C31.4873 147.528 39.1125 152.33 42.0397 155.726C42.1335 155.83 42.6751 156.612 43.3106 157.539C42.6335 155.955 41.9564 154.414 41.2272 152.799C39.1438 148.32 36.8416 143.819 34.5707 139.257C34.1019 138.319 33.6436 137.371 33.1748 136.423C31.3935 136.923 24.6745 138.726 21.3307 138.236C17.9868 137.746 13.9554 136.225 12.2575 133.132C11.831 132.418 11.56 131.622 11.4622 130.797C11.3643 129.971 11.4418 129.135 11.6896 128.341C11.9374 127.548 12.3498 126.815 12.9001 126.192C13.4503 125.569 14.1258 125.069 14.8825 124.725C19.4764 122.767 27.1121 127.579 30.0393 130.975C30.1435 131.1 30.7893 132.017 31.5081 133.059C30.3101 130.579 29.1434 128.1 28.0601 125.61C26.1894 121.334 24.6026 116.939 23.3099 112.454C22.6849 112.641 14.8513 114.912 11.1324 114.371C7.83022 113.891 3.75716 112.36 2.05919 109.266C1.63893 108.556 1.37209 107.766 1.27588 106.946C1.17966 106.127 1.25621 105.296 1.50058 104.508C1.74496 103.72 2.15173 102.992 2.6947 102.371C3.23767 101.75 3.90477 101.249 4.65303 100.901C9.25735 98.9429 16.8826 103.756 19.8098 107.152C20.0181 107.391 22.3307 110.777 23.1224 112.006C23.118 111.954 23.118 111.902 23.1224 111.85C21.9619 107.413 21.2018 102.88 20.8515 98.3075C20.5107 94.2265 20.4133 90.1288 20.5598 86.0362C20.6431 82.2444 20.9557 78.7443 21.2682 75.713C21.4453 74.0463 21.6328 72.5358 21.8307 71.1295L21.7474 71.1816C21.664 71.1816 19.9869 65.4001 19.9244 65.0147C19.1848 60.6083 20.3619 51.6601 24.7995 49.3892C25.5473 49.0264 26.3633 48.8256 27.194 48.7997C28.0247 48.7739 28.8515 48.9237 29.6204 49.2393C30.3893 49.5549 31.0829 50.0293 31.6559 50.6313C32.2289 51.2333 32.6684 51.9495 32.9457 52.733C34.2478 56.0144 32.8311 60.1291 31.0914 62.9834C29.3518 65.8377 23.5287 69.9836 22.0807 70.9732C21.9036 72.442 21.7369 74.015 21.5911 75.7651C21.3515 78.8277 21.1119 82.2861 21.1015 86.0675C21.1015 87.1092 21.1015 88.1509 21.1536 89.1926C21.4973 87.4217 21.9974 85.0258 22.0703 84.755C23.4453 80.5048 28.6018 73.1087 33.6123 73.1087C34.4428 73.1346 35.2584 73.3348 36.0065 73.6963C36.7546 74.0577 37.4183 74.5724 37.9546 75.207C38.4909 75.8415 38.8878 76.5817 39.1196 77.3795C39.3514 78.1774 39.4129 79.015 39.3 79.8381C38.9354 83.3487 35.7791 86.3488 32.9248 88.078C30.0705 89.8072 22.7578 90.8385 21.1848 91.026C21.2473 93.3594 21.3828 95.7449 21.6536 98.2346C22.1075 102.753 22.9616 107.222 24.2058 111.589H24.487C24.6016 109.912 24.9245 106.381 24.9766 106.099C25.8829 101.724 30.1851 93.8073 35.1749 93.2657C36.0033 93.1996 36.8363 93.3086 37.6199 93.5854C38.4035 93.8622 39.1201 94.3007 39.7233 94.8724C40.3264 95.4441 40.8026 96.1362 41.1209 96.9039C41.4392 97.6716 41.5926 98.4976 41.5709 99.3284C41.5709 102.86 38.7792 106.183 36.1333 108.214C33.0394 110.475 24.7683 112.36 24.4454 112.423C25.7969 116.73 27.4289 120.944 29.3309 125.038C30.6956 128.069 32.2581 131.111 33.8207 134.111C33.8207 132.923 34.279 128.309 34.3519 127.975C35.2582 123.6 39.5605 115.683 44.5398 115.141C45.3677 115.074 46.2005 115.181 46.9841 115.457C47.7677 115.733 48.4844 116.17 49.0878 116.741C49.6911 117.312 50.1675 118.003 50.4859 118.771C50.8043 119.538 50.9576 120.363 50.9358 121.194C50.9358 124.725 48.1545 128.048 45.5086 130.079C42.5293 132.371 34.6124 134.246 33.9457 134.361C34.6645 135.725 35.3624 137.1 36.0916 138.465C38.4562 142.924 40.8417 147.382 43.0606 151.861C43.8314 153.414 44.5398 154.986 45.2481 156.528C45.3731 154.757 45.6752 151.549 45.7273 151.268C46.6336 146.903 50.9358 138.976 55.9152 138.434C56.7436 138.368 57.5766 138.477 58.3602 138.754C59.1438 139.03 59.8604 139.469 60.4636 140.041C61.0667 140.612 61.5429 141.304 61.8612 142.072C62.1795 142.84 62.3328 143.666 62.3112 144.497C62.3112 148.028 59.5299 151.351 56.8839 153.382C54.238 155.414 47.6024 157.112 45.7273 157.549C46.894 160.143 47.9878 162.758 48.9462 165.362C49.3316 166.497 49.8004 167.633 50.1129 168.747L51.1546 172.05C51.7588 174.331 52.3317 176.446 52.8317 178.591C53.1026 179.633 53.3213 180.675 53.5609 181.717C53.4255 179.914 53.2588 177.039 53.2692 176.779C53.4984 172.32 56.561 163.831 61.3945 162.549C62.2069 162.347 63.0529 162.319 63.8767 162.469C64.7004 162.618 65.483 162.941 66.1725 163.416C66.8621 163.89 67.4428 164.506 67.8762 165.223C68.3096 165.939 68.5858 166.739 68.6864 167.57C68.756 168.001 68.7839 168.437 68.7698 168.872C70.7464 172.275 71.822 176.126 71.8949 180.06C71.8949 180.342 71.4261 183.717 71.1553 185.425C71.6969 184.102 72.197 182.779 72.7595 181.394C73.5408 179.394 74.3116 177.227 75.0616 175.143C75.4054 174.102 75.7596 172.956 76.1033 171.852C76.4471 170.747 76.718 169.633 77.0305 168.518C77.468 166.862 77.8326 165.133 78.1972 163.403C76.1138 162.737 70.0406 160.643 67.6343 158.497C65.228 156.351 62.5925 152.747 62.8737 149.226C62.9149 148.396 63.1301 147.584 63.5053 146.843C63.8806 146.101 64.4075 145.447 65.0518 144.923C65.6962 144.398 66.4436 144.015 67.2456 143.798C68.0477 143.581 68.8864 143.535 69.7073 143.663C74.6241 144.569 78.3326 152.788 78.9159 157.205C78.9159 157.341 78.9159 158.247 78.9159 159.424C79.2285 157.726 79.541 156.039 79.791 154.309C80.5097 149.413 81.0827 144.392 81.6869 139.382C81.8015 138.34 81.9473 137.298 82.0723 136.257C80.3222 135.694 73.7387 133.486 71.1969 131.236C68.6552 128.986 66.1551 125.485 66.4468 121.975C66.4851 121.145 66.698 120.332 67.0714 119.589C67.4449 118.847 67.9706 118.191 68.6144 117.665C69.2581 117.14 70.0054 116.755 70.8075 116.538C71.6097 116.32 72.4487 116.274 73.2699 116.402C78.1972 117.308 81.9056 125.538 82.4786 129.944C82.4786 130.1 82.4786 131.236 82.5411 132.507C82.9057 129.777 83.3119 127.069 83.7807 124.392C84.5784 119.81 85.6781 115.286 87.0725 110.85C86.4579 110.652 78.6659 108.224 75.8638 105.724C73.3741 103.495 70.8219 99.9742 71.1032 96.4533C71.1444 95.6234 71.3595 94.8115 71.7348 94.0702C72.11 93.3289 72.6369 92.6747 73.2813 92.1502C73.9256 91.6257 74.6731 91.2425 75.4751 91.0255C76.2771 90.8085 77.1158 90.7625 77.9367 90.8906C82.8536 91.7969 86.562 100.016 87.1454 104.433C87.1454 104.745 87.2495 108.839 87.2183 110.308V110.152C88.7023 105.83 90.5637 101.647 92.781 97.6512C94.7538 94.0549 96.9346 90.5766 99.3125 87.2342C101.479 84.1091 103.656 81.4007 105.563 79.0152C106.604 77.7235 107.646 76.5672 108.563 75.4942H108.448C108.365 75.4942 110.188 69.6919 110.344 69.3378C112.157 65.2647 118.063 58.4416 123.042 58.9832C123.879 59.0863 124.683 59.3671 125.402 59.8068C126.121 60.2465 126.737 60.8348 127.21 61.5324C127.683 62.23 128 63.0207 128.142 63.8513C128.284 64.6819 128.247 65.5332 128.032 66.3481ZM70.6657 186.373C69.8219 185.956 63.2592 182.706 60.6966 179.935C58.4858 181.157 56.2039 182.246 53.863 183.196C54.4464 185.769 54.9881 188.29 55.4464 190.654C56.936 198.123 57.884 204.394 58.4882 208.801C58.6236 209.738 58.7278 210.582 58.8319 211.343H59.1653L60.207 209.207C62.1966 205.29 64.9571 199.644 67.9677 192.727C68.8844 190.696 69.7802 188.561 70.6657 186.373ZM96.8749 90.8802C96.9582 90.9322 98.4687 85.0466 98.5312 84.63C99.1458 80.2027 97.7291 71.2962 93.2289 69.119C92.4653 68.78 91.6386 68.6066 90.8032 68.6101C89.9678 68.6137 89.1426 68.7941 88.3819 69.1395C87.6212 69.4849 86.9423 69.9875 86.3898 70.6142C85.8374 71.2408 85.4239 71.9774 85.1766 72.7754C83.9682 76.088 85.4995 80.161 87.26 82.9632C89.4371 86.2029 96.8749 90.8802 96.8749 90.8802Z" fill="#DC3333"/>
<path opacity="0.3" d="M0.66331 81.6298C0.441825 80.829 0.391488 79.9905 0.515573 79.169C0.639657 78.3474 0.935381 77.5612 1.38349 76.8615C1.83161 76.1618 2.42206 75.5644 3.11641 75.108C3.81075 74.6517 4.59343 74.3467 5.41347 74.2129C10.372 73.5358 16.4659 80.1923 18.3931 84.2237C18.5597 84.5675 20.539 90.3176 20.4765 90.3176C20.414 90.3176 11.6845 90.5156 8.10106 88.953C5.00721 87.6092 1.52792 85.057 0.66331 81.6298ZM128.032 66.3481C127.303 69.8065 123.865 72.4525 120.834 73.8692C117.803 75.2859 110.657 75.5359 108.896 75.5671C107.948 76.7026 106.938 77.911 105.854 79.286C103.958 81.7132 101.854 84.4945 99.7604 87.6196C99.1979 88.4634 98.6354 89.3801 98.0624 90.2655C99.3333 88.9738 101.094 87.2238 101.281 87.0675C104.771 84.2862 113.157 80.9632 117.323 83.7237C118.004 84.2015 118.576 84.8174 119.002 85.5312C119.429 86.245 119.7 87.0406 119.798 87.8662C119.896 88.6918 119.82 89.5289 119.573 90.3228C119.326 91.1167 118.914 91.8497 118.365 92.474C116.126 95.2032 111.834 95.9637 108.5 95.8282C105.167 95.6928 98.4999 92.526 97.0415 91.8177C95.8123 93.7969 94.604 95.8595 93.4581 98.0679C91.3546 102.072 89.6116 106.255 88.2496 110.568L88.4996 110.693C89.5413 109.36 91.7289 106.599 91.9372 106.391C95.0623 103.266 103.073 99.0158 107.563 101.308C108.291 101.708 108.927 102.258 109.428 102.921C109.93 103.584 110.286 104.345 110.474 105.155C110.662 105.965 110.677 106.805 110.518 107.621C110.359 108.437 110.03 109.211 109.552 109.891C107.625 112.85 103.448 114.058 100.177 114.308C96.3436 114.579 88.4058 111.579 88.1142 111.464C86.865 115.803 85.9011 120.219 85.2287 124.683C84.7078 127.975 84.3224 131.34 83.9682 134.725C84.6557 133.767 87.5516 130.142 87.7912 129.902C90.9163 126.777 98.927 122.527 103.417 124.819C104.145 125.22 104.781 125.769 105.282 126.432C105.784 127.095 106.14 127.857 106.328 128.666C106.516 129.476 106.531 130.317 106.372 131.133C106.213 131.949 105.884 132.722 105.406 133.402C103.479 136.361 99.302 137.569 96.0311 137.819C92.281 138.08 84.6661 135.246 84.0307 135.007C83.8744 136.538 83.6973 138.069 83.5515 139.611C83.0619 144.632 82.5932 149.674 81.9785 154.632C81.7702 156.351 81.4889 158.039 81.2285 159.726C82.2702 158.32 84.3536 155.809 84.5203 155.612C87.6454 152.486 95.6561 148.236 100.146 150.528C100.874 150.929 101.51 151.479 102.011 152.142C102.513 152.805 102.869 153.566 103.057 154.376C103.245 155.185 103.26 156.026 103.101 156.842C102.942 157.658 102.613 158.431 102.135 159.112C100.208 162.07 96.0311 163.278 92.7081 163.518C89.385 163.758 82.9057 161.508 81.1035 160.851C80.6348 163.664 80.0618 166.435 79.468 169.185C79.1659 170.352 78.9368 171.55 78.5826 172.654C78.2284 173.758 77.9159 174.873 77.5409 175.966C76.7805 178.196 76.0929 180.279 75.3325 182.342C74.9575 183.383 74.5825 184.362 74.197 185.373C75.0825 183.79 76.52 181.3 76.6867 181.092C79.3326 177.498 86.5724 172.112 91.2705 173.706C92.0507 173.991 92.7621 174.438 93.3582 175.017C93.9543 175.596 94.4219 176.293 94.7305 177.065C95.039 177.836 95.1817 178.664 95.1491 179.494C95.1165 180.324 94.9095 181.138 94.5415 181.883C93.0831 185.102 89.135 186.935 85.8849 187.675C82.3015 188.488 74.6033 186.925 73.6553 186.727C72.7178 189.196 71.7907 191.592 70.874 193.821C67.9885 200.863 65.3217 206.634 63.3946 210.634C63.2904 210.863 63.1862 211.061 63.0821 211.28H77.1138L72.2699 305.731C72.1007 309.219 70.5911 312.506 68.0561 314.907C65.5212 317.308 62.1568 318.637 58.6653 318.617C55.2055 318.609 51.8801 317.277 49.3716 314.894C46.863 312.511 45.3615 309.259 45.1752 305.804L40.3417 211.322H55.3943C55.3214 210.665 55.2485 209.978 55.1547 209.238C54.6547 204.874 53.8422 198.634 52.5296 191.206C52.165 189.061 51.7275 186.8 51.2692 184.477C50.29 184.602 42.5189 185.581 39.0084 184.477C35.8103 183.498 32.0185 181.352 30.8102 178.06C30.4975 177.29 30.3507 176.463 30.3791 175.632C30.4076 174.801 30.6108 173.986 30.9754 173.239C31.34 172.492 31.8579 171.83 32.4953 171.297C33.1327 170.764 33.8754 170.37 34.6749 170.143C39.5188 168.904 46.3419 174.81 48.717 178.602C48.8629 178.841 50.3421 181.904 51.0608 183.487C50.7796 182.081 50.4983 180.685 50.1754 179.227C49.7275 177.143 49.1337 174.925 48.6753 172.789C48.3628 171.695 48.0607 170.581 47.7482 169.466C47.4357 168.352 47.0399 167.279 46.7065 166.164C46.1544 164.549 45.4981 162.903 44.8523 161.268C42.7689 161.851 36.5187 163.456 33.3311 162.997C30.1435 162.539 25.9558 160.987 24.2579 157.893C23.8329 157.178 23.5632 156.382 23.4661 155.556C23.369 154.73 23.4468 153.893 23.6944 153.099C23.942 152.305 24.3538 151.573 24.9032 150.948C25.4525 150.324 26.127 149.822 26.8829 149.476C31.4873 147.528 39.1125 152.33 42.0397 155.726C42.1335 155.83 42.6751 156.612 43.3106 157.539C42.6335 155.955 41.9564 154.414 41.2272 152.799C39.1438 148.32 36.8416 143.819 34.5707 139.257C34.1019 138.319 33.6436 137.371 33.1748 136.423C31.3935 136.923 24.6745 138.726 21.3307 138.236C17.9868 137.746 13.9554 136.225 12.2575 133.132C11.831 132.418 11.56 131.622 11.4622 130.797C11.3643 129.971 11.4418 129.135 11.6896 128.341C11.9374 127.548 12.3498 126.815 12.9001 126.192C13.4503 125.569 14.1258 125.069 14.8825 124.725C19.4764 122.767 27.1121 127.579 30.0393 130.975C30.1435 131.1 30.7893 132.017 31.5081 133.059C30.3101 130.579 29.1434 128.1 28.0601 125.61C26.1894 121.334 24.6026 116.939 23.3099 112.454C22.6849 112.641 14.8513 114.912 11.1324 114.371C7.83022 113.891 3.75716 112.36 2.05919 109.266C1.63893 108.556 1.37209 107.766 1.27588 106.946C1.17966 106.127 1.25621 105.296 1.50058 104.508C1.74496 103.72 2.15173 102.992 2.6947 102.371C3.23767 101.75 3.90477 101.249 4.65303 100.901C9.25735 98.9429 16.8826 103.756 19.8098 107.152C20.0181 107.391 22.3307 110.777 23.1224 112.006C23.118 111.954 23.118 111.902 23.1224 111.85C21.9619 107.413 21.2018 102.88 20.8515 98.3075C20.5107 94.2265 20.4133 90.1288 20.5598 86.0362C20.6431 82.2444 20.9557 78.7443 21.2682 75.713C21.4453 74.0463 21.6328 72.5358 21.8307 71.1295L21.7474 71.1816C21.664 71.1816 19.9869 65.4001 19.9244 65.0147C19.1848 60.6083 20.3619 51.6601 24.7995 49.3892C25.5473 49.0264 26.3633 48.8256 27.194 48.7997C28.0247 48.7739 28.8515 48.9237 29.6204 49.2393C30.3893 49.5549 31.0829 50.0293 31.6559 50.6313C32.2289 51.2333 32.6684 51.9495 32.9457 52.733C34.2478 56.0144 32.8311 60.1291 31.0914 62.9834C29.3518 65.8377 23.5287 69.9836 22.0807 70.9732C21.9036 72.442 21.7369 74.015 21.5911 75.7651C21.3515 78.8277 21.1119 82.2861 21.1015 86.0675C21.1015 87.1092 21.1015 88.1509 21.1536 89.1926C21.4973 87.4217 21.9974 85.0258 22.0703 84.755C23.4453 80.5048 28.6018 73.1087 33.6123 73.1087C34.4428 73.1346 35.2584 73.3348 36.0065 73.6963C36.7546 74.0577 37.4183 74.5724 37.9546 75.207C38.4909 75.8415 38.8878 76.5817 39.1196 77.3795C39.3514 78.1774 39.4129 79.015 39.3 79.8381C38.9354 83.3487 35.7791 86.3488 32.9248 88.078C30.0705 89.8072 22.7578 90.8385 21.1848 91.026C21.2473 93.3594 21.3828 95.7449 21.6536 98.2346C22.1075 102.753 22.9616 107.222 24.2058 111.589H24.487C24.6016 109.912 24.9245 106.381 24.9766 106.099C25.8829 101.724 30.1851 93.8073 35.1749 93.2657C36.0033 93.1996 36.8363 93.3086 37.6199 93.5854C38.4035 93.8622 39.1201 94.3007 39.7233 94.8724C40.3264 95.4441 40.8026 96.1362 41.1209 96.9039C41.4392 97.6716 41.5926 98.4976 41.5709 99.3284C41.5709 102.86 38.7792 106.183 36.1333 108.214C33.0394 110.475 24.7683 112.36 24.4454 112.423C25.7969 116.73 27.4289 120.944 29.3309 125.038C30.6956 128.069 32.2581 131.111 33.8207 134.111C33.8207 132.923 34.279 128.309 34.3519 127.975C35.2582 123.6 39.5605 115.683 44.5398 115.141C45.3677 115.074 46.2005 115.181 46.9841 115.457C47.7677 115.733 48.4844 116.17 49.0878 116.741C49.6911 117.312 50.1675 118.003 50.4859 118.771C50.8043 119.538 50.9576 120.363 50.9358 121.194C50.9358 124.725 48.1545 128.048 45.5086 130.079C42.5293 132.371 34.6124 134.246 33.9457 134.361C34.6645 135.725 35.3624 137.1 36.0916 138.465C38.4562 142.924 40.8417 147.382 43.0606 151.861C43.8314 153.414 44.5398 154.986 45.2481 156.528C45.3731 154.757 45.6752 151.549 45.7273 151.268C46.6336 146.903 50.9358 138.976 55.9152 138.434C56.7436 138.368 57.5766 138.477 58.3602 138.754C59.1438 139.03 59.8604 139.469 60.4636 140.041C61.0667 140.612 61.5429 141.304 61.8612 142.072C62.1795 142.84 62.3328 143.666 62.3112 144.497C62.3112 148.028 59.5299 151.351 56.8839 153.382C54.238 155.414 47.6024 157.112 45.7273 157.549C46.894 160.143 47.9878 162.758 48.9462 165.362C49.3316 166.497 49.8004 167.633 50.1129 168.747L51.1546 172.05C51.7588 174.331 52.3317 176.446 52.8317 178.591C53.1026 179.633 53.3213 180.675 53.5609 181.717C53.4255 179.914 53.2588 177.039 53.2692 176.779C53.4984 172.32 56.561 163.831 61.3945 162.549C62.2069 162.347 63.0529 162.319 63.8767 162.469C64.7004 162.618 65.483 162.941 66.1725 163.416C66.8621 163.89 67.4428 164.506 67.8762 165.223C68.3096 165.939 68.5858 166.739 68.6864 167.57C68.756 168.001 68.7839 168.437 68.7698 168.872C70.7464 172.275 71.822 176.126 71.8949 180.06C71.8949 180.342 71.4261 183.717 71.1553 185.425C71.6969 184.102 72.197 182.779 72.7595 181.394C73.5408 179.394 74.3116 177.227 75.0616 175.143C75.4054 174.102 75.7596 172.956 76.1033 171.852C76.4471 170.747 76.718 169.633 77.0305 168.518C77.468 166.862 77.8326 165.133 78.1972 163.403C76.1138 162.737 70.0406 160.643 67.6343 158.497C65.228 156.351 62.5925 152.747 62.8737 149.226C62.9149 148.396 63.1301 147.584 63.5053 146.843C63.8806 146.101 64.4075 145.447 65.0518 144.923C65.6962 144.398 66.4436 144.015 67.2456 143.798C68.0477 143.581 68.8864 143.535 69.7073 143.663C74.6241 144.569 78.3326 152.788 78.9159 157.205C78.9159 157.341 78.9159 158.247 78.9159 159.424C79.2285 157.726 79.541 156.039 79.791 154.309C80.5097 149.413 81.0827 144.392 81.6869 139.382C81.8015 138.34 81.9473 137.298 82.0723 136.257C80.3222 135.694 73.7387 133.486 71.1969 131.236C68.6552 128.986 66.1551 125.485 66.4468 121.975C66.4851 121.145 66.698 120.332 67.0714 119.589C67.4449 118.847 67.9706 118.191 68.6144 117.665C69.2581 117.14 70.0054 116.755 70.8075 116.538C71.6097 116.32 72.4487 116.274 73.2699 116.402C78.1972 117.308 81.9056 125.538 82.4786 129.944C82.4786 130.1 82.4786 131.236 82.5411 132.507C82.9057 129.777 83.3119 127.069 83.7807 124.392C84.5784 119.81 85.6781 115.286 87.0725 110.85C86.4579 110.652 78.6659 108.224 75.8638 105.724C73.3741 103.495 70.8219 99.9742 71.1032 96.4533C71.1444 95.6234 71.3595 94.8115 71.7348 94.0702C72.11 93.3289 72.6369 92.6747 73.2813 92.1502C73.9256 91.6257 74.6731 91.2425 75.4751 91.0255C76.2771 90.8085 77.1158 90.7625 77.9367 90.8906C82.8536 91.7969 86.562 100.016 87.1454 104.433C87.1454 104.745 87.2495 108.839 87.2183 110.308V110.152C88.7023 105.83 90.5637 101.647 92.781 97.6512C94.7538 94.0549 96.9346 90.5766 99.3125 87.2342C101.479 84.1091 103.656 81.4007 105.563 79.0152C106.604 77.7235 107.646 76.5672 108.563 75.4942H108.448C108.365 75.4942 110.188 69.6919 110.344 69.3378C112.157 65.2647 118.063 58.4416 123.042 58.9832C123.879 59.0863 124.683 59.3671 125.402 59.8068C126.121 60.2465 126.737 60.8348 127.21 61.5324C127.683 62.23 128 63.0207 128.142 63.8513C128.284 64.6819 128.247 65.5332 128.032 66.3481ZM70.6657 186.373C69.8219 185.956 63.2592 182.706 60.6966 179.935C58.4858 181.157 56.2039 182.246 53.863 183.196C54.4464 185.769 54.9881 188.29 55.4464 190.654C56.936 198.123 57.884 204.394 58.4882 208.801C58.6236 209.738 58.7278 210.582 58.8319 211.343H59.1653L60.207 209.207C62.1966 205.29 64.9571 199.644 67.9677 192.727C68.8844 190.696 69.7802 188.561 70.6657 186.373ZM96.8749 90.8802C96.9582 90.9322 98.4687 85.0466 98.5312 84.63C99.1458 80.2027 97.7291 71.2962 93.2289 69.119C92.4653 68.78 91.6386 68.6066 90.8032 68.6101C89.9678 68.6137 89.1426 68.7941 88.3819 69.1395C87.6212 69.4849 86.9423 69.9875 86.3898 70.6142C85.8374 71.2408 85.4239 71.9774 85.1766 72.7754C83.9682 76.088 85.4995 80.161 87.26 82.9632C89.4371 86.2029 96.8749 90.8802 96.8749 90.8802Z" fill="white"/>
<path d="M363.081 323.055C359.308 325.808 355.331 328.27 351.185 330.419C346.278 332.68 345.33 332.68 345.518 334.003C345.705 335.326 351.372 337.399 361.758 334.951C372.144 332.503 377.05 333.055 378.561 328.149C380.071 323.242 377.623 324.565 374.602 324.565C370.738 324.264 366.892 323.76 363.081 323.055Z" fill="#2E353A" stroke="#2E353A" stroke-linecap="round" stroke-linejoin="round"/>
<path d="M377.999 329.453C373.571 330.62 365.592 332.578 358.925 333.62C354.548 334.413 350.048 334.213 345.758 333.037C345.642 333.164 345.559 333.318 345.517 333.486C345.476 333.653 345.476 333.828 345.518 333.995C345.706 335.318 351.373 337.391 361.759 334.943C371.113 332.745 376.009 332.964 377.999 329.453Z" fill="white" stroke="#2E353A" stroke-linecap="round" stroke-linejoin="round"/>
<path d="M414.042 232.896C414.042 232.896 414.428 239.511 409.875 248.574C405.323 257.637 391.969 258.387 388.385 258.387C384.802 258.387 385.927 254.616 385.927 254.616L386.489 251.209L380.447 249.699C380.447 249.699 364.405 271.043 364.405 272.741C364.405 274.439 380.989 313.42 381.937 317.951C382.885 322.483 383.447 323.618 381.364 325.316C379.821 326.405 378.047 327.124 376.181 327.419C374.316 327.713 372.407 327.575 370.603 327.014C367.799 326.137 365.082 325 362.488 323.618C362.383 321.922 362.383 320.221 362.488 318.524C362.676 316.826 365.509 318.149 364.186 315.316C362.863 312.482 362.103 311.722 361.353 309.836C360.603 307.951 342.738 278.179 343.498 271.189C344.259 264.199 361.009 239.938 361.009 239.376C361.715 237.607 362.533 235.884 363.457 234.219C363.457 234.219 364.207 231.761 366.103 231.386C367.999 231.011 396.875 231.386 404.24 230.448C411.605 229.511 415.188 229.875 414.042 232.896Z" fill="#DC3333" stroke="#2E353A" stroke-linecap="round" stroke-linejoin="round"/>
<path d="M366.967 286.5L368.04 288.781" stroke="#2E353A" stroke-width="0.75" stroke-linecap="round" stroke-linejoin="round"/>
<path d="M370.343 260.594L362.197 271.24C362.197 271.24 351.78 272.5 354.905 272.709C358.03 272.917 361.155 272.917 361.155 272.917C361.155 272.917 358.437 273.75 359.072 274.167C359.804 274.459 360.587 274.601 361.374 274.584L365.822 284.042" stroke="#2E353A" stroke-width="0.75" stroke-linecap="round" stroke-linejoin="round"/>
<path d="M354.424 153.405C354.424 153.405 351.789 154.864 347.82 157.124C343.851 159.385 341.569 160.52 341.028 162.416C340.486 164.312 328.934 187.958 328.934 187.958C328.934 187.958 333.465 190.604 337.621 192.49C340.78 193.788 344.07 194.738 347.434 195.323L351.216 187.396C351.216 187.396 358.508 201.167 361.633 206.084C367.195 214.866 365.404 220.251 364.654 223.272C363.904 226.293 361.82 231.96 362.383 232.71C362.945 233.46 377.675 240.075 387.123 239.512C396.571 238.95 412.759 238.075 413.895 236.752C415.03 235.429 415.218 227.803 415.218 227.231C415.218 226.658 413.551 211.938 411.853 203.063C410.155 194.188 400.905 170.395 397.884 163.978C394.863 157.562 392.029 155.478 384.342 152.843C376.654 150.207 365.268 149.634 360.549 150.197C355.83 150.759 354.424 153.405 354.424 153.405Z" fill="#2E353A" stroke="#2E353A" stroke-linecap="round" stroke-linejoin="round"/>
<path d="M386.207 178.727L397.905 182.487L388.093 183.529" stroke="white" stroke-width="0.75" stroke-linecap="round" stroke-linejoin="round"/>
<path d="M366.998 208.594C366.998 208.594 378.269 217.782 392.061 217.782" stroke="white" stroke-width="0.75" stroke-linecap="round" stroke-linejoin="round"/>
<path d="M370.76 216.945C370.76 216.945 380.135 221.331 389.76 219.872" stroke="white" stroke-width="0.75" stroke-linecap="round" stroke-linejoin="round"/>
<path d="M346.529 175.805L351.217 187.388L341.311 173.086" stroke="white" stroke-width="0.75" stroke-linecap="round" stroke-linejoin="round"/>
<path d="M353.622 154.726C353.368 156.855 353.305 159.003 353.435 161.143C353.622 165.112 354.945 167.946 353.81 170.779C352.674 173.612 354.008 174.946 355.133 173.612C356.258 172.279 358.154 167.185 358.539 166.248C358.925 165.31 366.873 163.602 367.977 163.602C369.081 163.602 372.696 169.268 374.394 170.019C376.092 170.769 375.717 169.268 374.581 166.248C373.446 163.227 372.133 152.705 369.488 149.434C366.842 146.164 356.31 146.986 353.622 154.726Z" fill="white" stroke="#2E353A" stroke-linecap="round" stroke-linejoin="round"/>
<path d="M355.561 158.122C354.519 157.758 361.03 167.758 363.676 172.852C366.322 177.946 368.77 176.634 369.155 172.665C369.541 168.696 367.832 155.477 367.832 155.477C367.832 155.477 361.03 160.018 355.561 158.122Z" fill="white" stroke="#2E353A" stroke-linecap="round" stroke-linejoin="round"/>
<path d="M369.081 167.914C366.645 168.959 363.949 169.235 361.352 168.706C362.237 170.227 363.06 171.675 363.675 172.873C366.32 177.966 368.768 176.654 369.154 172.685C369.235 171.095 369.211 169.501 369.081 167.914Z" fill="#DC3333" stroke="#2E353A" stroke-linecap="round" stroke-linejoin="round"/>
<path d="M374.623 238.25V261.595" stroke="#2E353A" stroke-width="4" stroke-linecap="round" stroke-linejoin="round"/>
<path d="M394.646 243.506C394.539 243.516 394.431 243.516 394.323 243.506L359.207 239.339C358.512 239.228 357.885 238.853 357.46 238.291C357.034 237.73 356.843 237.025 356.925 236.325C357.007 235.626 357.357 234.985 357.9 234.537C358.444 234.089 359.14 233.868 359.843 233.922L394.959 238.089C395.667 238.146 396.324 238.478 396.791 239.013C397.257 239.549 397.495 240.246 397.455 240.955C397.414 241.664 397.097 242.329 396.572 242.808C396.047 243.286 395.356 243.541 394.646 243.516V243.506Z" fill="white" stroke="#2E353A" stroke-linecap="round" stroke-linejoin="round"/>
<path d="M394.801 242.641C395.739 242.641 396.499 241.745 396.499 240.641C396.499 239.536 395.739 238.641 394.801 238.641C393.864 238.641 393.104 239.536 393.104 240.641C393.104 241.745 393.864 242.641 394.801 242.641Z" fill="white" stroke="#2E353A" stroke-width="0.75" stroke-linecap="round" stroke-linejoin="round"/>
<path d="M362.914 341.127L383.966 351.492C384.088 351.546 384.219 351.574 384.352 351.574C384.485 351.574 384.616 351.546 384.737 351.492L397.373 346.815C397.553 346.749 397.71 346.63 397.822 346.474C397.935 346.318 397.999 346.132 398.005 345.94C398.012 345.748 397.962 345.558 397.86 345.395C397.759 345.232 397.611 345.103 397.436 345.023L377.706 335.888C377.504 335.794 377.276 335.772 377.06 335.825L363.122 339.315C362.927 339.36 362.752 339.465 362.619 339.614C362.486 339.763 362.402 339.949 362.379 340.148C362.357 340.346 362.396 340.547 362.491 340.722C362.587 340.898 362.735 341.039 362.914 341.127Z" fill="white" stroke="#2E353A" stroke-linecap="round" stroke-linejoin="round"/>
<path d="M379.665 344.576H375.498C374.551 344.573 373.644 344.196 372.975 343.526C372.305 342.857 371.928 341.949 371.925 341.003L369.311 264.646C369.311 263.787 369.652 262.963 370.259 262.355C370.867 261.748 371.691 261.406 372.55 261.406H377.394C378.253 261.406 379.077 261.748 379.685 262.355C380.293 262.963 380.634 263.787 380.634 264.646L383.249 341.003C383.249 341.473 383.156 341.938 382.976 342.372C382.795 342.807 382.531 343.201 382.198 343.533C381.865 343.865 381.47 344.128 381.036 344.307C380.601 344.486 380.135 344.577 379.665 344.576Z" fill="white" stroke="#2E353A" stroke-linecap="round" stroke-linejoin="round"/>
<path d="M389.894 341.93C386.727 344.905 383.384 347.688 379.884 350.263C375.717 353.097 375.352 352.722 376.3 354.607C377.248 356.493 380.071 357.628 388.009 355.93C395.947 354.232 398.582 352.909 402.926 350.451C407.27 347.992 408.583 347.992 407.458 346.482C406.332 344.971 389.894 341.93 389.894 341.93Z" fill="#2E353A" stroke="#2E353A" stroke-linecap="round" stroke-linejoin="round"/>
<path d="M402.927 350.427C407.26 347.969 408.583 347.969 407.458 346.458C407.16 346.18 406.804 345.97 406.416 345.844C400.66 349.246 394.564 352.039 388.228 354.177C380.103 356.625 376.145 353.792 376.145 353.792L376.051 353.948C376.133 354.155 376.227 354.356 376.332 354.552C377.27 356.438 380.103 357.573 388.041 355.875C395.979 354.177 398.583 352.886 402.927 350.427Z" fill="white" stroke="#2E353A" stroke-linecap="round" stroke-linejoin="round"/>
<path d="M419.75 190.977C418.4 188.02 417.204 184.995 416.167 181.914C413 183.425 403.323 191.529 403.323 191.529L411.823 203.04C411.823 203.04 403.708 214.749 399.927 221.363C397.148 225.877 393.711 229.95 389.728 233.447L380.447 233.332C380.037 233.593 379.692 233.943 379.437 234.356C379.183 234.769 379.026 235.235 378.978 235.718C378.978 237.176 377.332 242.312 378.061 243.229C378.791 244.145 383.197 244.322 383.197 244.322C383.197 244.322 390.343 245.062 391.624 243.229C391.624 243.229 389.426 240.843 389.603 239.749C389.781 238.656 391.989 237.916 391.989 237.916L394.385 237.739C394.385 237.739 395.208 238.312 395.895 234.614C397.75 233.385 404.489 228.864 408.052 225.301C412.219 221.134 424.48 207.363 425.417 204.717C426.355 202.071 422.209 196.456 419.75 190.977Z" fill="white" stroke="#2E353A" stroke-linecap="round" stroke-linejoin="round"/>
<path d="M418.875 188.966C417.031 184.643 416.166 181.914 416.166 181.914C413 183.425 403.322 191.529 403.322 191.529L407.364 196.998C411.889 195.475 415.884 192.688 418.875 188.966Z" fill="#DC3333" stroke="#2E353A" stroke-linecap="round" stroke-linejoin="round"/>
<path d="M392.749 177.382L402.76 195.091L408.615 191.122C411.921 188.671 414.848 185.748 417.302 182.444C413.237 176.004 408.693 169.879 403.708 164.121C395.77 155.058 391.999 154.496 388.604 154.683" fill="#2E353A"/>
<path d="M392.749 177.382L402.76 195.091L408.615 191.122C411.921 188.671 414.848 185.748 417.302 182.444C413.237 176.004 408.693 169.879 403.708 164.121C395.77 155.058 391.999 154.496 388.604 154.683" stroke="#2E353A" stroke-linecap="round" stroke-linejoin="round"/>
<path d="M368.353 238.851C368.353 238.111 365.227 230.423 365.227 230.423L355.852 225.267C351.987 217.496 346.05 205.058 345.029 202.87C344.267 201.353 343.633 199.774 343.133 198.151L344.727 194.755C342.307 194.219 339.943 193.459 337.664 192.484C335.904 191.693 334.091 190.766 332.581 189.953C331.747 193.141 330.32 198.631 330.862 201.36C331.403 204.089 343.727 219.694 349.883 227.579C349.883 227.579 352.456 238.486 353.56 240.132L354.665 241.778C354.665 241.778 356.488 243.799 357.404 243.611C358.191 243.363 358.934 242.99 359.602 242.507C360.253 242.72 360.944 242.784 361.623 242.694C362.517 242.31 363.324 241.75 363.998 241.049C363.998 241.049 364.915 242.09 367.123 241.601C369.332 241.111 368.353 239.58 368.353 238.851Z" fill="white" stroke="#2E353A" stroke-linecap="round" stroke-linejoin="round"/>
<path d="M331.434 194.487C334.967 196.88 339.034 198.368 343.278 198.821C343.142 198.414 343.09 198.206 343.09 198.206L344.684 194.81C342.264 194.274 339.9 193.514 337.621 192.539C335.861 191.747 334.048 190.82 332.538 190.008C332.204 191.216 331.746 192.82 331.434 194.487Z" fill="#DC3333" stroke="#2E353A" stroke-linecap="round" stroke-linejoin="round"/>
<path d="M196.326 244.492V238.117" stroke="#2E353A" stroke-width="6" stroke-linecap="round" stroke-linejoin="round"/>
<path d="M374.905 329.422L367.019 330.735C367.019 330.735 362.207 332.047 361.332 336.422C359.227 346.954 348.331 350.912 339.039 352.996C325.891 356.036 312.55 358.176 299.111 359.402C278.61 361.225 257.787 360.882 237.484 357.319C225.827 355.235 208.056 352.985 199.368 344.11C198.635 343.439 198.083 342.593 197.764 341.652C197.066 339.089 199.441 336.756 201.733 335.401C205.942 333.148 210.428 331.457 215.077 330.37C227.004 327.099 241.901 326.474 253.016 321.286C256.266 319.776 258.224 317.359 254.911 314.442C244.599 305.307 196.326 303.692 196.326 286.514V244.492" stroke="#2E353A" stroke-width="3" stroke-linecap="round" stroke-linejoin="round"/>
<path d="M345.999 145.205C345.626 143.23 344.974 141.318 344.061 139.527C342.77 137.329 339.217 133.788 338.571 130.433C337.926 127.079 342.905 123.141 342.905 123.141C342.905 123.141 340.186 123.141 340.822 121.975C341.457 120.808 344.572 121.329 344.572 121.329C344.36 120.721 344.309 120.07 344.422 119.437C344.535 118.804 344.809 118.211 345.218 117.714C346.634 116.037 347.155 119.266 347.155 119.266C348.682 116.139 351.052 113.502 353.999 111.651C358.645 108.933 366.916 112.693 367.822 115.006C368.729 117.318 366.541 116.527 366.541 116.527C366.541 116.527 377.646 121.558 378.417 129.027C379.187 136.496 372.739 135.225 372.739 135.225C372.739 135.225 373.125 139.621 372.218 141.173C371.312 142.725 370.927 143.257 366.406 139.621C361.885 135.985 352.593 137.298 352.072 140.142C351.551 142.986 349.989 147.236 347.686 146.725C345.384 146.215 345.999 145.205 345.999 145.205Z" fill="#2E353A" stroke="#2E353A" stroke-linecap="round" stroke-linejoin="round"/>
<path d="M352.385 128.193C352.385 128.193 347.916 124.339 352.791 123.536C357.666 122.734 359.479 131.443 364.552 133.266C367.685 134.323 371.108 134.106 374.083 132.662" stroke="white" stroke-width="0.5" stroke-linecap="round" stroke-linejoin="round"/>
<path d="M351.624 127.516C351.624 127.516 346.509 124.182 346.946 121.953C347.384 119.724 355.634 116.828 360.082 119.505C364.53 122.182 364.76 127.745 370.322 129.078C375.885 130.412 375 127.297 374.333 126.401" stroke="white" stroke-width="0.5" stroke-linecap="round" stroke-linejoin="round"/>
<path d="M341.831 131.308C340.935 130.193 340.716 125.964 344.279 125.297C347.842 124.631 350.738 128.422 350.738 128.422C350.06 128.86 346.06 129.975 345.394 133.318C344.727 136.662 348.06 136.652 346.508 139.569" stroke="white" stroke-width="0.5" stroke-linecap="round" stroke-linejoin="round"/>
<path d="M346.643 145.284C346.643 145.284 346.455 145.044 346.174 144.752C345.487 144.044 343.549 143.534 342.955 144.95C342.122 146.961 344.393 150.773 346.08 151.274C346.542 151.428 347.034 151.465 347.514 151.384C347.994 151.302 348.446 151.103 348.831 150.805C348.831 150.805 353.477 160.18 359.32 162.378C365.164 164.576 368.05 157.659 369.894 153.003C371.738 148.346 371.06 146.659 371.06 146.659C371.06 146.659 374.186 147.398 375.154 143.721C376.123 140.044 374.571 138.638 373.571 138.804C372.629 139.068 371.728 139.461 370.894 139.971L369.394 135.96C369.394 135.96 366.55 137.638 361.706 135.794C356.862 133.95 354.518 129.45 353.372 129.783C352.226 130.117 352.331 133.117 352.331 133.117C352.331 133.117 350.164 131.95 349.331 132.95C348.497 133.95 350.664 135.127 349.664 138.804C348.664 142.482 347.476 143.607 347.476 143.607C347.476 143.607 348.31 145.273 347.643 145.273L346.643 145.284Z" fill="white" stroke="#2E353A" stroke-linecap="round" stroke-linejoin="round"/>
<path d="M356.31 142.842C356.467 143.551 356.258 144.186 355.862 144.27C355.467 144.353 355.008 143.863 354.821 143.155C354.633 142.447 354.873 141.811 355.279 141.728C355.685 141.644 356.164 142.144 356.31 142.842Z" fill="#2E353A"/>
<path d="M364.323 141.919C364.323 142.638 364.031 143.242 363.614 143.253C363.198 143.263 362.854 142.69 362.833 141.972C362.812 141.253 363.114 140.659 363.531 140.649C363.948 140.638 364.291 141.201 364.323 141.919Z" fill="#2E353A"/>
<path d="M352.092 140.578C352.382 139.882 352.849 139.274 353.446 138.813C354.044 138.353 354.751 138.056 355.498 137.953" stroke="#2E353A" stroke-linecap="round" stroke-linejoin="round"/>
<path d="M362.113 137.477C362.862 137.297 363.647 137.339 364.372 137.598C365.098 137.857 365.732 138.322 366.197 138.936" stroke="#2E353A" stroke-linecap="round" stroke-linejoin="round"/>
<path d="M355.45 152.802C355.45 152.802 361.179 150.667 364.002 154.656" stroke="#2E353A" stroke-linecap="round" stroke-linejoin="round"/>
<path d="M361.821 138.828C361.209 140.919 361.173 143.136 361.717 145.245C362.696 148.266 364.154 148.37 363.571 148.745C362.988 149.12 360.446 149.62 359.873 149.141" fill="white"/>
<path d="M361.821 138.828C361.209 140.919 361.173 143.136 361.717 145.245C362.696 148.266 364.154 148.37 363.571 148.745C362.988 149.12 360.446 149.62 359.873 149.141" stroke="#2E353A" stroke-linecap="round" stroke-linejoin="round"/>
<path d="M385.551 247.258C385.551 247.258 374.811 272.926 374.457 278.592C374.103 284.259 390.291 332.678 390.666 334.761C391.041 336.844 388.03 336.459 388.03 338.532C388.069 339.969 388.387 341.384 388.968 342.699C389.155 343.261 404.072 347.793 406.531 347.98C408.989 348.168 410.114 347.605 410.114 345.897C410.114 344.188 408.989 338.907 408.989 338.344C408.989 337.782 412.01 334.178 410.875 329.094C409.739 324.011 399.176 291.812 397.854 288.405C396.531 284.999 395.02 281.426 395.02 281.426C395.601 280.576 395.988 279.608 396.156 278.592C396.27 277.714 396.27 276.825 396.156 275.946C396.156 275.946 412.521 249.727 412.542 241.57" fill="#DC3333"/>
<path d="M385.551 247.258C385.551 247.258 374.811 272.926 374.457 278.592C374.103 284.259 390.291 332.678 390.666 334.761C391.041 336.844 388.03 336.459 388.03 338.532C388.069 339.969 388.387 341.384 388.968 342.699C389.155 343.261 404.072 347.793 406.531 347.98C408.989 348.168 410.114 347.605 410.114 345.897C410.114 344.188 408.989 338.907 408.989 338.344C408.989 337.782 412.01 334.178 410.875 329.094C409.739 324.011 399.176 291.812 397.854 288.405C396.531 284.999 395.02 281.426 395.02 281.426C395.601 280.576 395.988 279.608 396.156 278.592C396.27 277.714 396.27 276.825 396.156 275.946C396.156 275.946 412.521 249.727 412.542 241.57" stroke="#2E353A" stroke-linecap="round" stroke-linejoin="round"/>
<path d="M397.01 301.547C401.281 314.943 406.323 330.892 406.677 333.267C407.302 337.434 406.052 338.288 406.468 340.371C406.885 342.455 407.718 345.382 407.718 345.382" stroke="#2E353A" stroke-width="0.75" stroke-linecap="round" stroke-linejoin="round"/>
<path d="M406.459 244.656C403.209 252.584 397.229 267.209 396.042 270.22C394.365 274.386 391.438 277.741 392.073 278.157C392.708 278.574 394.365 278.574 393.115 280.032C391.865 281.491 391.031 281.918 391.031 282.543C391.031 282.762 392.948 288.741 395.427 296.523" stroke="#2E353A" stroke-width="0.75" stroke-linecap="round" stroke-linejoin="round"/>
<path d="M408.553 239.5L407.512 242.115" stroke="#2E353A" stroke-width="0.75" stroke-linecap="round" stroke-linejoin="round"/>
<path d="M380.479 243.792C380.479 243.792 381.083 237.094 381.697 236.281" stroke="#2E353A" stroke-width="0.75" stroke-linecap="round" stroke-linejoin="round"/>
<path d="M385.353 236.32C385.353 236.32 382.665 244.935 383.196 244.383" stroke="#2E353A" stroke-width="0.75" stroke-linecap="round" stroke-linejoin="round"/>
<path d="M387.384 236.883L386.165 243.383C386.165 243.383 385.957 243.998 387.79 244.196" stroke="#2E353A" stroke-width="0.75" stroke-linecap="round" stroke-linejoin="round"/>
<path d="M363.956 241.05L362.811 239.727" stroke="#2E353A" stroke-width="0.75" stroke-linecap="round" stroke-linejoin="round"/>
<path d="M359.56 242.516L358.539 241.766" stroke="#2E353A" stroke-width="0.75" stroke-linecap="round" stroke-linejoin="round"/>
<path d="M357.363 243.612L355.904 241.352" stroke="#2E353A" stroke-width="0.75" stroke-linecap="round" stroke-linejoin="round"/>
<path d="M294.246 217.233C300.779 210.152 306.505 202.368 311.32 194.023" stroke="#2E353A" stroke-linecap="round" stroke-linejoin="round"/>
<path d="M209.867 258.407C239.892 255.975 268.113 243.092 289.62 222" stroke="#2E353A" stroke-linecap="round" stroke-linejoin="round"/>
<path d="M180.117 257.445C184.295 258.073 188.502 258.49 192.722 258.695" stroke="#2E353A" stroke-linecap="round" stroke-linejoin="round"/>
<path d="M140.709 242.578C143.383 243.967 146.095 245.262 148.845 246.464" stroke="#2E353A" stroke-linecap="round" stroke-linejoin="round"/>
<path d="M71.8633 139.57C73.7006 159.826 80.2813 179.364 91.0728 196.604C101.864 213.843 116.563 228.3 133.98 238.803" stroke="#2E353A" stroke-linecap="round" stroke-linejoin="round"/>
<path d="M272.037 23.8196C253.645 11.1001 232.273 3.35944 210.002 1.35138C187.731 -0.656675 165.319 3.13627 144.949 12.3609" stroke="#2E353A" stroke-linecap="round" stroke-linejoin="round"/>
<path d="M317.622 77.5159C316.337 74.5992 314.948 71.7449 313.455 68.9531" stroke="#2E353A" stroke-linecap="round" stroke-linejoin="round"/>
<path d="M267.766 219.451C274.736 214.274 281.105 208.334 286.756 201.742" stroke="#2E353A" stroke-linecap="round" stroke-linejoin="round"/>
<path d="M186.096 241.938C213.125 244.771 240.292 238.036 262.869 222.906" stroke="#2E353A" stroke-linecap="round" stroke-linejoin="round"/>
<path d="M159.865 236.141C163.435 237.37 167.091 238.436 170.834 239.339" stroke="#2E353A" stroke-linecap="round" stroke-linejoin="round"/>
<path d="M86.3633 159.438C87.148 162.042 88.0196 164.611 88.9779 167.146" stroke="#2E353A" stroke-linecap="round" stroke-linejoin="round"/>
<path d="M109.501 50.0938C97.5796 64.0417 89.1099 80.6006 84.7774 98.4302C80.4449 116.26 80.3713 134.859 84.5627 152.722" stroke="#2E353A" stroke-linecap="round" stroke-linejoin="round"/>
<path d="M247.255 20.1747C228.949 11.6916 208.757 8.09639 188.648 9.73945C168.539 11.3825 149.198 18.2078 132.512 29.55" stroke="#2E353A" stroke-linecap="round" stroke-linejoin="round"/>
<path d="M306.652 83.3275C297.089 59.0472 279.689 38.6581 257.213 25.3984" stroke="#2E353A" stroke-linecap="round" stroke-linejoin="round"/>
<path d="M311.684 99.4456C311.038 96.6434 310.278 93.8829 309.424 91.1641" stroke="#2E353A" stroke-linecap="round" stroke-linejoin="round"/>
<path d="M306.892 127.169C306.892 125.794 308.122 124.398 308.07 123.003C308.017 121.607 306.684 120.325 306.59 118.971C306.497 117.617 307.632 116.117 307.465 114.804C307.299 113.492 305.882 112.242 305.684 110.888C305.486 109.533 306.497 107.971 306.236 106.627C305.976 105.283 304.476 104.189 304.153 102.856C303.83 101.523 304.736 99.8872 304.392 98.5642C304.049 97.2413 302.444 96.2725 302.038 94.96C301.632 93.6474 302.403 91.9494 301.955 90.6682C301.507 89.3869 299.871 88.5222 299.34 87.2514C298.809 85.9805 299.476 84.22 298.934 82.97C298.392 81.7199 296.663 80.9907 296.069 79.7615C295.475 78.5323 295.975 76.7302 295.34 75.5218C294.705 74.3134 292.934 73.7301 292.215 72.5425C291.496 71.355 291.902 69.532 291.173 68.3757C290.444 67.2194 288.631 66.7611 287.861 65.6361C287.09 64.511 287.319 62.6568 286.506 61.5526C285.694 60.4484 283.86 60.1359 283.006 59.0629C282.152 57.99 282.246 56.1357 281.35 55.094C280.454 54.0523 278.6 53.8752 277.673 52.8752C276.746 51.8752 276.694 50.0105 275.725 49.0417C274.756 48.073 272.891 48 271.891 47.0938C270.891 46.1875 270.704 44.3124 269.672 43.4166C268.641 42.5207 266.766 42.6144 265.704 41.7603C264.641 40.9061 264.308 39.0727 263.214 38.2601C262.12 37.4476 260.266 37.6768 259.13 36.9059C257.995 36.1351 257.547 34.3225 256.38 33.5933C255.214 32.8641 253.401 33.2391 252.214 32.5516C251.026 31.8641 250.443 30.1036 249.234 29.4265C248.026 28.7494 246.224 29.2911 244.995 28.6973C243.765 28.1035 243.047 26.3847 241.786 25.8326C240.526 25.2805 238.786 25.9264 237.505 25.4264C236.223 24.9264 235.421 23.27 234.088 22.8117C232.755 22.3533 231.109 23.1346 229.796 22.7284C228.484 22.3221 227.515 20.7387 226.192 20.3845C224.869 20.0303 223.244 20.9262 221.9 20.6137C220.556 20.3012 219.483 18.8011 218.129 18.5303C216.775 18.2595 215.233 19.2907 213.868 19.0824C212.504 18.8741 211.327 17.4573 209.962 17.3011C208.597 17.1448 207.118 18.2803 205.795 18.1761C204.472 18.072 203.129 16.749 201.754 16.6969C200.378 16.6448 199.003 17.8844 197.587 17.8844C196.17 17.8844 194.826 16.6448 193.42 16.6969C192.014 16.749 190.743 18.0824 189.378 18.1761C188.013 18.2699 186.534 17.1344 185.211 17.3011C183.888 17.4678 182.649 18.8845 181.305 19.0824C179.961 19.2803 178.388 18.2699 177.044 18.5303C175.701 18.7907 174.607 20.2908 173.273 20.6137C171.94 20.9366 170.305 20.0303 168.982 20.3845C167.659 20.7387 166.679 22.3221 165.377 22.7284C164.075 23.1346 162.367 22.3638 161.075 22.8117C159.783 23.2596 158.992 24.8951 157.669 25.4264C156.346 25.9576 154.637 25.2909 153.387 25.8326C152.137 26.3743 151.408 28.1035 150.179 28.6973C148.95 29.2911 147.148 28.7911 145.939 29.4265C144.731 30.0619 144.137 31.8328 142.96 32.5516C141.783 33.2704 139.939 32.8745 138.793 33.5933C137.647 34.3121 137.178 36.1246 136.053 36.8955C134.928 37.6664 133.074 37.4372 131.97 38.2497C130.866 39.0622 130.553 40.8956 129.48 41.7603C128.407 42.6249 126.553 42.5103 125.511 43.4061C124.47 44.302 124.293 46.1562 123.293 47.0833C122.293 48.0105 120.428 48.0625 119.459 49.0313C118.49 50.0001 118.417 51.8648 117.511 52.8648C116.605 53.8648 114.761 54.0315 113.865 55.0732C112.969 56.1149 113.063 57.9691 112.209 59.0421C111.355 60.115 109.521 60.4275 108.709 61.5317C107.896 62.636 108.125 64.4798 107.355 65.6048C106.584 66.7298 104.771 67.1882 104.042 68.3549C103.313 69.5216 103.688 71.3342 103 72.5217C102.313 73.7092 100.542 74.2926 99.8751 75.5114C99.2084 76.7302 99.7397 78.5115 99.1459 79.7407C98.5521 80.9699 96.8333 81.6991 96.2812 82.9491C95.7291 84.1992 96.375 85.9492 95.875 87.2305C95.3749 88.5118 93.7082 89.3139 93.2603 90.6473C92.8123 91.9807 93.5728 93.6266 93.1769 94.9391C92.7811 96.2517 91.1769 97.2205 90.8227 98.5434C90.4685 99.8664 91.3644 101.502 91.0623 102.835C90.7602 104.169 89.2497 105.252 88.9789 106.606C88.708 107.96 89.7498 109.513 89.5414 110.867C89.3331 112.221 87.9164 113.409 87.7601 114.784C87.6038 116.159 88.7393 117.617 88.6351 118.95C88.531 120.284 87.1976 121.607 87.1559 122.982C87.1142 124.357 88.333 125.742 88.333 127.149C88.333 128.555 87.1038 129.909 87.1559 131.315C87.208 132.722 88.5414 133.993 88.6351 135.357C88.7289 136.722 87.5934 138.201 87.7601 139.524C87.9268 140.847 89.3435 142.087 89.5414 143.43C89.7393 144.774 88.7289 146.358 88.9789 147.701C89.2289 149.045 90.7498 150.128 91.0623 151.462C91.3748 152.795 90.4685 154.441 90.8227 155.754C91.1769 157.066 92.7707 158.056 93.1769 159.358C93.5832 160.66 92.8123 162.368 93.2603 163.66C93.7082 164.952 95.3437 165.796 95.875 167.077C96.4062 168.358 95.7395 170.098 96.2812 171.348C96.8229 172.598 98.5521 173.327 99.1459 174.556C99.7397 175.786 99.2292 177.588 99.8751 178.796C100.521 180.004 102.281 180.598 103 181.786C103.719 182.973 103.313 184.796 104.042 185.953C104.771 187.109 106.584 187.567 107.355 188.692C108.125 189.817 107.896 191.672 108.709 192.776C109.521 193.88 111.355 194.192 112.209 195.265C113.063 196.338 112.969 198.203 113.865 199.234C114.761 200.266 116.615 200.453 117.542 201.464C118.469 202.474 118.522 204.328 119.49 205.297C120.459 206.266 122.324 206.339 123.324 207.235C124.324 208.13 124.511 210.026 125.543 210.912C126.574 211.797 128.439 211.714 129.512 212.568C130.584 213.422 130.907 215.256 132.001 216.068C133.095 216.881 134.949 216.652 136.085 217.422C137.22 218.193 137.668 220.006 138.835 220.735C140.001 221.464 141.814 221.089 143.002 221.777C144.189 222.464 144.772 224.235 145.981 224.902C147.189 225.569 148.981 225.037 150.221 225.631C151.46 226.225 152.169 227.944 153.429 228.496C154.689 229.048 156.429 228.402 157.71 228.902C158.992 229.402 159.794 231.069 161.127 231.517C162.461 231.965 164.106 231.204 165.419 231.6C166.732 231.996 167.7 233.6 169.023 233.954C170.346 234.308 171.971 233.413 173.315 233.715C174.659 234.017 175.732 235.527 177.086 235.798C178.44 236.069 179.982 235.027 181.347 235.236C182.711 235.444 183.888 236.861 185.253 237.017C186.618 237.173 188.097 236.038 189.42 236.142C190.743 236.246 192.087 237.579 193.462 237.631C194.837 237.684 196.212 236.444 197.628 236.444C199.045 236.444 200.399 237.673 201.795 237.631C203.191 237.59 204.472 236.246 205.827 236.142C207.181 236.038 208.681 237.184 209.993 237.017C211.306 236.85 212.556 235.433 213.91 235.236C215.264 235.038 216.827 236.048 218.171 235.798C219.515 235.548 220.608 234.027 221.942 233.715C223.275 233.402 224.911 234.308 226.233 233.954C227.556 233.6 228.536 232.006 229.838 231.6C231.14 231.194 232.848 231.965 234.14 231.517C235.432 231.069 236.276 229.433 237.546 228.902C238.817 228.371 240.578 229.048 241.828 228.496C243.078 227.944 243.807 226.225 245.036 225.631C246.265 225.037 248.068 225.548 249.276 224.902C250.484 224.256 251.078 222.495 252.255 221.777C253.432 221.058 255.266 221.464 256.422 220.735C257.578 220.006 258.037 218.193 259.162 217.422C260.287 216.652 262.141 216.881 263.245 216.068C264.349 215.256 264.662 213.422 265.735 212.568C266.808 211.714 268.662 211.808 269.704 210.912C270.745 210.016 270.923 208.162 271.923 207.235C272.923 206.307 274.787 206.255 275.756 205.287C276.725 204.318 276.798 202.464 277.704 201.453C278.61 200.443 280.485 200.266 281.381 199.234C282.277 198.203 282.183 196.338 283.037 195.265C283.892 194.192 285.725 193.88 286.538 192.776C287.35 191.672 287.121 189.828 287.892 188.692C288.663 187.557 290.475 187.109 291.204 185.953C291.934 184.796 291.559 182.963 292.246 181.786C292.934 180.609 294.694 180.015 295.371 178.807C296.048 177.598 295.507 175.806 296.1 174.567C296.694 173.327 298.413 172.619 298.965 171.358C299.517 170.098 298.871 168.358 299.371 167.077C299.871 165.796 301.528 164.994 301.986 163.671C302.444 162.348 301.663 160.681 302.069 159.368C302.476 158.056 304.069 157.097 304.424 155.764C304.778 154.431 303.882 152.816 304.184 151.472C304.486 150.128 305.997 149.056 306.267 147.712C306.538 146.368 305.507 144.805 305.715 143.441C305.924 142.076 307.34 140.899 307.497 139.534C307.653 138.17 306.517 136.691 306.622 135.368C306.726 134.045 308.049 132.701 308.101 131.326C308.153 129.951 306.892 128.544 306.892 127.169Z" fill="#DC3333" stroke="#2E353A" stroke-width="2" stroke-linecap="round" stroke-linejoin="round"/>
<path d="M164.908 23.1484L166.835 28.5445" stroke="#2E353A" stroke-width="2" stroke-linecap="round" stroke-linejoin="round"/>
<path d="M157.574 26.0469L159.314 30.2866" stroke="#2E353A" stroke-width="2" stroke-linecap="round" stroke-linejoin="round"/>
<path d="M291.798 72.7188C288.646 75.4214 285.061 77.5732 281.193 79.0835" stroke="#2E353A" stroke-width="2" stroke-linecap="round" stroke-linejoin="round"/>
<path d="M295.653 79.8516C294.217 80.76 292.736 81.5944 291.215 82.3517" stroke="#2E353A" stroke-width="2" stroke-linecap="round" stroke-linejoin="round"/>
<path d="M135.596 217.571C135.596 217.571 140.221 212.362 140.992 208.508" stroke="#2E353A" stroke-width="2" stroke-linecap="round" stroke-linejoin="round"/>
<path d="M122.668 206.927C122.668 206.927 126.533 202.115 127.304 201.344" stroke="#2E353A" stroke-width="2" stroke-linecap="round" stroke-linejoin="round"/>
<path d="M221.796 233.159L220.254 224.68" stroke="#2E353A" stroke-width="2" stroke-linecap="round" stroke-linejoin="round"/>
<path d="M230.275 231.432L229.119 226.609" stroke="#2E353A" stroke-width="2" stroke-linecap="round" stroke-linejoin="round"/>
<path d="M265.568 212.334L259.016 205" stroke="#2E353A" stroke-width="2" stroke-linecap="round" stroke-linejoin="round"/>
<path d="M296.424 174.534L286.59 169.336" stroke="#2E353A" stroke-width="2" stroke-linecap="round" stroke-linejoin="round"/>
<path d="M89.1133 127.289L97.4052 127.477" stroke="#2E353A" stroke-width="2" stroke-linecap="round" stroke-linejoin="round"/>
<path d="M100.875 127.68L104.927 127.867" stroke="#2E353A" stroke-width="2" stroke-linecap="round" stroke-linejoin="round"/>
<path d="M99.7188 175.115C100.688 174.729 107.011 173.031 107.011 173.031" stroke="#2E353A" stroke-width="2" stroke-linecap="round" stroke-linejoin="round"/>
<path d="M221.858 20.7734C221.274 21.9401 220.107 28.6591 220.107 28.6591" stroke="#2E353A" stroke-width="2" stroke-linecap="round" stroke-linejoin="round"/>
<path d="M229.441 23.3984L228.566 27.784" stroke="#2E353A" stroke-width="2" stroke-linecap="round" stroke-linejoin="round"/>
<path d="M259.505 37.7031L257.172 40.6199" stroke="#2E353A" stroke-width="2" stroke-linecap="round" stroke-linejoin="round"/>
<path d="M107.156 65.7266L112.99 68.935" stroke="#2E353A" stroke-width="2" stroke-linecap="round" stroke-linejoin="round"/>
<path d="M116.5 70.6875L121.167 73.3126" stroke="#2E353A" stroke-width="2" stroke-linecap="round" stroke-linejoin="round"/>
<path d="M241.568 183.024C241.596 182.452 241.504 181.88 241.298 181.346C241.092 180.812 240.776 180.327 240.37 179.922C239.965 179.518 239.479 179.203 238.944 178.998C238.409 178.793 237.837 178.702 237.265 178.732C236.06 178.862 234.947 179.437 234.143 180.344C233.34 181.252 232.904 182.427 232.921 183.639C232.887 184.214 232.974 184.789 233.178 185.328C233.381 185.867 233.697 186.357 234.103 186.765C234.509 187.173 234.998 187.491 235.535 187.697C236.073 187.903 236.649 187.994 237.224 187.962C238.427 187.814 239.534 187.229 240.335 186.319C241.135 185.409 241.574 184.236 241.568 183.024Z" fill="white" stroke="#2E353A" stroke-width="3" stroke-linecap="round" stroke-linejoin="round"/>
<path d="M263.397 94.6434C266.432 91.6086 266.432 86.6882 263.397 83.6534C260.362 80.6186 255.442 80.6186 252.407 83.6535C249.372 86.6883 249.372 91.6086 252.407 94.6434C255.442 97.6782 260.362 97.6782 263.397 94.6434Z" fill="white"/>
<path opacity="0.2" d="M189.806 232.833C191.118 232.926 192.368 234.218 193.702 234.27C195.035 234.322 196.369 233.124 197.692 233.124C199.014 233.124 200.369 234.312 201.692 234.27C203.015 234.228 204.275 232.926 205.588 232.833C206.9 232.739 208.338 233.874 209.65 233.676C210.963 233.478 212.13 232.155 213.432 231.957C214.734 231.76 216.255 232.739 217.598 232.499C218.942 232.26 219.953 230.791 221.234 230.499C222.515 230.207 224.109 231.072 225.401 230.728C226.693 230.385 227.62 228.853 228.88 228.457C230.141 228.062 231.786 228.812 233.047 228.374C234.307 227.937 235.13 226.291 236.349 225.853C237.568 225.416 239.276 225.989 240.516 225.457C241.756 224.926 242.422 223.27 243.641 222.686C244.86 222.103 246.568 222.603 247.735 221.988C248.902 221.374 249.475 219.655 250.62 218.999C251.766 218.342 253.537 218.686 254.652 217.957C255.766 217.228 256.214 215.499 257.308 214.759C258.402 214.019 260.183 214.238 261.246 213.446C262.308 212.655 262.621 210.884 263.652 210.061C264.683 209.238 266.486 209.332 267.486 208.467C268.486 207.602 268.663 205.811 269.631 204.915C270.6 204.019 272.402 203.967 273.34 203.029C274.277 202.092 274.319 200.3 275.215 199.331C276.111 198.363 277.913 198.186 278.778 197.175C279.642 196.165 279.548 194.383 280.371 193.342C281.194 192.3 282.965 191.998 283.757 190.935C284.549 189.873 284.319 188.091 285.069 186.998C285.819 185.904 287.559 185.466 288.257 184.341C288.955 183.216 288.611 181.456 289.299 180.31C289.986 179.164 291.674 178.602 292.288 177.435C292.903 176.268 292.424 174.528 292.997 173.341C293.57 172.153 295.236 171.455 295.768 170.216C296.299 168.976 295.674 167.32 296.164 166.049C296.653 164.778 298.247 163.966 298.685 162.747C299.122 161.528 298.372 159.861 298.768 158.58C299.164 157.299 300.695 156.382 301.039 155.101C301.382 153.819 300.507 152.246 300.81 150.934C301.112 149.621 302.56 148.6 302.81 147.298C303.06 145.996 302.07 144.496 302.268 143.132C302.466 141.767 303.841 140.663 303.987 139.35C304.133 138.038 303.039 136.611 303.143 135.277C303.247 133.944 304.528 132.715 304.57 131.381C304.612 130.048 303.424 128.714 303.424 127.391C303.424 126.068 304.622 124.714 304.57 123.391C304.518 122.068 303.237 120.808 303.143 119.495C303.049 118.183 304.133 116.745 303.987 115.433C303.841 114.12 302.455 112.953 302.268 111.651C302.08 110.349 303.049 108.828 302.81 107.485C302.57 106.141 301.101 105.13 300.81 103.849C300.75 103.565 300.733 103.274 300.757 102.984C227.422 165.486 136.169 160.663 94.6152 154.194C94.597 154.464 94.6216 154.735 94.6881 154.997C95.0318 156.278 96.5631 157.215 96.959 158.476C97.3548 159.736 96.6048 161.382 97.0423 162.643C97.4798 163.903 99.1257 164.726 99.5632 165.934C100.001 167.143 99.4278 168.862 99.9591 170.101C100.49 171.341 102.147 172.018 102.73 173.226C103.313 174.435 102.813 176.154 103.428 177.32C104.043 178.487 105.761 179.06 106.418 180.206C107.074 181.352 106.73 183.112 107.459 184.227C108.189 185.341 109.918 185.789 110.657 186.883C111.397 187.977 111.178 189.758 111.97 190.831C112.762 191.904 114.532 192.196 115.355 193.237C116.178 194.279 116.085 196.06 116.949 197.071C117.814 198.081 119.606 198.248 120.501 199.217C121.397 200.186 121.449 201.988 122.387 202.925C123.324 203.863 125.116 203.894 126.085 204.8C127.054 205.707 127.231 207.488 128.241 208.353C129.252 209.217 131.033 209.123 132.075 209.946C133.116 210.769 133.419 212.551 134.481 213.332C135.544 214.113 137.325 213.894 138.419 214.644C139.512 215.394 139.95 217.134 141.075 217.842C142.2 218.551 143.961 218.186 145.106 218.884C146.252 219.582 146.815 221.249 147.982 221.874C149.148 222.499 150.888 221.999 152.075 222.582C153.263 223.166 153.961 224.811 155.201 225.343C156.44 225.874 158.096 225.249 159.367 225.739C160.638 226.228 161.451 227.822 162.67 228.259C163.888 228.697 165.555 227.957 166.836 228.343C168.118 228.728 169.034 230.27 170.316 230.614C171.597 230.957 173.17 230.093 174.482 230.384C175.795 230.676 176.826 232.135 178.128 232.385C179.431 232.635 180.931 231.645 182.243 231.843C183.556 232.041 184.712 233.416 186.024 233.562C187.337 233.708 188.472 232.739 189.806 232.833Z" fill="black"/>
</svg>
