<svg width="16" height="16" viewBox="0 0 16 16" fill="none" xmlns="http://www.w3.org/2000/svg">
<path d="M13.3203 7.37109V11.7461C13.3203 12.4365 12.7607 12.9961 12.0703 12.9961H3.32031C2.62996 12.9961 2.07031 12.4365 2.07031 11.7461V6.12109C2.07031 5.43074 2.62996 4.87109 3.32031 4.87109H4.25781C4.65126 4.87109 5.02174 4.68585 5.25781 4.37109L5.91406 3.49609C6.15013 3.18134 6.52063 2.99609 6.91406 2.99609H8.47656" stroke="white" stroke-linecap="round" stroke-linejoin="round"/>
<path d="M11.7578 2.99609V4.55859M11.7578 4.55859V6.12109M11.7578 4.55859H10.1953M11.7578 4.55859H13.3203" stroke="white" stroke-linecap="round" stroke-linejoin="round"/>
<path d="M7.69531 11.1211C9.07602 11.1211 10.1953 10.0018 10.1953 8.62109C10.1953 7.24038 9.07602 6.12109 7.69531 6.12109C6.3146 6.12109 5.19531 7.24038 5.19531 8.62109C5.19531 10.0018 6.3146 11.1211 7.69531 11.1211Z" stroke="white" stroke-linecap="round" stroke-linejoin="round"/>
</svg>
