<svg width="28" height="29" viewBox="0 0 28 29" fill="none" xmlns="http://www.w3.org/2000/svg">
<path d="M13.9999 14.3172C11.0249 14.3172 8.3999 11.7797 8.3999 8.51719C8.3999 5.25469 10.8499 2.89844 13.9999 2.89844C16.9749 2.89844 19.5999 5.43594 19.5999 8.69844C19.5999 11.9609 16.9749 14.3172 13.9999 14.3172ZM13.9999 4.16719C11.7249 4.16719 9.7999 6.16094 9.7999 8.51719C9.7999 10.8734 11.5499 12.8672 13.9999 12.8672C16.4499 12.8672 18.1999 10.8734 18.1999 8.51719C18.1999 6.16094 16.2749 4.16719 13.9999 4.16719Z" fill="#D72822"/>
<path d="M22.7499 24.4672C22.7499 18.4859 18.7249 13.7734 13.8249 13.7734C8.9249 13.7734 4.8999 18.4859 4.8999 24.4672H22.7499Z" fill="#F4B1B2"/>
<path d="M22.7499 25.193H4.0249V24.468C4.0249 18.1242 8.3999 13.0492 13.6499 13.0492C18.8999 13.0492 23.2749 18.1242 23.2749 24.2867V25.0117L22.7499 25.193ZM5.4249 23.743H22.0499C21.8749 18.668 18.1999 14.4992 13.8249 14.4992C9.2749 14.4992 5.7749 18.668 5.4249 23.743ZM19.4249 14.1367C19.0749 14.1367 18.7249 13.7742 18.7249 13.4117C18.7249 13.0492 19.0749 12.6867 19.4249 12.6867C21.1749 12.6867 22.7499 11.2367 22.7499 9.24298C22.7499 7.79298 21.8749 6.52423 20.4749 5.98048C20.1249 5.79923 19.9499 5.43673 20.1249 5.07423C20.2999 4.71173 20.6499 4.53048 20.9999 4.71173C22.9249 5.25548 24.1499 7.06798 24.1499 9.24298C23.9749 11.9617 21.8749 14.1367 19.4249 14.1367Z" fill="#D72822"/>
<path d="M26.4248 22.8359H24.8498C24.4998 22.8359 24.1498 22.4734 24.1498 22.1109C24.1498 21.7484 24.4998 21.3859 24.8498 21.3859H25.7248C25.3748 17.3984 22.5748 14.3172 19.2498 14.3172C18.8998 14.3172 18.5498 13.9547 18.5498 13.5922C18.5498 13.2297 18.8998 12.8672 19.2498 12.8672C23.6248 12.8672 27.1248 17.0359 27.1248 22.1109V22.8359H26.4248Z" fill="#D72822"/>
<path d="M8.2248 14.1391C8.0498 14.1391 8.0498 14.1391 8.2248 14.1391C6.9998 14.1391 5.7748 13.7766 4.8998 12.8703C4.0248 11.9641 3.6748 10.6953 3.6748 9.42657C3.6748 7.43282 4.8998 5.62032 6.8248 4.89532C7.1748 4.71407 7.5248 4.89532 7.6998 5.25782C7.8748 5.62032 7.6998 5.98282 7.3498 6.16407C5.7748 6.70782 4.8998 7.97657 4.8998 9.42657C4.8998 10.3328 5.2498 11.2391 5.7748 11.7828C6.2998 12.5078 7.1748 12.6891 8.0498 12.8703C8.5748 12.8703 8.7498 13.2328 8.7498 13.5953C8.7498 13.9578 8.5748 14.1391 8.2248 14.1391Z" fill="#D72822"/>
<path d="M2.4501 22.8383H0.350098V22.1133C0.350098 17.0383 3.8501 13.0508 8.2251 13.0508C8.5751 13.0508 8.9251 13.4133 8.9251 13.7758C8.9251 14.1383 8.5751 14.5008 8.2251 14.5008C4.9001 14.5008 2.1001 17.582 1.7501 21.5695H2.6251C2.9751 21.5695 3.3251 21.932 3.3251 22.2945C3.1501 22.4758 2.9751 22.8383 2.4501 22.8383Z" fill="#D72822"/>
</svg>
