<svg width="15" height="17" viewBox="0 0 15 17" fill="none" xmlns="http://www.w3.org/2000/svg">
    <path d="M7.20652 8.9578C9.42348 8.9578 11.1999 7.16655 11.1999 4.94765C11.1999 2.72875 9.42359 0.9375 7.20652 0.9375C4.98945 0.9375 3.19998 2.72875 3.19998 4.94765C3.19998 7.16655 4.98959 8.9578 7.20652 8.9578ZM0 14.572V16.1761C0 16.7701 0.478796 16.9781 1.06216 16.9781H13.3378C13.9244 16.9781 14.4 16.7664 14.4 16.1761V14.572C14.4 12.1659 11.2 10.5619 7.20001 10.5619C3.20003 10.5619 5.71111e-05 12.1659 5.71111e-05 14.572H0Z" fill="#67BC2A" />
</svg>