<svg width="23" height="24" viewBox="0 0 23 24" fill="none" xmlns="http://www.w3.org/2000/svg">
<g clip-path="url(#clip0_2496_10679)">
<path d="M22.7367 11.999C22.7362 9.49618 21.9097 7.06344 20.3856 5.07819C18.8614 3.09294 16.7247 1.66617 14.3069 1.01919C11.8891 0.372222 9.32537 0.541219 7.01342 1.49997C4.70147 2.45872 2.77054 4.15363 1.52015 6.32177C0.269766 8.48991 -0.230173 11.0101 0.0978889 13.4914C0.425953 15.9726 1.56368 18.2763 3.33457 20.045C5.10547 21.8136 7.41054 22.9485 9.89222 23.2734C12.3739 23.5984 14.8934 23.0953 17.06 21.8422L21.4899 23.3201C21.6536 23.3747 21.8291 23.3836 21.9974 23.3459C22.1658 23.3081 22.3206 23.225 22.4452 23.1057C22.5698 22.9863 22.6595 22.8352 22.7045 22.6687C22.7495 22.5021 22.7482 22.3264 22.7007 22.1605L21.3516 17.4407C22.2629 15.7719 22.7393 13.9005 22.7367 11.999ZM11.3682 2.52536C13.0409 2.52525 14.6839 2.96803 16.13 3.80867C17.5761 4.64932 18.7739 5.85787 19.6015 7.31146C20.4292 8.76506 20.8572 10.4119 20.8421 12.0845C20.827 13.7572 20.3693 15.396 19.5156 16.8344C19.4499 16.9455 19.4076 17.0689 19.3913 17.1969C19.375 17.325 19.3851 17.455 19.4209 17.579L20.3853 20.9517L17.2438 19.9058C17.1104 19.8613 16.9687 19.847 16.8291 19.864C16.6895 19.8811 16.5554 19.929 16.4367 20.0043C15.1951 20.79 13.7878 21.2762 12.326 21.4244C10.8642 21.5726 9.3879 21.3788 8.01391 20.8582C6.63991 20.3376 5.40584 19.5046 4.40922 18.4249C3.41261 17.3453 2.68078 16.0486 2.27157 14.6375C1.86237 13.2263 1.78702 11.7393 2.05146 10.294C2.31591 8.84865 2.91291 7.48466 3.79527 6.3098C4.67764 5.13494 5.82118 4.18142 7.13551 3.52461C8.44983 2.8678 9.89892 2.5257 11.3682 2.52536Z" fill="#141414"/>
</g>
<defs>
<clipPath id="clip0_2496_10679">
<rect width="22.7375" height="24" fill="white" transform="matrix(-1 0 0 1 22.7373 0)"/>
</clipPath>
</defs>
</svg>
