<svg width="21" height="21" viewBox="0 0 21 21" fill="none" xmlns="http://www.w3.org/2000/svg">
<g clipPath="url(#clip0_2499_11608)">
    <path d="M15.2343 6.83906C15.1843 6.83073 15.1259 6.83073 15.0759 6.83906C13.9259 6.7974 13.0093 5.85573 13.0093 4.68906C13.0093 3.4974 13.9676 2.53906 15.1593 2.53906C16.3509 2.53906 17.3093 3.50573 17.3093 4.68906C17.3009 5.85573 16.3843 6.7974 15.2343 6.83906Z" stroke="white" stroke-width="2" stroke-linecap="round" stroke-linejoin="round" />
    <path d="M14.3761 12.9058C15.5177 13.0975 16.7761 12.8975 17.6594 12.3058C18.8344 11.5225 18.8344 10.2392 17.6594 9.45583C16.7677 8.8642 15.4927 8.66419 14.3511 8.86419" stroke="white" stroke-width="2" stroke-linecap="round" stroke-linejoin="round" />
    <path d="M5.20928 6.83906C5.25928 6.83073 5.31761 6.83073 5.36761 6.83906C6.51761 6.7974 7.43428 5.85573 7.43428 4.68906C7.43428 3.4974 6.47594 2.53906 5.28428 2.53906C4.09261 2.53906 3.13428 3.50573 3.13428 4.68906C3.14261 5.85573 4.05928 6.7974 5.20928 6.83906Z" stroke="white" stroke-width="2" stroke-linecap="round" stroke-linejoin="round" />
    <path d="M6.06742 12.9058C4.92575 13.0975 3.66742 12.8975 2.78408 12.3058C1.60908 11.5225 1.60908 10.2392 2.78408 9.45583C3.67575 8.8642 4.95075 8.66419 6.09242 8.86419" stroke="white" stroke-width="2" stroke-linecap="round" stroke-linejoin="round" />
    <path d="M10.2343 13.0617C10.1843 13.0534 10.126 13.0534 10.076 13.0617C8.92598 13.0201 8.00928 12.0784 8.00928 10.9117C8.00928 9.72008 8.96764 8.76172 10.1593 8.76172C11.351 8.76172 12.3093 9.72841 12.3093 10.9117C12.301 12.0784 11.3843 13.0284 10.2343 13.0617Z" stroke="white" stroke-width="2" stroke-linecap="round" stroke-linejoin="round" />
    <path d="M7.80947 15.6859C6.63447 16.4693 6.63447 17.7526 7.80947 18.5359C9.14283 19.4276 11.3262 19.4276 12.6595 18.5359C13.8345 17.7526 13.8345 16.4693 12.6595 15.6859C11.3345 14.8026 9.14283 14.8026 7.80947 15.6859Z" stroke="white" stroke-width="2" stroke-linecap="round" stroke-linejoin="round" />
</g>
<defs>
    <clipPath id="clip0_2499_11608">
        <rect width="20" height="20" fill="white" transform="translate(0.234375 0.871094)" />
    </clipPath>
</defs>
</svg>