<svg width="17" height="15" viewBox="0 0 17 15" fill="none" xmlns="http://www.w3.org/2000/svg">
    <path d="M16.3333 1.95899V2.8393L0 2.85105V1.95898C0 1.31265 0.522132 0.789062 1.16666 0.789062H15.1666C15.8112 0.789062 16.3333 1.31265 16.3333 1.95898V1.95899Z" fill="white" />
    <path d="M0 3.43359H3.79166V14.8228H1.16666C0.522132 14.8228 0 14.2993 0 13.6531V3.43359Z" fill="white" />
    <path d="M4.375 3.43056V14.8227H15.1666C15.8112 14.8227 16.3333 14.2993 16.3333 13.6531V3.42188L4.375 3.43062V3.43056ZM8.45832 13.0683H5.84206L5.83334 8.38979H8.45833L8.45832 13.0683ZM14.5833 13.0683H9.65699L9.62496 8.38979H14.5833L14.5833 13.0683ZM14.5833 7.22016H5.83333V4.8809H14.5833V7.22016Z" fill="white" />
</svg>