<svg width="16" height="16" viewBox="0 0 16 16" fill="none" xmlns="http://www.w3.org/2000/svg">
    <path fill-rule="evenodd" clip-rule="evenodd" d="M2 0C0.895429 0 0 0.898536 0 2.00701V11.3732C0 12.4817 0.895429 13.3802 2 13.3802H3.85737C4.01128 13.3802 4.16037 13.4337 4.27957 13.5315L6.73349 15.5463C7.47031 16.1512 8.52969 16.1512 9.26651 15.5463L11.7204 13.5315C11.8396 13.4337 11.9887 13.3802 12.1426 13.3802H14C15.1046 13.3802 16 12.4817 16 11.3732V2.00701C16 0.898536 15.1046 0 14 0L2 0ZM8 4.01397C7.26363 4.01397 6.66663 4.61308 6.66663 5.35202V6.03024C6.66663 6.39978 6.3682 6.69932 6 6.69932C5.6318 6.69932 5.33337 6.39978 5.33337 6.03024V5.35202C5.33337 3.87403 6.52723 2.67592 8 2.67592H8.07511C9.50637 2.67592 10.6666 3.84032 10.6666 5.27668C10.6666 5.96641 10.3936 6.6279 9.9076 7.11549L9.24063 7.78492C8.80814 8.21885 8.66663 8.77308 8.66663 9.36605C8.66663 9.73559 8.3682 10.035 8 10.035C7.6318 10.035 7.33337 9.73559 7.33337 9.36605C7.33337 8.41783 7.61507 7.52397 8.29777 6.83872L8.96485 6.16941C9.20079 5.93269 9.33337 5.6115 9.33337 5.27668C9.33337 4.57925 8.76997 4.01397 8.07511 4.01397H8ZM8 12.0419C8.3682 12.0419 8.66663 11.7424 8.66663 11.3729C8.66663 11.0034 8.3682 10.704 8 10.704C7.6318 10.704 7.33337 11.0034 7.33337 11.3729C7.33337 11.7424 7.6318 12.0419 8 12.0419Z" fill="#67BC2A" />
</svg>