<svg width="136" height="128" viewBox="0 0 136 128" fill="none" xmlns="http://www.w3.org/2000/svg">
<path d="M81.4353 13.7539C81.4353 18.8356 80.8777 24.0351 79.1493 27.9295C78.2905 29.8646 77.1622 31.4325 75.7121 32.516C74.2741 33.5905 72.4623 34.2323 70.1467 34.2323C65.0766 34.2323 61.8461 31.5119 59.8933 27.5828C57.9138 23.5999 57.2893 18.4214 57.5661 13.8139C57.838 9.28743 59.2855 6.19942 61.4322 4.23652C63.5847 2.26833 66.5702 1.3125 70.1467 1.3125C76.9752 1.3125 81.4353 6.75609 81.4353 13.7539Z" stroke="black" stroke-width="2"/>
<path d="M40.3653 126.022C40.3653 126.022 40.891 114.353 39.4213 107.102C38.5726 102.915 36.9498 100.835 36.3301 96.6082C35.6899 92.2419 35.8892 89.6989 36.3301 85.308C37.0186 78.4505 38.7892 74.8271 40.8112 68.2385C42.232 63.609 44.7896 56.4938 44.7896 56.4938" stroke="black" stroke-width="2" stroke-linecap="round"/>
<path d="M58.3354 34.1594C58.3354 34.1594 52.5594 34.8099 50.0966 36.1881C47.7956 37.4757 43.4186 39.0012 41.0985 41.2843C39.1968 43.1558 28.5336 50.5105 25.4524 64.1381C21.6751 80.8439 22.6923 103.236 22.6923 103.236" stroke="black" stroke-width="2"/>
<line x1="57.7299" y1="34.2305" x2="81.8041" y2="34.3574" stroke="black" stroke-width="2"/>
<path d="M69.3789 108.074L69.3789 125.968" stroke="black" stroke-width="2" stroke-linecap="round"/>
<path d="M22.7614 102.406L22.6952 106.01L22.7614 108.239L23.4724 110.335C23.4724 110.335 24.9596 112.655 27.1142 113.527C29.1077 114.335 30.473 114.241 32.6051 113.957C37.7719 113.27 37.6936 101.149 37.6936 101.149" stroke="black" stroke-width="2"/>
<path d="M97.5542 125.968C97.5542 125.968 97.0478 114.298 98.4634 107.048C99.2808 102.86 100.844 100.781 101.441 96.5536C102.057 92.1872 101.865 89.6442 101.441 85.2533C100.778 78.3958 99.0722 74.7724 97.1246 68.1838C95.7562 63.5544 93.2928 56.4392 93.2928 56.4392" stroke="black" stroke-width="2" stroke-linecap="round"/>
<path d="M81.6146 34.3472C81.6146 34.3472 85.8079 34.7572 88.18 36.1354C90.3963 37.423 94.6121 38.9485 96.8468 41.2316C98.6785 43.1031 108.949 50.4578 111.917 64.0854C115.555 80.7912 114.575 103.183 114.575 103.183" stroke="black" stroke-width="2"/>
<path d="M114.509 102.351L114.573 105.955L114.509 108.184L113.825 110.28C113.825 110.28 112.392 112.6 110.317 113.473C108.397 114.28 107.082 114.186 105.028 113.902C100.052 113.215 100.127 101.095 100.127 101.095" stroke="black" stroke-width="2"/>
</svg>
