<svg width="21" height="21" viewBox="0 0 21 21" fill="none" xmlns="http://www.w3.org/2000/svg">
<path fill-rule="evenodd" clip-rule="evenodd" d="M16.7161 7.9987C16.7161 11.3989 14.1706 14.2046 10.8812 14.6139C10.8823 14.6309 10.8828 14.6481 10.8828 14.6654V16.332H11.7161C12.1764 16.332 12.5495 16.7051 12.5495 17.1654C12.5495 17.6256 12.1764 17.9987 11.7161 17.9987H10.8828V18.832C10.8828 19.2923 10.5097 19.6654 10.0495 19.6654C9.58923 19.6654 9.21615 19.2923 9.21615 18.832V17.9987H8.38281C7.92258 17.9987 7.54948 17.6256 7.54948 17.1654C7.54948 16.7051 7.92258 16.332 8.38281 16.332H9.21615V14.6654C9.21615 14.6481 9.21665 14.6309 9.21773 14.6139C5.92836 14.2046 3.38281 11.3989 3.38281 7.9987C3.38281 4.3168 6.36758 1.33203 10.0495 1.33203C13.7314 1.33203 16.7161 4.3168 16.7161 7.9987ZM5.05252 7.9987C5.05252 10.7584 7.28974 12.9956 10.0495 12.9956C12.8092 12.9956 15.0464 10.7584 15.0464 7.9987C15.0464 5.23896 12.8092 3.00174 10.0495 3.00174C7.28974 3.00174 5.05252 5.23896 5.05252 7.9987Z" fill="#FF048C"/>
</svg>
