<svg width="21" height="21" viewBox="0 0 21 21" fill="none" xmlns="http://www.w3.org/2000/svg">
    <path d="M18.862 10.388C18.862 11.4824 18.6464 12.566 18.2276 13.577C17.8088 14.5881 17.1951 15.5068 16.4212 16.2806C15.6474 17.0544 14.7287 17.6682 13.7176 18.087C12.7066 18.5058 11.623 18.7214 10.5286 18.7214C9.43431 18.7214 8.35066 18.5058 7.33962 18.087C6.32857 17.6682 5.40991 17.0544 4.63609 16.2806C3.86227 15.5068 3.24844 14.5881 2.82965 13.577C2.41086 12.566 2.19531 11.4824 2.19531 10.388C2.19531 9.29369 2.41086 8.21004 2.82965 7.19899C3.24844 6.18795 3.86227 5.26929 4.63609 4.49546C5.40991 3.72165 6.32857 3.10781 7.33962 2.68902C8.35066 2.27024 9.43431 2.05469 10.5286 2.05469C11.623 2.05469 12.7066 2.27024 13.7176 2.68903C14.7287 3.10781 15.6474 3.72165 16.4212 4.49546C17.1951 5.26929 17.8088 6.18795 18.2276 7.199C18.6464 8.21004 18.862 9.29369 18.862 10.388Z" stroke="#828282" stroke-width="2" />
    <path d="M13.862 10.388C13.862 11.4824 13.7757 12.566 13.6082 13.577C13.4407 14.5881 13.1952 15.5068 12.8856 16.2806C12.5761 17.0544 12.2086 17.6682 11.8042 18.087C11.3998 18.5058 10.9664 18.7214 10.5286 18.7214C10.0909 18.7214 9.65748 18.5058 9.25306 18.087C8.84861 17.6682 8.48115 17.0544 8.17162 16.2806C7.8621 15.5068 7.61656 14.5881 7.44905 13.577C7.28153 12.566 7.19531 11.4824 7.19531 10.388C7.19531 9.29369 7.28153 8.21004 7.44905 7.19899C7.61656 6.18795 7.8621 5.26929 8.17162 4.49546C8.48115 3.72165 8.84861 3.10781 9.25306 2.68902C9.65748 2.27024 10.0909 2.05469 10.5286 2.05469C10.9664 2.05469 11.3998 2.27024 11.8042 2.68903C12.2086 3.10781 12.5761 3.72165 12.8856 4.49546C13.1952 5.26929 13.4407 6.18795 13.6082 7.199C13.7757 8.21004 13.862 9.29369 13.862 10.388Z" stroke="#828282" stroke-width="2" />
    <path d="M2.19531 10.3867H18.862" stroke="#828282" stroke-width="2" stroke-linecap="round" />
</svg>