<svg width="24" height="22" viewBox="0 0 24 22" fill="none" xmlns="http://www.w3.org/2000/svg">
<path d="M22.5086 5.1606C22.1658 4.36706 21.6717 3.64796 21.0537 3.04355C20.4353 2.43735 19.7062 1.95561 18.906 1.62452C18.0763 1.27984 17.1863 1.10342 16.2878 1.10549C15.0273 1.10549 13.7975 1.45066 12.7287 2.10265C12.4731 2.25861 12.2302 2.42992 12 2.61657C11.7699 2.42992 11.527 2.25861 11.2714 2.10265C10.2026 1.45066 8.97277 1.10549 7.71226 1.10549C6.80459 1.10549 5.92504 1.27935 5.09408 1.62452C4.29124 1.95691 3.56766 2.43503 2.94635 3.04355C2.32759 3.64728 1.83331 4.36655 1.49152 5.1606C1.13612 5.98645 0.95459 6.86344 0.95459 7.766C0.95459 8.61742 1.12845 9.50463 1.47362 10.4072C1.76254 11.1615 2.17675 11.9438 2.70601 12.7339C3.54465 13.9842 4.69777 15.2882 6.12959 16.61C8.50232 18.8012 10.852 20.3149 10.9517 20.3762L11.5577 20.7649C11.8262 20.9362 12.1714 20.9362 12.4398 20.7649L13.0458 20.3762C13.1455 20.3123 15.4927 18.8012 17.8679 16.61C19.2998 15.2882 20.4529 13.9842 21.2915 12.7339C21.8208 11.9438 22.2375 11.1615 22.5239 10.4072C22.8691 9.50463 23.0429 8.61742 23.0429 7.766C23.0455 6.86344 22.864 5.98645 22.5086 5.1606ZM12 18.7424C12 18.7424 2.89777 12.9103 2.89777 7.766C2.89777 5.1606 5.05317 3.04867 7.71226 3.04867C9.58129 3.04867 11.2023 4.09185 12 5.61571C12.7978 4.09185 14.4188 3.04867 16.2878 3.04867C18.9469 3.04867 21.1023 5.1606 21.1023 7.766C21.1023 12.9103 12 18.7424 12 18.7424Z" fill="#141414"/>
</svg>
