<svg width="69" height="68" viewBox="0 0 69 68" fill="none" xmlns="http://www.w3.org/2000/svg">
<rect x="0.914062" width="68" height="68" rx="8" fill="white"/>
<g clipPath="url(#clip0_608_146)">
<path d="M24.4751 16.7007C23.6548 18.5925 23.2697 20.4842 23.2697 22.3257C23.2697 28.4362 27.5889 33.4418 34.3188 33.4418C41.0488 33.4418 45.3679 28.4362 45.3679 22.3257C45.3679 20.4842 44.9829 18.5925 44.1793 16.7007C43.8111 15.8971 42.8568 15.78 42.2206 16.4329L38.4706 20.2498L35.2731 16.1148C34.7541 15.4451 33.8835 15.4451 33.3813 16.1148L30.1838 20.2498L26.417 16.4329C25.7809 15.78 24.8266 15.8971 24.4751 16.7007ZM32.9795 50.4843C32.9795 51.2375 33.5655 51.7398 34.3188 51.7398C42.9739 51.7398 50.9259 46.3994 53.5376 38.8994C53.9059 37.8781 53.5208 37.2253 52.4326 37.2253C43.8779 37.2253 37.7172 42.2475 35.2396 48.5924L35.6749 49.1617V31.751H32.9795V50.4843ZM30.6861 44.0891C27.5387 40.0043 22.4996 37.2253 16.1548 37.2253C15.0666 37.2253 14.6815 37.8781 15.0498 38.8994C17.2931 45.395 23.5208 50.2833 30.8199 51.4384C30.7362 51.1538 30.6861 50.819 30.6861 50.4843V44.0891Z" fill="#262626"/>
</g>
<defs>
<clipPath id="clip0_608_146">
<rect width="38.7593" height="36.3114" fill="white" transform="translate(14.9141 15.4285)"/>
</clipPath>
</defs>
</svg>
