<svg width="69" height="68" viewBox="0 0 69 68" fill="none" xmlns="http://www.w3.org/2000/svg">
<rect x="0.914062" width="68" height="68" rx="8" fill="white"/>
<g clip-path="url(#clip0_608_156)">
<path d="M52.165 25.7807L39.1545 19.827C37.799 19.2157 36.6959 18.9233 35.5928 18.9499C34.5031 18.9233 33.4 19.2157 32.0312 19.827L19.034 25.7807C18.1835 26.1662 17.7715 26.8439 17.7715 27.5217C17.7715 28.1994 18.1835 28.864 19.034 29.2627L24.5093 31.7611L32.9217 27.8141C32.8419 27.7211 32.8153 27.6147 32.8153 27.5217C32.8153 26.6844 34.224 26.0465 35.646 26.0465C37.0812 26.0465 38.4634 26.6844 38.4634 27.5217C38.4634 28.3855 37.0812 29.0367 35.646 29.0367C35.2075 29.0367 34.7689 28.9702 34.3835 28.864L26.3566 32.6249L32.0312 35.2297C33.4 35.8542 34.5031 36.1201 35.5928 36.1068C36.6959 36.1201 37.799 35.8542 39.1545 35.2297L52.165 29.2627C53.0155 28.864 53.4275 28.1994 53.4275 27.5217C53.4275 26.8439 53.0155 26.1662 52.165 25.7807ZM26.3034 34.5918V42.6719C28.5361 44.0274 31.7256 44.8513 35.5928 44.8513C43.4337 44.8513 48.4837 41.4891 48.4837 37.5155V32.9438L39.9119 36.8643C38.357 37.582 36.9484 37.9408 35.5928 37.9275C34.2505 37.9408 32.8286 37.582 31.2737 36.8643L26.3034 34.5918ZM22.7152 32.9438V37.5155C22.7152 38.6717 23.3797 40.1069 24.5758 41.3296V33.8077L22.7152 32.9438ZM24.5758 45.755H26.3034V42.6719C25.6389 42.2732 25.0542 41.8214 24.5758 41.3296V45.755ZM23.5259 45.8481V49.3433C23.5259 50.3932 24.2037 51.0709 25.2535 51.0709H25.6124C26.6622 51.0709 27.34 50.3932 27.34 49.3433V45.8481C27.34 44.7982 26.6622 44.1204 25.6124 44.1204H25.2535C24.2037 44.1204 23.5259 44.7982 23.5259 45.8481Z" fill="#262626"/>
</g>
<defs>
<clipPath id="clip0_608_156">
<rect width="40" height="40" fill="white" transform="translate(14.9141 14)"/>
</clipPath>
</defs>
</svg>
