<svg width="69" height="68" viewBox="0 0 69 68" fill="none" xmlns="http://www.w3.org/2000/svg">
<rect x="0.914062" width="68" height="68" rx="8" fill="white"/>
<path d="M29.2231 52.8226C30.6294 52.8226 31.4999 52.0357 31.4832 50.663L31.1484 31.8627C31.1484 31.2769 31.3995 30.8416 31.9184 30.6071C34.1283 29.6361 35.0825 28.615 34.9653 25.6853L34.4966 15.4062C34.4631 14.6696 34.0278 14.2511 33.3414 14.2511C32.6885 14.2511 32.2867 14.6864 32.2867 15.4397L32.4039 25.4342C32.4039 26.0201 32.0356 26.3884 31.4832 26.3884C30.914 26.3884 30.5122 26.0368 30.5122 25.4844L30.3448 15.1384C30.328 14.4185 29.9095 14 29.2231 14C28.5367 14 28.135 14.4185 28.1182 15.1384L27.9508 25.4844C27.9508 26.0368 27.549 26.3884 26.9798 26.3884C26.4274 26.3884 26.0423 26.0201 26.0423 25.4342L26.1595 15.4397C26.1595 14.6864 25.7745 14.2511 25.1048 14.2511C24.4184 14.2511 23.9832 14.6696 23.9497 15.4062L23.4977 25.6853C23.3637 28.615 24.318 29.6361 26.5278 30.6071C27.0468 30.8416 27.2979 31.2769 27.2979 31.8627L26.9798 50.663C26.9631 52.0357 27.8169 52.8226 29.2231 52.8226ZM42.3146 38.2243L41.9631 50.5793C41.9129 52.0357 42.8001 52.8226 44.1896 52.8226C45.6126 52.8226 46.4832 52.1027 46.4832 50.7634V15.2556C46.4832 14.4018 45.8972 14 45.2945 14C44.6584 14 44.2399 14.3348 43.7042 15.1217C41.0088 18.9051 39.2344 25.9866 39.2344 32.683V33.5033C39.2344 34.6584 39.6528 35.5123 40.4899 36.0647L41.4776 36.7344C42.0802 37.1529 42.3481 37.6217 42.3146 38.2243Z" fill="#262626"/>
</svg>
