<svg width="69" height="68" viewBox="0 0 69 68" fill="none" xmlns="http://www.w3.org/2000/svg">
<rect x="0.914062" width="68" height="68" rx="8" fill="white"/>
<path d="M25.8177 51.3213H43.5966C47.0454 51.3213 48.7864 49.5635 48.7864 46.0813V20.6852C48.7864 17.1863 47.0621 15.4285 43.5966 15.4285H39.3445C38.7752 15.4285 38.3902 15.8303 38.3902 16.4329C38.3902 16.5166 38.3902 16.6003 38.3902 16.6673C38.3902 18.8436 36.9169 20.1495 34.7072 20.1495C32.4973 20.1495 31.0241 18.8436 31.0241 16.6673C31.0241 16.6003 31.0241 16.5166 31.0241 16.4329C31.0241 15.8303 30.6391 15.4285 30.0699 15.4285H25.8177C22.3523 15.4285 20.6279 17.1863 20.6279 20.6852V46.0813C20.6279 49.5635 22.369 51.3213 25.8177 51.3213ZM28.3623 27.9006C27.7596 27.9006 27.3244 27.4486 27.3244 26.8459C27.3244 26.2767 27.7596 25.8247 28.3623 25.8247H41.0688C41.6548 25.8247 42.0899 26.2767 42.0899 26.8459C42.0899 27.4486 41.6548 27.9006 41.0688 27.9006H28.3623ZM28.3623 33.8436C27.7596 33.8436 27.3244 33.3916 27.3244 32.8225C27.3244 32.2365 27.7596 31.7845 28.3623 31.7845H34.3723C34.9751 31.7845 35.4104 32.2365 35.4104 32.8225C35.4104 33.3916 34.9751 33.8436 34.3723 33.8436H28.3623Z" fill="#262626"/>
</svg>
