<svg width="69" height="68" viewBox="0 0 69 68" fill="none" xmlns="http://www.w3.org/2000/svg">
<rect x="0.914062" width="68" height="68" rx="8" fill="white"/>
<path d="M18.4467 41.2251C19.6468 41.2251 20.5654 40.3065 20.5654 39.1361V27.935C20.5654 26.7497 19.6468 25.8163 18.4467 25.8163C17.2614 25.8163 16.3428 26.7497 16.3428 27.935V39.1361C16.3428 40.3065 17.2614 41.2251 18.4467 41.2251ZM25.4844 44.4996C27.4549 44.4996 28.8328 43.1809 28.8328 41.314V25.7718C28.8328 23.8902 27.4549 22.5715 25.4844 22.5715C23.5286 22.5715 22.1507 23.8902 22.1507 25.7718V41.314C22.1507 43.1809 23.5286 44.4996 25.4844 44.4996ZM30.5515 36.3951H39.7524V30.676H30.5515V36.3951ZM44.8195 44.4996C46.7901 44.4996 48.168 43.1809 48.168 41.314V25.7718C48.168 23.8902 46.7901 22.5715 44.8195 22.5715C42.8638 22.5715 41.4859 23.8902 41.4859 25.7718V41.314C41.4859 43.1809 42.8638 44.4996 44.8195 44.4996ZM51.7091 41.2251C52.8944 41.2251 53.8278 40.3065 53.8278 39.1361V27.935C53.8278 26.7497 52.8944 25.8163 51.7091 25.8163C50.5238 25.8163 49.6052 26.7497 49.6052 27.935V39.1361C49.6052 40.3065 50.5238 41.2251 51.7091 41.2251Z" fill="#262626"/>
</svg>
