<svg width="69" height="68" viewBox="0 0 69 68" fill="none" xmlns="http://www.w3.org/2000/svg">
<rect x="0.914062" width="68" height="68" rx="8" fill="white"/>
<path d="M29.2837 54.5581H39.5125C45.3384 54.5581 48.2179 51.6117 48.1676 45.7188C48.1006 38.989 48.0672 34.1005 47.8998 30.4342C47.4144 19.653 44.3842 16.4889 34.4065 16.4889C24.4288 16.4889 21.3819 19.653 20.8964 30.4342C20.729 34.1005 20.6955 38.989 20.6286 45.7188C20.5784 51.6117 23.4578 54.5581 29.2837 54.5581ZM28.7982 47.912C27.3585 47.912 26.4377 46.9744 26.4377 45.5682V36.9298C26.4377 35.5068 27.3585 34.5692 28.7982 34.5692H40.0148C41.4378 34.5692 42.3585 35.5068 42.3585 36.9298V45.5682C42.3585 46.9744 41.4378 47.912 40.0148 47.912H28.7982ZM26.4377 41.0147H42.3585V39.0224H26.4377V41.0147ZM34.4065 12.5715C31.1922 12.5715 28.9321 14.7479 28.9321 17.711H31.2926C31.2926 16.0872 32.565 14.932 34.4065 14.932C36.2312 14.932 37.5204 16.0872 37.5204 17.711H39.8808C39.8808 14.7479 37.6041 12.5715 34.4065 12.5715Z" fill="#262626"/>
</svg>
