<svg width="16" height="17" viewBox="0 0 16 17" fill="none" xmlns="http://www.w3.org/2000/svg">
    <path d="M1.90377 16.3982H10.1526C10.8258 16.3982 11.4713 16.1514 11.9472 15.7121C12.4233 15.2728 12.6907 14.677 12.6907 14.0556V11.1099L12.0561 11.4466C11.86 11.5512 11.645 11.6226 11.4216 11.6574V14.0556C11.4216 14.3662 11.2879 14.6642 11.05 14.8839C10.8119 15.1035 10.4891 15.2269 10.1526 15.2269H7.29722V8.78481H10.4698V9.92682C10.4701 10.136 10.5911 10.3291 10.7874 10.4335C10.9837 10.5381 11.2255 10.538 11.4216 10.4334L14.7782 8.64429C14.9739 8.53944 15.0943 8.3465 15.0943 8.13772C15.0943 7.92882 14.974 7.73586 14.7782 7.63101L11.4216 5.85656C11.2254 5.75199 10.9837 5.75199 10.7874 5.85643C10.5911 5.96088 10.4701 6.15396 10.4698 6.36314V7.61351H7.29722V3.95907C7.29736 3.73814 7.22994 3.52154 7.10247 3.33446C6.975 3.14753 6.79286 2.99746 6.57702 2.90189L2.85545 1.2533C2.77811 1.2214 2.69852 1.19408 2.6175 1.17134H10.1524C10.4889 1.17134 10.8117 1.29474 11.0498 1.51436C11.2877 1.73411 11.4214 2.03204 11.4214 2.34264V4.6179C11.6448 4.65267 11.8598 4.72418 12.0559 4.82876L12.6905 5.16549V2.34259C12.6905 1.72127 12.4231 1.12542 11.947 0.686179C11.4711 0.246809 10.8255 0 10.1524 0H2.53809C1.86492 0 1.21934 0.246809 0.743444 0.686179C0.267406 1.12542 0 1.72127 0 2.34259V14.6412C0 15.1073 0.200553 15.5541 0.557474 15.8836C0.914537 16.2131 1.39863 16.3982 1.90357 16.3982L1.90377 16.3982Z" fill="#67BC2A" />
</svg>