<svg width="72" height="122" viewBox="0 0 72 122" fill="none" xmlns="http://www.w3.org/2000/svg">
<path d="M47.5369 14.0391C47.5369 19.1207 46.9793 24.3203 45.2509 28.2147C44.3921 30.1497 43.2638 31.7176 41.8137 32.8012C40.3757 33.8757 38.5639 34.5175 36.2483 34.5175C31.1781 34.5175 27.9477 31.7971 25.9949 27.8679C24.0154 23.8851 23.3908 18.7065 23.6676 14.0991C23.9396 9.57259 25.387 6.48458 27.5338 4.52167C29.6863 2.55349 32.6717 1.59766 36.2483 1.59766C43.0767 1.59766 47.5369 7.04124 47.5369 14.0391Z" stroke="black" stroke-width="2"/>
<path d="M1.98894 108.857L1.9873 86.9106L3.62788 68.7833L5.3026 58.9319" stroke="black" stroke-width="2"/>
<path d="M23.7086 40.5979C23.7086 40.5979 19.5225 42.0509 17.0598 43.4291C14.7588 44.7167 13.4101 45.4539 11.5284 47.3011C9.62426 49.1701 8.75238 50.467 7.51806 52.8325C6.19693 55.3644 5.18865 59.7643 5.18865 59.7643" stroke="black" stroke-width="2"/>
<path d="M17.9179 61.6806C17.9134 61.1283 17.4621 60.6843 16.9098 60.6888C16.3576 60.6933 15.9135 61.1446 15.918 61.6969L17.9179 61.6806ZM16.3749 70.3214L17.3553 70.5185L16.3749 70.3214ZM13.9488 85.5596L12.9571 85.4307L12.9529 85.463L12.9508 85.4955L13.9488 85.5596ZM13.4949 98.6092L12.4949 98.6092L12.4949 98.6397L12.4968 98.6701L13.4949 98.6092ZM13.9488 106.038L12.9506 106.099L12.953 106.137L12.9582 106.175L13.9488 106.038ZM13.4949 92.6272L12.497 92.5631L12.4949 92.5951L12.4949 92.6272L13.4949 92.6272ZM17.3553 70.5185C17.6679 68.9632 17.8048 66.7315 17.8669 64.9398C17.8983 64.0331 17.9111 63.22 17.916 62.6335C17.9184 62.34 17.9189 62.1029 17.9188 61.9386C17.9188 61.8565 17.9185 61.7925 17.9183 61.7488C17.9182 61.727 17.9181 61.7102 17.9181 61.6987C17.918 61.693 17.918 61.6886 17.918 61.6856C17.918 61.684 17.918 61.6829 17.918 61.682C17.918 61.6816 17.9179 61.6813 17.9179 61.681C17.9179 61.6809 17.9179 61.6808 17.9179 61.6807C17.9179 61.6806 17.9179 61.6806 16.918 61.6887C15.918 61.6969 15.918 61.6968 15.918 61.6968C15.918 61.6969 15.918 61.6969 15.918 61.6969C15.918 61.697 15.918 61.6972 15.918 61.6975C15.918 61.698 15.918 61.6989 15.918 61.7002C15.9181 61.7026 15.9181 61.7064 15.9181 61.7116C15.9182 61.7219 15.9183 61.7375 15.9184 61.7581C15.9186 61.7993 15.9188 61.8607 15.9188 61.9401C15.9189 62.099 15.9185 62.33 15.9161 62.6167C15.9113 63.1905 15.8988 63.9856 15.8681 64.8705C15.8061 66.6618 15.6715 68.7465 15.3946 70.1244L17.3553 70.5185ZM13.9488 85.5596C14.9404 85.6884 14.9404 85.6884 14.9405 85.6884C14.9405 85.6883 14.9405 85.6883 14.9405 85.6881C14.9405 85.6879 14.9406 85.6875 14.9406 85.687C14.9408 85.686 14.941 85.6844 14.9412 85.6823C14.9418 85.6781 14.9426 85.6718 14.9437 85.6633C14.9459 85.6465 14.9492 85.6212 14.9536 85.5879C14.9624 85.5213 14.9754 85.4226 14.9925 85.2945C15.0266 85.0385 15.0769 84.6653 15.1411 84.1978C15.2696 83.2626 15.454 81.9501 15.6778 80.4421C16.1259 77.4222 16.7295 73.6328 17.3553 70.5185L15.3946 70.1244C14.7584 73.2896 14.1489 77.1193 13.6994 80.1486C13.4744 81.6651 13.2889 82.9848 13.1597 83.9256C13.0951 84.396 13.0445 84.7718 13.01 85.0302C12.9928 85.1594 12.9796 85.2593 12.9707 85.327C12.9663 85.3608 12.9629 85.3866 12.9606 85.4041C12.9595 85.4128 12.9586 85.4194 12.958 85.4238C12.9577 85.426 12.9575 85.4277 12.9574 85.4289C12.9573 85.4295 12.9572 85.4299 12.9572 85.4302C12.9572 85.4304 12.9572 85.4305 12.9571 85.4306C12.9571 85.4307 12.9571 85.4307 13.9488 85.5596ZM15.8126 112.21L14.9393 105.901L12.9582 106.175L13.8315 112.484L15.8126 112.21ZM14.9469 105.977L14.493 98.5482L12.4968 98.6701L12.9506 106.099L14.9469 105.977ZM14.4949 98.6092L14.4949 92.6272L12.4949 92.6272L12.4949 98.6092L14.4949 98.6092ZM14.4928 92.6913L14.9467 85.6237L12.9508 85.4955L12.497 92.5631L14.4928 92.6913Z" fill="black"/>
<path d="M69.3809 106.539L69.9279 88.256L69.382 72.7124L68.2354 64.8131L66.6936 58.3437" stroke="black" stroke-width="2"/>
<path d="M56.0898 110.672C56.9634 99.9201 58.4341 97.8255 57.5261 88.5858C56.8871 82.0256 56.2901 77.0726 55.089 70.5917C54.4283 67.0265 54.2367 61.2244 54.2367 61.2244" stroke="black" stroke-width="2" stroke-linecap="round"/>
<path d="M46.9448 40.6297C49.5456 41.8434 51.6742 41.9919 54.0929 43.537C56.0904 44.8131 59.2531 47.0409 59.2531 47.0409C59.2531 47.0409 61.6993 49.2872 62.9482 50.9906C64.9486 53.719 65.8106 55.5471 66.6429 58.8262" stroke="black" stroke-width="2"/>
<line x1="23.3139" y1="40.6367" x2="47.3881" y2="40.7636" stroke="black" stroke-width="2"/>
<path d="M35.4805 108.359L35.4805 118.966" stroke="black" stroke-width="2" stroke-linecap="round"/>
<path d="M1.89844 108.406C2.21972 109.99 2.72113 112.461 2.72113 112.461L4.46632 115.08C4.46632 115.08 5.88817 116.431 6.82782 116.876C7.76747 117.322 10.1411 117.221 10.1411 117.221L12.9398 116.03L13.9888 114.528C13.9888 114.528 14.63 112.705 15.0409 111.537" stroke="black" stroke-width="2"/>
<path d="M69.4785 106.156C69.4785 106.156 68.8068 110.264 68.755 110.928C68.7138 111.456 67.5449 113.292 66.737 114.168C66.0368 114.926 64.5746 115.689 64.5746 115.689C64.5746 115.689 62.591 116.152 61.5445 116.24C60.3493 116.34 59.8144 116.215 58.8997 115.689C57.9777 115.159 57.6386 114.567 57.0833 113.66C56.4356 112.602 56.0302 110.663 56.0302 110.663" stroke="black" stroke-width="2"/>
<path d="M15.4981 120.582C15.5968 121.125 16.1173 121.486 16.6607 121.387C17.2041 121.288 17.5646 120.768 17.466 120.225L15.4981 120.582ZM13.5981 110.116L15.4981 120.582L17.466 120.225L15.5659 109.759L13.5981 110.116Z" fill="black"/>
<path d="M53.4496 119.876C53.3687 120.423 53.746 120.931 54.2923 121.012C54.8386 121.093 55.3471 120.716 55.428 120.17L53.4496 119.876ZM55.1958 115.468L54.2123 115.288L55.1958 115.468ZM56.1713 109.501C55.183 109.348 55.183 109.348 55.183 109.348C55.183 109.348 55.183 109.348 55.183 109.348C55.183 109.348 55.1829 109.348 55.1829 109.348C55.1828 109.349 55.1827 109.35 55.1826 109.351C55.1823 109.353 55.1818 109.356 55.1812 109.36C55.18 109.367 55.1781 109.379 55.1758 109.395C55.171 109.425 55.1639 109.471 55.1548 109.53C55.1365 109.647 55.1101 109.816 55.0773 110.026C55.0118 110.444 54.921 111.02 54.8199 111.653C54.6171 112.921 54.375 114.402 54.2123 115.288L56.1793 115.649C56.3469 114.737 56.5925 113.234 56.7948 111.968C56.8963 111.333 56.9875 110.755 57.0532 110.335C57.0861 110.125 57.1127 109.955 57.131 109.837C57.1402 109.778 57.1473 109.732 57.1521 109.701C57.1545 109.686 57.1564 109.674 57.1576 109.666C57.1582 109.662 57.1587 109.659 57.159 109.657C57.1592 109.656 57.1593 109.655 57.1594 109.654C57.1594 109.654 57.1595 109.654 57.1595 109.654C57.1595 109.654 57.1595 109.654 57.1595 109.654C57.1595 109.654 57.1595 109.653 56.1713 109.501ZM54.2123 115.288C53.9982 116.453 53.8077 117.599 53.6708 118.454C53.6023 118.881 53.5471 119.236 53.509 119.485C53.4899 119.609 53.4752 119.706 53.4651 119.773C53.4601 119.807 53.4562 119.832 53.4536 119.85C53.4523 119.858 53.4514 119.865 53.4507 119.869C53.4504 119.872 53.4501 119.873 53.4499 119.875C53.4498 119.875 53.4498 119.876 53.4497 119.876C53.4497 119.876 53.4497 119.876 53.4497 119.876C53.4497 119.876 53.4497 119.876 53.4496 119.876C53.4496 119.876 53.4496 119.876 54.4388 120.023C55.428 120.17 55.428 120.17 55.428 120.17C55.428 120.17 55.428 120.17 55.428 120.17C55.4281 120.17 55.4281 120.169 55.4281 120.169C55.4281 120.169 55.4282 120.169 55.4282 120.168C55.4284 120.167 55.4286 120.166 55.4289 120.164C55.4295 120.16 55.4305 120.153 55.4317 120.145C55.4342 120.128 55.4379 120.104 55.4428 120.071C55.4526 120.006 55.4671 119.91 55.4859 119.788C55.5234 119.543 55.5779 119.193 55.6456 118.77C55.7811 117.925 55.969 116.794 56.1793 115.649L54.2123 115.288Z" fill="black"/>
</svg>
