<svg width="16" height="13" viewBox="0 0 16 13" fill="none" xmlns="http://www.w3.org/2000/svg">
    <path d="M2.26338 0H13.7366C13.7366 0 16 0 16 2.50836V10.4905C16 10.4905 16 13 13.7366 13H2.26338C2.26338 13 9.53674e-07 13 9.53674e-07 10.4905V2.50872C9.53674e-07 2.50872 1.90735e-06 7.25942e-05 2.26338 7.25942e-05V0ZM2.19451 3.52969L7.18437 7.40192C7.40919 7.57575 7.60837 7.67326 7.78182 7.71821C7.83665 7.73488 7.89723 7.74591 7.96188 7.74944C8.09883 7.75961 8.21577 7.73743 8.31357 7.69983C8.47284 7.64839 8.65125 7.55639 8.85029 7.40178L13.8402 3.52991C13.8402 3.52991 14.8515 2.74457 14.3595 1.96589C14.3595 1.96589 13.8676 1.1879 12.8563 1.97211L8.01728 5.72749L3.17824 1.97211C2.16688 1.1879 1.67475 1.96589 1.67475 1.96589C1.18292 2.74457 2.19427 3.52991 2.19427 3.52991L2.19451 3.52969Z" fill="#67BC2A" />
</svg>