<svg width="33" height="33" viewBox="0 0 33 33" fill="none" xmlns="http://www.w3.org/2000/svg">
<path d="M12.87 10.5616H20.13C20.493 10.5616 20.79 10.2646 20.79 9.90156V8.58156C20.79 7.49256 19.899 6.60156 18.81 6.60156H14.19C13.101 6.60156 12.21 7.49256 12.21 8.58156V9.90156C12.21 10.2646 12.507 10.5616 12.87 10.5616Z" fill="#385898"/>
<path d="M23.7598 8.25H23.0998C22.9018 8.25 22.7698 8.382 22.7698 8.58V9.9C22.7698 11.352 21.5818 12.54 20.1298 12.54H12.8698C11.4178 12.54 10.2298 11.352 10.2298 9.9V8.58C10.2298 8.382 10.0978 8.25 9.89977 8.25H9.23977C8.15077 8.25 7.25977 9.141 7.25977 10.23V24.42C7.25977 25.509 8.15077 26.4 9.23977 26.4H23.7598C24.8488 26.4 25.7398 25.509 25.7398 24.42V10.23C25.7398 9.141 24.8488 8.25 23.7598 8.25ZM22.0438 16.17L15.7078 22.506C15.5428 22.671 15.3448 22.77 15.1138 22.77C14.8828 22.77 14.6518 22.671 14.4868 22.506L10.9558 18.975C10.7908 18.81 10.7908 18.612 10.9558 18.447L11.6488 17.754C11.8138 17.589 12.0118 17.589 12.1768 17.754L15.0808 20.658L20.7898 14.949C20.9548 14.784 21.1528 14.784 21.3178 14.949L22.0108 15.642C22.1758 15.807 22.1758 16.038 22.0438 16.17Z" fill="#385898"/>
</svg>
