<svg width="14" height="15" viewBox="0 0 14 15" fill="none" xmlns="http://www.w3.org/2000/svg">
    <path d="M14 1.70694V4.21329H0V1.70694C0 1.57401 0.05268 1.44645 0.146429 1.35247C0.240177 1.25848 0.367411 1.20567 0.5 1.20567H3.5V2.70948C3.5 2.88861 3.59531 3.05409 3.75 3.14361C3.90469 3.23312 4.09531 3.23312 4.25 3.14361C4.40469 3.05409 4.5 2.88861 4.5 2.70948V1.20567H6.5V2.70948C6.5 2.88861 6.59531 3.05409 6.75 3.14361C6.90469 3.23312 7.09531 3.23312 7.25 3.14361C7.40469 3.05409 7.5 2.88861 7.5 2.70948V1.20567H9.5V2.70948C9.5 2.88861 9.59531 3.05409 9.75 3.14361C9.90469 3.23312 10.0953 3.23312 10.25 3.14361C10.4047 3.05409 10.5 2.88861 10.5 2.70948V1.20567H13.5C13.6326 1.20567 13.7598 1.25848 13.8536 1.35247C13.9473 1.44645 14 1.57401 14 1.70694ZM14 5.21583V13.7374C14 13.8704 13.9473 13.9979 13.8536 14.0919C13.7598 14.1859 13.6326 14.2387 13.5 14.2387H0.5C0.367411 14.2387 0.240177 14.1859 0.146429 14.0919C0.05268 13.9979 0 13.8704 0 13.7374V5.21583H14ZM5 11.2311C5 11.0981 4.94732 10.9706 4.85357 10.8766C4.75982 10.7826 4.63259 10.7298 4.5 10.7298H2.5C2.32132 10.7298 2.15626 10.8254 2.06697 10.9804C1.97769 11.1355 1.97769 11.3266 2.06697 11.4817C2.15626 11.6368 2.32132 11.7323 2.5 11.7323H4.5C4.63259 11.7323 4.75982 11.6795 4.85357 11.5855C4.94732 11.4916 5 11.364 5 11.2311ZM5 9.22599C5 9.09307 4.94732 8.96551 4.85357 8.87152C4.75982 8.77754 4.63259 8.72472 4.5 8.72472H2.5C2.32132 8.72472 2.15626 8.82028 2.06697 8.97536C1.97769 9.13044 1.97769 9.32155 2.06697 9.47663C2.15626 9.63171 2.32132 9.72726 2.5 9.72726H4.5C4.63259 9.72726 4.75982 9.67445 4.85357 9.58046C4.94732 9.48647 5 9.35892 5 9.22599ZM5 7.22091C5 7.08799 4.94732 6.96043 4.85357 6.86644C4.75982 6.77245 4.63259 6.71964 4.5 6.71964H2.5C2.32132 6.71964 2.15626 6.81519 2.06697 6.97027C1.97769 7.12536 1.97769 7.31647 2.06697 7.47155C2.15626 7.62662 2.32132 7.72218 2.5 7.72218H4.5C4.63259 7.72218 4.75982 7.66937 4.85357 7.57538C4.94732 7.48139 5 7.35384 5 7.22091ZM8.5 11.2311C8.5 11.0981 8.44732 10.9706 8.35357 10.8766C8.25982 10.7826 8.13259 10.7298 8 10.7298H6C5.82132 10.7298 5.65626 10.8254 5.56697 10.9804C5.47769 11.1355 5.47769 11.3266 5.56697 11.4817C5.65626 11.6368 5.82132 11.7323 6 11.7323H8C8.13259 11.7323 8.25982 11.6795 8.35357 11.5855C8.44732 11.4916 8.5 11.364 8.5 11.2311ZM8.5 9.22599C8.5 9.09307 8.44732 8.96551 8.35357 8.87152C8.25982 8.77754 8.13259 8.72472 8 8.72472H6C5.82132 8.72472 5.65626 8.82028 5.56697 8.97536C5.47769 9.13044 5.47769 9.32155 5.56697 9.47663C5.65626 9.63171 5.82132 9.72726 6 9.72726H8C8.13259 9.72726 8.25982 9.67445 8.35357 9.58046C8.44732 9.48647 8.5 9.35892 8.5 9.22599ZM8.5 7.22091C8.5 7.08799 8.44732 6.96043 8.35357 6.86644C8.25982 6.77245 8.13259 6.71964 8 6.71964H6C5.82132 6.71964 5.65626 6.81519 5.56697 6.97027C5.47769 7.12536 5.47769 7.31647 5.56697 7.47155C5.65626 7.62662 5.82132 7.72218 6 7.72218H8C8.13259 7.72218 8.25982 7.66937 8.35357 7.57538C8.44732 7.48139 8.5 7.35384 8.5 7.22091ZM12 11.2311C12 11.0981 11.9473 10.9706 11.8536 10.8766C11.7598 10.7826 11.6326 10.7298 11.5 10.7298H9.5C9.32132 10.7298 9.15626 10.8254 9.06697 10.9804C8.97769 11.1355 8.97769 11.3266 9.06697 11.4817C9.15626 11.6368 9.32132 11.7323 9.5 11.7323H11.5C11.6326 11.7323 11.7598 11.6795 11.8536 11.5855C11.9473 11.4916 12 11.364 12 11.2311ZM12 9.22599C12 9.09307 11.9473 8.96551 11.8536 8.87152C11.7598 8.77754 11.6326 8.72472 11.5 8.72472H9.5C9.32132 8.72472 9.15626 8.82028 9.06697 8.97536C8.97769 9.13044 8.97769 9.32155 9.06697 9.47663C9.15626 9.63171 9.32132 9.72726 9.5 9.72726H11.5C11.6326 9.72726 11.7598 9.67445 11.8536 9.58046C11.9473 9.48647 12 9.35892 12 9.22599ZM12 7.22091C12 7.08799 11.9473 6.96043 11.8536 6.86644C11.7598 6.77245 11.6326 6.71964 11.5 6.71964H9.5C9.32132 6.71964 9.15626 6.81519 9.06697 6.97027C8.97769 7.12536 8.97769 7.31647 9.06697 7.47155C9.15626 7.62662 9.32132 7.72218 9.5 7.72218H11.5C11.6326 7.72218 11.7598 7.66937 11.8536 7.57538C11.9473 7.48139 12 7.35384 12 7.22091ZM7 0.203125C6.86741 0.203125 6.74018 0.255939 6.64643 0.349926C6.55268 0.443912 6.5 0.57147 6.5 0.704395V1.20567H7.5V0.704395C7.5 0.57147 7.44732 0.443912 7.35357 0.349926C7.25982 0.255939 7.13259 0.203125 7 0.203125ZM4 0.203125C3.86741 0.203125 3.74018 0.255939 3.64643 0.349926C3.55268 0.443912 3.5 0.57147 3.5 0.704395V1.20567H4.5V0.704395C4.5 0.57147 4.44732 0.443912 4.35357 0.349926C4.25982 0.255939 4.13259 0.203125 4 0.203125ZM10 0.203125C9.86741 0.203125 9.74018 0.255939 9.64643 0.349926C9.55268 0.443912 9.5 0.57147 9.5 0.704395V1.20567H10.5V0.704395C10.5 0.57147 10.4473 0.443912 10.3536 0.349926C10.2598 0.255939 10.1326 0.203125 10 0.203125Z" fill="#67BC2A" />
</svg>