<svg width="251" height="251" viewBox="0 0 251 251" fill="none" xmlns="http://www.w3.org/2000/svg">
<path d="M184.788 51.2163C182.893 50.0663 180.473 50.9613 179.358 52.7863C178.243 54.6113 178.063 56.2863 178.613 58.5463C178.118 57.6588 177.436 56.8891 176.615 56.2901C175.795 55.6911 174.854 55.277 173.858 55.0763C171.768 54.5763 169.408 55.6863 168.883 57.8463C168.626 59.1819 168.881 60.5653 169.598 61.7213C170.22 62.9235 171.159 63.9331 172.313 64.6413C176.388 66.8063 178.108 66.7763 182.558 67.6663C185.028 63.8913 185.893 62.8463 187.208 58.4313C187.513 57.1068 187.452 55.7242 187.033 54.4313C186.708 53.1188 185.908 51.9734 184.788 51.2163Z" fill="#F5F5F5"/>
<path d="M29.0021 137.872C29.395 137.434 29.6515 136.891 29.7403 136.309C29.8291 135.728 29.7464 135.133 29.5021 134.597C29.3771 134.225 29.176 133.883 28.9116 133.592C28.6471 133.302 28.3251 133.07 27.9661 132.911C27.607 132.752 27.2188 132.669 26.826 132.668C26.4333 132.667 26.0446 132.748 25.6848 132.905C25.325 133.063 25.0019 133.293 24.7361 133.582C24.4702 133.872 24.2675 134.213 24.1407 134.585C24.014 134.956 23.966 135.35 23.9998 135.742C24.0336 136.133 24.1485 136.513 24.3371 136.857C24.5661 137.406 24.9532 137.875 25.4491 138.203C25.9449 138.532 26.5273 138.706 27.1221 138.702C23.4071 141.062 25.4971 145.302 25.4971 145.302L34.9371 141.187C34.9371 141.187 33.2071 136.722 29.0021 137.872Z" fill="#E0E0E0"/>
<path d="M74.697 43.9075C75.8416 43.7561 76.9169 43.273 77.7903 42.5178C78.6637 41.7626 79.297 40.7683 79.612 39.6575C80.542 36.5225 78.912 33.2775 75.972 32.4075C73.032 31.5375 69.902 33.3725 68.972 36.5075C68.625 37.6215 68.6156 38.8132 68.9448 39.9326C69.274 41.0519 69.9272 42.0488 70.822 42.7975C62.267 41.6275 60.042 50.6575 60.042 50.6575L79.402 56.3925C79.402 56.3925 82.467 47.5025 74.697 43.9075Z" fill="#EBEBEB"/>
<path d="M211.212 62.0143C210.871 61.7196 210.428 61.5698 209.977 61.5969C209.527 61.624 209.105 61.8258 208.802 62.1593C208.498 62.463 208.264 62.8292 208.117 63.2325C207.969 63.6357 207.911 64.0663 207.947 64.4943C207.825 64.0774 207.613 63.6921 207.328 63.3649C207.042 63.0377 206.688 62.7765 206.292 62.5993C205.89 62.3882 205.422 62.3417 204.986 62.4695C204.55 62.5973 204.181 62.8895 203.957 63.2843C203.723 63.8175 203.699 64.4196 203.892 64.9693C204.038 65.5294 204.333 66.0393 204.747 66.4443C206.247 67.7293 206.962 67.8743 208.747 68.6643C210.132 67.3243 210.592 66.9693 211.552 65.2543C211.804 64.7322 211.907 64.1512 211.852 63.5743C211.841 62.9926 211.612 62.4362 211.212 62.0143Z" fill="#E0E0E0"/>
<path d="M63.9425 64.4609L64.6025 65.7959L66.0775 66.0109L65.0125 67.0509L65.2625 68.5159L63.9425 67.8259L62.6275 68.5159L62.8775 67.0509L61.8125 66.0109L63.2825 65.7959L63.9425 64.4609Z" fill="#E0E0E0"/>
<path d="M170.172 81.8867L171.367 84.3017L174.032 84.6917L172.102 86.5717L172.557 89.2267L170.172 87.9717L167.787 89.2267L168.247 86.5717L166.317 84.6917L168.982 84.3017L170.172 81.8867Z" fill="#E0E0E0"/>
<path d="M54.1872 94.6094L54.5122 95.2744L55.2522 95.3844L54.7172 95.9044L54.8422 96.6344L54.1872 96.2894L53.5272 96.6344L53.6522 95.9044L53.1172 95.3844L53.8572 95.2744L54.1872 94.6094Z" fill="#E0E0E0"/>
<path d="M147.832 211.432C139.427 205.562 137.522 194.667 137.832 184.872C137.887 183.237 137.707 181.512 138.482 180.077C139.257 178.642 141.077 177.667 142.537 178.352C143.752 178.927 144.282 180.352 144.962 181.507C145.87 183.064 147.2 184.333 148.797 185.167C149.837 185.707 151.127 186.037 152.152 185.472C153.562 184.692 153.727 182.747 153.717 181.117C153.717 178.087 153.699 175.057 153.662 172.027C153.662 170.402 153.662 168.742 154.162 167.197C154.662 165.652 155.787 164.222 157.332 163.787C158.877 163.352 160.792 164.247 161.117 165.837C161.181 166.51 161.198 167.187 161.167 167.862C161.212 168.537 161.527 169.287 162.167 169.472C162.807 169.657 163.467 169.202 163.952 168.727C165.632 167.087 166.767 164.972 167.832 162.867C168.897 160.762 169.932 158.612 171.452 156.817C172.972 155.022 175.082 153.612 177.412 153.477C179.742 153.342 182.222 154.782 182.807 157.067C183.392 159.352 182.062 161.687 180.607 163.542C178.448 166.297 175.902 168.723 173.047 170.747C172.494 171.056 172.053 171.532 171.787 172.107C171.432 173.187 172.457 174.267 173.532 174.607C174.742 175.012 176.032 174.887 177.322 175.032C178.612 175.177 179.967 175.742 180.447 176.942C181.112 178.602 179.722 180.347 178.352 181.487C175.614 183.774 172.501 185.57 169.152 186.797C167.957 187.237 166.697 187.617 165.732 188.462C164.767 189.307 164.187 190.762 164.767 191.907C165.347 193.052 166.847 193.407 168.102 193.187C169.357 192.967 170.477 192.277 171.667 191.822C173.902 190.982 176.787 191.137 178.222 193.067C179.162 194.337 179.222 196.102 178.767 197.617C178.219 199.101 177.381 200.461 176.302 201.617C172.76 205.87 168.153 209.107 162.952 210.997C157.767 212.792 152.952 213.282 147.817 211.397" fill="#EBEBEB"/>
<path d="M147.702 218.691C148.157 214.15 149.047 209.663 150.357 205.291C151.983 199.956 153.915 194.719 156.142 189.606L157.867 185.571C158.437 184.246 159.002 182.936 159.637 181.686C160.854 179.292 162.203 176.966 163.677 174.721C165.072 172.566 166.472 170.571 167.797 168.721C169.122 166.871 170.392 165.166 171.617 163.666C173.545 161.283 175.658 159.056 177.937 157.006C178.742 156.281 179.382 155.736 179.822 155.376L180.322 154.971C180.378 154.921 180.438 154.876 180.502 154.836C180.454 154.893 180.401 154.945 180.342 154.991L179.842 155.421C179.417 155.801 178.792 156.356 178.002 157.091C175.768 159.168 173.692 161.409 171.792 163.796C170.582 165.296 169.322 167.011 168.007 168.866C166.692 170.721 165.302 172.721 163.917 174.866C162.462 177.11 161.126 179.43 159.917 181.816C159.292 183.061 158.732 184.361 158.162 185.686C157.592 187.011 157.017 188.356 156.437 189.716C154.215 194.82 152.28 200.045 150.642 205.366C149.325 209.72 148.419 214.188 147.937 218.711" fill="#E0E0E0"/>
<path d="M159.722 181.656C159.644 181.43 159.59 181.197 159.562 180.961C159.477 180.511 159.377 179.861 159.262 179.051C159.032 177.431 158.792 175.186 158.532 172.706C158.272 170.226 158.002 167.991 157.752 166.381C157.627 165.571 157.517 164.921 157.437 164.471C157.382 164.239 157.352 164.003 157.347 163.766C157.438 163.985 157.507 164.213 157.552 164.446C157.667 164.891 157.807 165.541 157.957 166.341C158.267 167.951 158.572 170.191 158.832 172.671C159.092 175.151 159.302 177.331 159.472 179.021C159.552 179.786 159.622 180.431 159.677 180.946C159.718 181.18 159.733 181.418 159.722 181.656Z" fill="#E0E0E0"/>
<path d="M180.627 177.773C180.352 177.831 180.072 177.865 179.792 177.873C179.257 177.918 178.482 177.983 177.522 178.093C175.607 178.303 172.972 178.678 170.087 179.223C167.202 179.768 164.587 180.383 162.742 180.878C161.807 181.118 161.057 181.333 160.537 181.478C160.271 181.568 159.999 181.635 159.722 181.678C159.971 181.549 160.233 181.443 160.502 181.363C161.002 181.183 161.757 180.938 162.687 180.668C164.537 180.123 167.132 179.478 170.032 178.928C172.502 178.449 174.995 178.1 177.502 177.883C178.467 177.798 179.247 177.763 179.787 177.753C180.067 177.728 180.348 177.735 180.627 177.773Z" fill="#E0E0E0"/>
<path d="M150.617 204.909C150.557 204.832 150.508 204.746 150.472 204.654L150.117 203.899C149.807 203.239 149.387 202.274 148.882 201.079C148.102 199.314 147.212 197.079 145.212 191.614C143.842 187.894 142.582 184.534 141.627 182.114L140.487 179.259L140.177 178.479C140.136 178.39 140.107 178.296 140.092 178.199C140.149 178.278 140.196 178.364 140.232 178.454L140.592 179.209C140.897 179.869 141.317 180.834 141.822 182.029C142.822 184.424 144.122 187.779 145.492 191.499C146.862 195.219 148.122 198.574 149.077 200.999C149.547 202.169 149.932 203.134 150.222 203.849C150.342 204.164 150.442 204.419 150.527 204.629C150.568 204.719 150.598 204.813 150.617 204.909Z" fill="#E0E0E0"/>
<path d="M178.397 195.953C178.309 196.003 178.215 196.042 178.117 196.068L177.312 196.338L174.337 197.303C171.837 198.118 168.372 199.303 164.552 200.573C160.732 201.843 157.262 203.003 154.737 203.763C153.472 204.148 152.442 204.443 151.737 204.638L150.912 204.853C150.818 204.884 150.721 204.902 150.622 204.908C150.707 204.856 150.8 204.818 150.897 204.793L151.702 204.523L154.702 203.558C157.202 202.748 160.672 201.583 164.487 200.288C168.302 198.993 171.777 197.863 174.307 197.098C175.567 196.718 176.597 196.418 177.307 196.228L178.132 196.008C178.218 195.979 178.307 195.961 178.397 195.953Z" fill="#E0E0E0"/>
<path d="M132.382 36.5523V42.9923C132.385 43.3414 132.318 43.6875 132.187 44.0107C132.055 44.3339 131.86 44.6279 131.615 44.8756C131.369 45.1233 131.076 45.3199 130.754 45.4541C130.432 45.5883 130.086 45.6574 129.737 45.6573H118.587V49.3423L116.587 45.8423C115.994 45.7982 115.44 45.5314 115.036 45.0955C114.631 44.6596 114.407 44.0869 114.407 43.4923V36.5523C114.407 35.8495 114.686 35.1755 115.183 34.6785C115.68 34.1815 116.354 33.9023 117.057 33.9023H129.737C130.085 33.9023 130.429 33.9709 130.751 34.1042C131.072 34.2374 131.364 34.4327 131.609 34.6788C131.855 34.925 132.05 35.2171 132.182 35.5386C132.315 35.8601 132.383 36.2046 132.382 36.5523Z" fill="#EBEBEB"/>
<path d="M127.397 41.2073C127.999 41.2073 128.487 40.7193 128.487 40.1173C128.487 39.5154 127.999 39.0273 127.397 39.0273C126.795 39.0273 126.307 39.5154 126.307 40.1173C126.307 40.7193 126.795 41.2073 127.397 41.2073Z" fill="#E0E0E0"/>
<path d="M123.257 41.2073C123.859 41.2073 124.347 40.7193 124.347 40.1173C124.347 39.5154 123.859 39.0273 123.257 39.0273C122.655 39.0273 122.167 39.5154 122.167 40.1173C122.167 40.7193 122.655 41.2073 123.257 41.2073Z" fill="#E0E0E0"/>
<path d="M118.027 40.1173C118.027 40.3329 118.091 40.5437 118.211 40.7229C118.331 40.9022 118.501 41.0419 118.7 41.1244C118.899 41.2069 119.119 41.2285 119.33 41.1864C119.541 41.1443 119.736 41.0405 119.888 40.8881C120.041 40.7357 120.144 40.5414 120.186 40.33C120.228 40.1186 120.207 39.8994 120.124 39.7002C120.042 39.501 119.902 39.3308 119.723 39.211C119.544 39.0913 119.333 39.0273 119.117 39.0273C118.974 39.0273 118.832 39.0555 118.7 39.1103C118.568 39.1651 118.448 39.2454 118.347 39.3466C118.245 39.4478 118.165 39.568 118.11 39.7002C118.056 39.8325 118.027 39.9742 118.027 40.1173Z" fill="#E0E0E0"/>
<path d="M151.502 39.0273L153.207 42.4823L157.022 43.0373L154.262 45.7273L154.912 49.5223L151.502 47.7323L148.092 49.5223L148.742 45.7273L145.987 43.0373L149.797 42.4823L151.502 39.0273Z" fill="#E0E0E0"/>
<path d="M105.887 56.5625L106.742 58.2875L108.647 58.5625L107.267 59.9075L107.592 61.8075L105.887 60.9125L104.182 61.8075L104.507 59.9075L103.127 58.5625L105.037 58.2875L105.887 56.5625Z" fill="#E0E0E0"/>
<path d="M238.858 219.489C238.858 219.559 188.298 219.619 125.943 219.619C63.5876 219.619 13.0176 219.559 13.0176 219.489C13.0176 219.419 63.5676 219.359 125.943 219.359C188.318 219.359 238.858 219.414 238.858 219.489Z" fill="#263238"/>
<path d="M141.937 71.9063L131.937 71.8563C131.285 71.872 130.664 72.1423 130.208 72.6094C129.752 73.0766 129.497 73.7035 129.497 74.3563V76.1713C129.497 76.8241 129.242 77.4511 128.786 77.9182C128.33 78.3854 127.71 78.6557 127.057 78.6713L107.592 78.6563C106.934 78.6354 106.311 78.3559 105.858 77.8785C105.405 77.4011 105.159 76.7643 105.172 76.1063V74.2963C105.186 73.6392 104.94 73.0031 104.488 72.5258C104.036 72.0486 103.414 71.7685 102.757 71.7463H99.2572L90.5072 71.6563C89.4746 71.6517 88.4512 71.8506 87.4955 72.2417C86.5398 72.6328 85.6705 73.2083 84.9373 73.9355C84.2041 74.6626 83.6214 75.5271 83.2225 76.4796C82.8235 77.432 82.6162 78.4537 82.6122 79.4863L82.0772 205.581C82.0679 207.666 82.887 209.67 84.3543 211.151C85.8216 212.633 87.8172 213.471 89.9022 213.481L141.332 213.716C142.365 213.721 143.388 213.522 144.344 213.131C145.3 212.74 146.169 212.164 146.902 211.437C147.635 210.71 148.218 209.846 148.617 208.893C149.016 207.941 149.223 206.919 149.227 205.886L149.762 79.7913C149.769 77.7085 148.948 75.7081 147.481 74.2297C146.014 72.7512 144.02 71.9156 141.937 71.9063Z" fill="white"/>
<path d="M92.9627 90.9168C93.2573 90.7912 93.5089 90.5824 93.6865 90.316C93.8642 90.0495 93.9601 89.737 93.9627 89.4168C93.9747 89.2075 93.9438 88.998 93.8719 88.8011C93.8 88.6041 93.6887 88.424 93.5448 88.2716C93.4008 88.1192 93.2273 87.9978 93.0348 87.9148C92.8423 87.8319 92.6349 87.7891 92.4252 87.7891C92.2156 87.7891 92.0082 87.8319 91.8157 87.9148C91.6232 87.9978 91.4497 88.1192 91.3057 88.2716C91.1618 88.424 91.0504 88.6041 90.9786 88.8011C90.9067 88.998 90.8758 89.2075 90.8877 89.4168C90.8831 89.7424 90.9758 90.062 91.154 90.3346C91.3321 90.6072 91.5876 90.8203 91.8877 90.9468C91.4018 91.0045 90.944 91.2055 90.5727 91.5243C90.2014 91.8431 89.9333 92.2651 89.8027 92.7368C90.3546 93.3623 91.1118 93.7701 91.9377 93.8868H92.8827C93.7219 93.7768 94.4928 93.3665 95.0527 92.7318C94.9311 92.2522 94.6657 91.8212 94.2921 91.4968C93.9186 91.1723 93.4547 90.97 92.9627 90.9168Z" fill="#455A64"/>
<path d="M92.3877 93.8934C92.3877 93.8634 92.6977 93.8934 93.2277 93.7334C93.9737 93.5275 94.6288 93.0766 95.0877 92.4534C95.4256 92 95.6451 91.4695 95.7263 90.9099C95.8075 90.3502 95.7478 89.7792 95.5527 89.2484C95.3249 88.6217 94.9138 88.0781 94.3727 87.6884C93.795 87.2575 93.0935 87.0247 92.3727 87.0247C91.6519 87.0247 90.9504 87.2575 90.3727 87.6884C89.8316 88.0781 89.4204 88.6217 89.1927 89.2484C88.9976 89.7792 88.9379 90.3502 89.0191 90.9099C89.1003 91.4695 89.3198 92 89.6577 92.4534C90.1193 93.0739 90.7733 93.524 91.5177 93.7334C92.0477 93.8784 92.3627 93.8634 92.3627 93.8934C92.2882 93.9061 92.2122 93.9061 92.1377 93.8934C91.9204 93.8966 91.7035 93.8714 91.4927 93.8184C90.8276 93.663 90.2215 93.319 89.747 92.8276C89.2725 92.3363 88.9498 91.7186 88.8177 91.0484C88.6881 90.3789 88.7509 89.6864 88.9987 89.051C89.2464 88.4157 89.6691 87.8635 90.2177 87.4584C90.8383 87.0008 91.5891 86.7539 92.3602 86.7539C93.1313 86.7539 93.8821 87.0008 94.5027 87.4584C95.0941 87.8811 95.5424 88.4742 95.7877 89.1584C96.0034 89.7679 96.0518 90.424 95.9277 91.0584C95.7955 91.7286 95.4729 92.3463 94.9984 92.8376C94.5239 93.329 93.9178 93.673 93.2527 93.8284C93.0419 93.8814 92.825 93.9066 92.6077 93.9034C92.5344 93.9131 92.4599 93.9098 92.3877 93.8934Z" fill="#455A64"/>
<path d="M128.212 90.1094H100.112V91.5094H128.212V90.1094Z" fill="#455A64"/>
<path d="M143.617 89.5064C143.808 89.5064 143.962 89.3519 143.962 89.1614C143.962 88.9709 143.808 88.8164 143.617 88.8164C143.427 88.8164 143.272 88.9709 143.272 89.1614C143.272 89.3519 143.427 89.5064 143.617 89.5064Z" fill="#455A64"/>
<path d="M143.962 90.3997C143.962 90.4912 143.926 90.5789 143.861 90.6436C143.797 90.7083 143.709 90.7447 143.617 90.7447C143.526 90.7447 143.438 90.7083 143.374 90.6436C143.309 90.5789 143.272 90.4912 143.272 90.3997C143.272 90.3082 143.309 90.2204 143.374 90.1557C143.438 90.091 143.526 90.0547 143.617 90.0547C143.709 90.0547 143.797 90.091 143.861 90.1557C143.926 90.2204 143.962 90.3082 143.962 90.3997Z" fill="#455A64"/>
<path d="M143.617 91.9791C143.808 91.9791 143.962 91.8246 143.962 91.6341C143.962 91.4435 143.808 91.2891 143.617 91.2891C143.427 91.2891 143.272 91.4435 143.272 91.6341C143.272 91.8246 143.427 91.9791 143.617 91.9791Z" fill="#455A64"/>
<path d="M149.763 97.1367H82.5527V155.482H149.763V97.1367Z" fill="#F5F5F5"/>
<path d="M146.692 150.96C147.096 150.833 147.521 150.789 147.942 150.83L147.812 150.96V150.715V150.48C147.812 150.33 147.812 150.195 147.837 150.085C147.862 149.855 147.897 149.715 147.932 149.715C147.967 149.715 148.002 149.855 148.022 150.085C148.022 150.195 148.047 150.33 148.052 150.48V150.98L147.922 151.115C147.506 151.149 147.087 151.097 146.692 150.96Z" fill="#E0E0E0"/>
<path d="M141.837 150.958C142.638 150.785 143.466 150.785 144.267 150.958C143.467 151.138 142.637 151.138 141.837 150.958Z" fill="#E0E0E0"/>
<path d="M136.987 150.957C137.377 150.831 137.789 150.786 138.197 150.827C138.607 150.787 139.021 150.831 139.412 150.957C139.022 151.09 138.607 151.136 138.197 151.092C137.789 151.136 137.376 151.09 136.987 150.957Z" fill="#E0E0E0"/>
<path d="M132.133 150.957C132.525 150.831 132.938 150.787 133.348 150.827C133.756 150.786 134.168 150.831 134.558 150.957C134.169 151.09 133.756 151.136 133.348 151.092C132.938 151.136 132.523 151.09 132.133 150.957Z" fill="#E0E0E0"/>
<path d="M127.277 150.958C128.078 150.785 128.907 150.785 129.707 150.958C128.907 151.138 128.077 151.138 127.277 150.958Z" fill="#E0E0E0"/>
<path d="M122.438 150.958C123.237 150.785 124.063 150.785 124.863 150.958C124.064 151.139 123.236 151.139 122.438 150.958Z" fill="#E0E0E0"/>
<path d="M117.572 150.958C118.373 150.785 119.202 150.785 120.002 150.958C119.202 151.138 118.372 151.138 117.572 150.958Z" fill="#E0E0E0"/>
<path d="M112.723 150.957C113.113 150.831 113.525 150.786 113.933 150.827C114.342 150.787 114.756 150.831 115.148 150.957C114.757 151.09 114.343 151.136 113.933 151.092C113.524 151.136 113.111 151.09 112.723 150.957Z" fill="#E0E0E0"/>
<path d="M107.867 150.957C108.259 150.831 108.673 150.787 109.082 150.827C109.49 150.786 109.902 150.831 110.292 150.957C109.904 151.09 109.491 151.136 109.082 151.092C108.672 151.136 108.258 151.09 107.867 150.957Z" fill="#E0E0E0"/>
<path d="M103.013 150.958C103.813 150.785 104.642 150.785 105.443 150.958C104.643 151.138 103.813 151.138 103.013 150.958Z" fill="#E0E0E0"/>
<path d="M98.1621 150.957C98.5521 150.831 98.9641 150.786 99.3721 150.827C99.7817 150.787 100.195 150.831 100.587 150.957C100.197 151.09 99.7821 151.136 99.3721 151.092C98.9638 151.136 98.5508 151.09 98.1621 150.957Z" fill="#E0E0E0"/>
<path d="M93.3076 150.958C94.1084 150.785 94.9369 150.785 95.7376 150.958C94.9376 151.138 94.1076 151.138 93.3076 150.958Z" fill="#E0E0E0"/>
<path d="M89.6327 149.707C89.7594 150.111 89.8036 150.536 89.7627 150.957L89.6327 150.827H90.1327L90.5327 150.857C90.7577 150.882 90.8977 150.912 90.8977 150.947C90.8977 150.982 90.7577 151.017 90.5327 151.042H90.1327H89.8977H89.6477C89.5877 150.982 89.7777 151.172 89.5177 150.907C89.4785 150.503 89.5176 150.096 89.6327 149.707Z" fill="#E0E0E0"/>
<path d="M89.6319 144.781C89.8052 145.594 89.8052 146.434 89.6319 147.246C89.4586 146.434 89.4586 145.594 89.6319 144.781Z" fill="#E0E0E0"/>
<path d="M89.6321 139.859C89.7589 140.256 89.8031 140.675 89.7621 141.089C89.8028 141.506 89.7586 141.926 89.6321 142.324C89.5057 141.926 89.4614 141.506 89.5021 141.089C89.4611 140.675 89.5054 140.256 89.6321 139.859Z" fill="#E0E0E0"/>
<path d="M89.6319 134.934C89.8052 135.744 89.8052 136.583 89.6319 137.394C89.4586 136.583 89.4586 135.744 89.6319 134.934Z" fill="#E0E0E0"/>
<path d="M89.6321 130.004C89.7586 130.403 89.8028 130.823 89.7621 131.239C89.8031 131.653 89.7589 132.072 89.6321 132.469C89.5054 132.072 89.4611 131.653 89.5021 131.239C89.4614 130.823 89.5057 130.403 89.6321 130.004Z" fill="#E0E0E0"/>
<path d="M89.6321 125.078C89.7589 125.475 89.8031 125.894 89.7621 126.308C89.8028 126.724 89.7586 127.145 89.6321 127.543C89.5057 127.145 89.4614 126.724 89.5021 126.308C89.4611 125.894 89.5054 125.475 89.6321 125.078Z" fill="#E0E0E0"/>
<path d="M89.6319 120.156C89.8052 120.967 89.8052 121.805 89.6319 122.616C89.4586 121.805 89.4586 120.967 89.6319 120.156Z" fill="#E0E0E0"/>
<path d="M89.6321 115.223C89.7586 115.621 89.8028 116.041 89.7621 116.458C89.8031 116.872 89.7589 117.291 89.6321 117.688C89.5054 117.291 89.4611 116.872 89.5021 116.458C89.4614 116.041 89.5057 115.621 89.6321 115.223Z" fill="#E0E0E0"/>
<path d="M89.6321 110.297C89.7589 110.694 89.8031 111.112 89.7621 111.527C89.8028 111.943 89.7586 112.363 89.6321 112.762C89.5057 112.363 89.4614 111.943 89.5021 111.527C89.4611 111.112 89.5054 110.694 89.6321 110.297Z" fill="#E0E0E0"/>
<path d="M89.6319 105.371C89.8052 106.182 89.8052 107.02 89.6319 107.831C89.4586 107.02 89.4586 106.182 89.6319 105.371Z" fill="#E0E0E0"/>
<path d="M90.8819 101.657C90.4787 101.787 90.053 101.831 89.6319 101.787L89.7619 101.657V102.157C89.7619 102.307 89.7619 102.442 89.7319 102.557C89.7319 102.782 89.6769 102.922 89.6419 102.922C89.6069 102.922 89.5719 102.782 89.5469 102.557C89.5469 102.442 89.5469 102.307 89.5469 102.157V101.927V101.657L89.6769 101.527C90.0832 101.492 90.4924 101.536 90.8819 101.657Z" fill="#E0E0E0"/>
<path d="M95.7376 101.657C94.9369 101.831 94.1084 101.831 93.3076 101.657C94.1084 101.484 94.9369 101.484 95.7376 101.657Z" fill="#E0E0E0"/>
<path d="M100.587 101.657C100.196 101.786 99.7817 101.83 99.3721 101.787C98.9641 101.831 98.5514 101.786 98.1621 101.657C98.5521 101.53 98.9641 101.486 99.3721 101.527C99.7817 101.486 100.195 101.53 100.587 101.657Z" fill="#E0E0E0"/>
<path d="M105.438 101.657C104.637 101.831 103.809 101.831 103.008 101.657C103.809 101.484 104.637 101.484 105.438 101.657Z" fill="#E0E0E0"/>
<path d="M110.292 101.657C109.903 101.786 109.49 101.831 109.082 101.787C108.673 101.83 108.258 101.786 107.867 101.657C108.259 101.53 108.673 101.486 109.082 101.527C109.49 101.486 109.902 101.53 110.292 101.657Z" fill="#E0E0E0"/>
<path d="M115.148 101.657C114.757 101.786 114.342 101.83 113.933 101.787C113.525 101.831 113.112 101.786 112.723 101.657C113.113 101.53 113.525 101.486 113.933 101.527C114.342 101.486 114.756 101.53 115.148 101.657Z" fill="#E0E0E0"/>
<path d="M120.002 101.657C119.202 101.831 118.373 101.831 117.572 101.657C118.373 101.484 119.202 101.484 120.002 101.657Z" fill="#E0E0E0"/>
<path d="M124.853 101.657C124.054 101.831 123.227 101.831 122.428 101.657C123.227 101.484 124.054 101.484 124.853 101.657Z" fill="#E0E0E0"/>
<path d="M129.707 101.657C128.907 101.831 128.078 101.831 127.277 101.657C128.078 101.484 128.907 101.484 129.707 101.657Z" fill="#E0E0E0"/>
<path d="M134.558 101.657C134.168 101.786 133.756 101.831 133.348 101.787C132.938 101.83 132.524 101.786 132.133 101.657C132.525 101.53 132.938 101.486 133.348 101.527C133.756 101.486 134.168 101.53 134.558 101.657Z" fill="#E0E0E0"/>
<path d="M139.438 101.657C139.047 101.786 138.632 101.83 138.223 101.787C137.815 101.831 137.402 101.786 137.013 101.657C137.403 101.53 137.815 101.486 138.223 101.527C138.632 101.486 139.046 101.53 139.438 101.657Z" fill="#E0E0E0"/>
<path d="M144.267 101.657C143.466 101.831 142.638 101.831 141.837 101.657C142.638 101.484 143.466 101.484 144.267 101.657Z" fill="#E0E0E0"/>
<path d="M147.938 102.907C147.808 102.504 147.764 102.078 147.807 101.657C148.067 101.917 147.878 101.732 147.938 101.787H147.688H147.452L147.053 101.762C146.828 101.737 146.688 101.702 146.688 101.667C146.688 101.632 146.828 101.597 147.053 101.577C147.168 101.577 147.302 101.577 147.452 101.547H147.952L148.083 101.677C148.116 102.092 148.067 102.51 147.938 102.907Z" fill="#E0E0E0"/>
<path d="M147.938 107.831C147.764 107.02 147.764 106.182 147.938 105.371C148.111 106.182 148.111 107.02 147.938 107.831Z" fill="#E0E0E0"/>
<path d="M147.937 112.762C147.808 112.364 147.764 111.943 147.807 111.527C147.764 111.112 147.808 110.693 147.937 110.297C148.064 110.694 148.108 111.112 148.067 111.527C148.108 111.943 148.064 112.363 147.937 112.762Z" fill="#E0E0E0"/>
<path d="M147.937 117.688C147.808 117.291 147.764 116.872 147.807 116.458C147.764 116.041 147.808 115.621 147.937 115.223C148.064 115.621 148.108 116.041 148.067 116.458C148.108 116.872 148.064 117.291 147.937 117.688Z" fill="#E0E0E0"/>
<path d="M147.938 122.612C147.764 121.801 147.764 120.963 147.938 120.152C148.111 120.963 148.111 121.801 147.938 122.612Z" fill="#E0E0E0"/>
<path d="M147.937 127.543C147.808 127.145 147.764 126.724 147.807 126.308C147.764 125.894 147.808 125.474 147.937 125.078C148.064 125.475 148.108 125.894 148.067 126.308C148.108 126.724 148.064 127.145 147.937 127.543Z" fill="#E0E0E0"/>
<path d="M147.937 132.469C147.808 132.073 147.764 131.653 147.807 131.239C147.764 130.823 147.808 130.402 147.937 130.004C148.064 130.403 148.108 130.823 148.067 131.239C148.108 131.653 148.064 132.072 147.937 132.469Z" fill="#E0E0E0"/>
<path d="M147.938 137.394C147.764 136.583 147.764 135.744 147.938 134.934C148.111 135.744 148.111 136.583 147.938 137.394Z" fill="#E0E0E0"/>
<path d="M147.937 142.324C147.808 141.926 147.764 141.506 147.807 141.089C147.764 140.675 147.808 140.256 147.937 139.859C148.064 140.256 148.108 140.675 148.067 141.089C148.108 141.506 148.064 141.926 147.937 142.324Z" fill="#E0E0E0"/>
<path d="M147.938 147.246C147.764 146.434 147.764 145.594 147.938 144.781C148.111 145.594 148.111 146.434 147.938 147.246Z" fill="#E0E0E0"/>
<path d="M108.622 124.742V133.172H123.217V124.742H120.092V130.092H111.717V124.742H108.622Z" fill="#E0E0E0"/>
<path d="M114.257 127.892H117.642V122.197H120.857L116.122 114.602L111.037 122.032H114.337L114.257 127.892Z" fill="#E0E0E0"/>
<path d="M97.7127 164.851L97.0577 164.551C96.682 164.727 96.2542 164.757 95.8581 164.634C95.4619 164.511 95.1259 164.244 94.9159 163.886C94.7058 163.529 94.6369 163.106 94.7225 162.7C94.8081 162.294 95.0421 161.935 95.3788 161.692C95.7154 161.45 96.1304 161.342 96.5424 161.389C96.9545 161.437 97.334 161.637 97.6066 161.949C97.8792 162.262 98.0253 162.665 98.0162 163.08C98.0072 163.494 97.8437 163.891 97.5577 164.191L97.7127 164.851ZM96.2127 161.281C95.7618 161.281 95.3294 161.46 95.0106 161.779C94.6918 162.098 94.5127 162.53 94.5127 162.981C94.5127 163.432 94.6918 163.865 95.0106 164.183C95.3294 164.502 95.7618 164.681 96.2127 164.681C96.503 164.666 96.7849 164.578 97.0327 164.426L97.5327 164.646L97.4377 164.156V164.131C97.7301 163.82 97.8928 163.408 97.8927 162.981C97.8927 162.533 97.7157 162.103 97.4001 161.784C97.0845 161.466 96.656 161.285 96.2077 161.281H96.2127Z" fill="#263238"/>
<path d="M101.937 164.605L101.197 162.765L99.7969 161.465H103.222L101.937 164.605ZM100.112 161.605L101.307 162.72L101.937 164.29L103.037 161.605H100.112Z" fill="#263238"/>
<path d="M103.109 161.455L101.23 162.656L101.298 162.762L103.177 161.56L103.109 161.455Z" fill="#263238"/>
<path d="M115.153 162.118C115.157 162.257 115.119 162.394 115.044 162.512C114.969 162.63 114.861 162.723 114.734 162.779C114.606 162.835 114.464 162.851 114.327 162.826C114.19 162.801 114.063 162.735 113.963 162.638C113.864 162.54 113.795 162.415 113.767 162.279C113.739 162.142 113.753 162 113.806 161.871C113.859 161.742 113.949 161.632 114.065 161.555C114.182 161.477 114.318 161.437 114.458 161.438C114.64 161.436 114.815 161.507 114.945 161.634C115.075 161.762 115.15 161.935 115.153 162.118Z" fill="#263238"/>
<path d="M117.318 162.129C117.322 162.269 117.284 162.406 117.209 162.524C117.135 162.642 117.026 162.735 116.899 162.791C116.771 162.847 116.629 162.863 116.492 162.838C116.355 162.813 116.228 162.747 116.128 162.65C116.029 162.552 115.96 162.427 115.932 162.29C115.904 162.154 115.918 162.012 115.971 161.883C116.024 161.754 116.114 161.644 116.23 161.566C116.347 161.489 116.483 161.448 116.623 161.449C116.713 161.448 116.803 161.465 116.887 161.498C116.971 161.532 117.047 161.581 117.112 161.645C117.176 161.708 117.228 161.783 117.263 161.866C117.299 161.95 117.317 162.039 117.318 162.129Z" fill="#263238"/>
<path d="M119.488 162.157C119.492 162.296 119.454 162.433 119.379 162.551C119.305 162.669 119.197 162.761 119.07 162.817C118.942 162.873 118.801 162.89 118.664 162.866C118.527 162.841 118.4 162.776 118.3 162.679C118.2 162.582 118.132 162.457 118.103 162.321C118.074 162.184 118.087 162.043 118.139 161.914C118.192 161.784 118.281 161.674 118.397 161.596C118.512 161.518 118.648 161.477 118.788 161.477C118.878 161.475 118.968 161.492 119.052 161.525C119.137 161.559 119.213 161.608 119.278 161.672C119.343 161.735 119.395 161.81 119.431 161.893C119.467 161.977 119.486 162.066 119.488 162.157Z" fill="#263238"/>
<path d="M143.032 165.03L141.617 163.615L140.272 164.96V160.895H143.032V165.03ZM141.617 163.44L141.662 163.48L142.907 164.73V161.02H140.407V164.66L141.617 163.44Z" fill="#263238"/>
<path d="M140.218 171.923C140.218 171.993 128.418 172.053 113.868 172.053C99.3176 172.053 87.5176 171.993 87.5176 171.923C87.5176 171.853 99.3126 171.793 113.868 171.793C128.423 171.793 140.218 171.848 140.218 171.923Z" fill="#263238"/>
<path d="M113.753 175.036C113.753 175.106 107.878 175.166 100.638 175.166C93.3976 175.166 87.5176 175.106 87.5176 175.036C87.5176 174.966 93.3876 174.906 100.638 174.906C107.888 174.906 113.753 174.961 113.753 175.036Z" fill="#263238"/>
<path d="M126.578 184.381C126.578 184.451 120.708 184.511 113.463 184.511C106.218 184.511 100.343 184.451 100.343 184.381C100.343 184.311 106.218 184.246 113.463 184.246C120.708 184.246 126.578 184.306 126.578 184.381Z" fill="#263238"/>
<path d="M97.9676 184.382C97.9676 184.452 95.6276 184.512 92.7426 184.512C89.8576 184.512 87.5176 184.452 87.5176 184.382C89.2558 184.247 90.9997 184.202 92.7426 184.247C94.4854 184.202 96.2294 184.247 97.9676 184.382Z" fill="#263238"/>
<path d="M126.578 195.275C126.578 195.345 120.708 195.405 113.463 195.405C106.218 195.405 100.343 195.345 100.343 195.275C100.343 195.205 106.218 195.145 113.463 195.145C120.708 195.145 126.578 195.2 126.578 195.275Z" fill="#263238"/>
<path d="M97.9676 195.272C97.9676 195.342 95.6276 195.402 92.7426 195.402C89.8576 195.402 87.5176 195.342 87.5176 195.272C89.2559 195.141 90.9998 195.097 92.7426 195.142C94.4853 195.097 96.2292 195.141 97.9676 195.272Z" fill="#263238"/>
<path d="M116.607 188.31C116.607 188.385 113.042 188.445 108.647 188.445C104.252 188.445 100.692 188.385 100.692 188.31C100.692 188.235 104.252 188.18 108.647 188.18C113.042 188.18 116.607 188.24 116.607 188.31Z" fill="#263238"/>
<path d="M116.607 199.544C116.607 199.619 113.042 199.674 108.647 199.674C104.252 199.674 100.692 199.619 100.692 199.544C100.692 199.469 104.252 199.414 108.647 199.414C113.042 199.414 116.607 199.474 116.607 199.544Z" fill="#263238"/>
<path d="M92.3475 161.789C92.3 161.543 92.1668 161.321 91.9717 161.164C91.7765 161.007 91.5319 160.924 91.2814 160.93C91.0308 160.936 90.7905 161.031 90.603 161.197C90.4156 161.363 90.2932 161.591 90.2575 161.839C90.2218 161.591 90.0994 161.363 89.912 161.197C89.7245 161.031 89.4842 160.936 89.2336 160.93C88.9831 160.924 88.7385 161.007 88.5433 161.164C88.3481 161.321 88.215 161.543 88.1675 161.789C88.1157 162.152 88.2071 162.522 88.4225 162.819C88.633 163.115 88.8819 163.383 89.1625 163.614L90.2725 164.614C90.6525 164.274 90.9725 163.954 91.3525 163.614C91.6334 163.381 91.8838 163.114 92.0975 162.819C92.3116 162.521 92.4013 162.152 92.3475 161.789Z" fill="#67BC2A"/>
<path d="M142.012 67.4979L90.4773 67.2579C87.4998 67.2459 84.6394 68.417 82.5251 70.5135C80.4107 72.61 79.2156 75.4604 79.2023 78.4379L78.6573 207.628C78.6508 209.101 78.9345 210.562 79.4922 211.925C80.05 213.289 80.871 214.53 81.9082 215.576C82.9454 216.623 84.1787 217.455 85.5374 218.025C86.8962 218.595 88.3539 218.891 89.8273 218.898L141.362 219.138C142.837 219.145 144.299 218.862 145.664 218.303C147.029 217.745 148.27 216.924 149.318 215.885C150.365 214.847 151.197 213.612 151.767 212.252C152.336 210.892 152.632 209.433 152.637 207.958L153.182 78.7679C153.189 77.2945 152.905 75.8342 152.347 74.4704C151.79 73.1066 150.969 71.866 149.931 70.8195C148.894 69.773 147.661 68.941 146.302 68.3711C144.943 67.8012 143.486 67.5045 142.012 67.4979ZM149.227 205.948C149.223 206.98 149.016 208.002 148.617 208.955C148.218 209.907 147.635 210.772 146.902 211.499C146.169 212.226 145.3 212.801 144.344 213.193C143.388 213.584 142.365 213.783 141.332 213.778L89.9023 213.538C87.8203 213.529 85.8271 212.694 84.36 211.216C82.893 209.739 82.072 207.74 82.0773 205.658L82.6123 79.5629C82.6163 78.5303 82.8236 77.5086 83.2226 76.5561C83.6215 75.6037 84.2043 74.7392 84.9374 74.012C85.6706 73.2849 86.5399 72.7093 87.4956 72.3183C88.4513 71.9272 89.4747 71.7283 90.5073 71.7329L99.2523 71.7729H102.752C103.409 71.7951 104.031 72.0752 104.483 72.5524C104.935 73.0297 105.181 73.6657 105.167 74.3229V76.1579C105.154 76.8151 105.4 77.4511 105.852 77.9284C106.304 78.4057 106.925 78.6857 107.582 78.7079L127.057 78.7979C127.709 78.781 128.328 78.5101 128.783 78.0431C129.238 77.5761 129.493 76.9498 129.492 76.2979V74.4829C129.482 74.1529 129.538 73.8242 129.656 73.5158C129.773 73.2074 129.951 72.9253 130.178 72.6859C130.406 72.4465 130.678 72.2545 130.98 72.121C131.282 71.9874 131.607 71.915 131.937 71.9079L141.937 71.9579C142.969 71.9618 143.99 72.1691 144.942 72.5678C145.894 72.9665 146.758 73.5488 147.485 74.2815C148.211 75.0143 148.787 75.883 149.177 76.8381C149.568 77.7932 149.767 78.816 149.762 79.8479L149.227 205.948Z" fill="#263238"/>
<path d="M202.352 112.262L193.327 109.262C193.327 109.262 189.327 120.762 188.117 120.862C181.342 121.482 174.117 119.237 171.557 118.362C171.302 118.077 171.007 117.727 170.677 117.302C170.398 116.936 170.183 116.525 170.042 116.087C169.844 115.548 169.721 114.984 169.677 114.412C169.688 114.302 169.665 114.191 169.61 114.096C169.556 114 169.472 113.923 169.372 113.877C169.272 113.831 169.16 113.817 169.051 113.838C168.943 113.858 168.844 113.912 168.767 113.992C168.472 114.372 168.397 115.822 169.067 117.387C169.737 118.952 167.367 117.702 166.497 117.267C165.627 116.832 162.872 115.602 162.527 115.767C162.027 116.002 162.177 116.587 163.057 117.007C163.937 117.427 166.487 118.857 166.232 119.302C165.977 119.747 161.582 117.462 161.582 117.462C161.582 117.462 160.722 116.817 160.412 117.327C159.852 118.247 164.712 120.327 165.177 120.517C165.502 120.647 165.242 121.142 164.902 120.987C164.562 120.832 160.567 118.602 159.992 119.532C159.547 120.247 163.967 121.287 164.537 122.202C165.107 123.117 161.267 121.077 160.872 121.772C160.722 122.032 160.652 122.272 163.027 123.107C164.769 123.65 166.538 124.101 168.327 124.457V124.482C168.327 124.482 192.077 135.102 197.197 124.862C202.622 113.967 202.352 112.262 202.352 112.262Z" fill="#EB996E"/>
<path d="M187.947 96.0079L120.872 96.1367L120.975 149.762L188.05 149.633L187.947 96.0079Z" fill="#EBEBEB"/>
<path d="M187.938 96.0234H187.613H186.678H183.038L169.313 96.0784L120.863 96.2234L120.978 96.1084C121.013 112.068 121.053 130.363 121.093 149.723L120.963 149.593L188.033 149.488L187.938 149.658C187.938 133.503 187.938 120.108 187.938 110.748C187.938 106.068 187.938 102.393 187.938 99.8884C187.938 98.6334 187.938 97.6784 187.938 97.0234C187.938 96.3684 187.938 96.0234 187.938 96.0234C187.938 96.0234 187.938 96.3484 187.938 96.9934C187.938 97.6384 187.938 98.5934 187.938 99.8334C187.938 102.333 187.963 105.998 187.983 110.673C188.018 120.048 188.058 133.463 188.113 149.673V149.783H188.003L120.933 149.928H120.803V149.788C120.773 130.428 120.743 112.133 120.718 96.1734V96.0584H120.833L169.333 96.0284H187.938V96.0234Z" fill="#263238"/>
<path d="M185.548 99.3881L123.188 99.5078L123.278 146.378L185.638 146.258L185.548 99.3881Z" fill="#67BC2A"/>
<path d="M123.268 146.39L144.993 117.215L158.523 135.415L167.653 125.655L185.628 146.275L123.268 146.39Z" fill="#67BC2A"/>
<path d="M164.208 113.611C164.21 114.582 163.924 115.532 163.386 116.34C162.848 117.149 162.082 117.78 161.186 118.153C160.289 118.527 159.302 118.626 158.35 118.439C157.397 118.251 156.521 117.785 155.833 117.1C155.145 116.415 154.675 115.541 154.484 114.589C154.293 113.637 154.388 112.649 154.758 111.751C155.127 110.853 155.755 110.085 156.562 109.544C157.368 109.003 158.317 108.713 159.288 108.711C159.932 108.71 160.571 108.835 161.167 109.081C161.764 109.326 162.306 109.687 162.763 110.142C163.219 110.597 163.582 111.138 163.83 111.733C164.078 112.328 164.206 112.966 164.208 113.611Z" fill="#67BC2A"/>
<g opacity="0.2">
<path d="M123.268 146.39L144.993 117.215L158.523 135.415L167.653 125.655L185.628 146.275L123.268 146.39Z" fill="black"/>
</g>
<g opacity="0.2">
<path d="M164.208 113.611C164.21 114.582 163.924 115.532 163.386 116.34C162.848 117.149 162.082 117.78 161.186 118.153C160.289 118.527 159.302 118.626 158.35 118.439C157.397 118.251 156.521 117.785 155.833 117.1C155.145 116.415 154.675 115.541 154.484 114.589C154.293 113.637 154.388 112.649 154.758 111.751C155.127 110.853 155.755 110.085 156.562 109.544C157.368 109.003 158.317 108.713 159.288 108.711C159.932 108.71 160.571 108.835 161.167 109.081C161.764 109.326 162.306 109.687 162.763 110.142C163.219 110.597 163.582 111.138 163.83 111.733C164.078 112.328 164.206 112.966 164.208 113.611Z" fill="black"/>
</g>
<path d="M240.718 199.037L223.218 188.422L219.803 196.977L237.888 206.122C237.888 206.122 236.593 211.147 236.888 212.247L241.723 199.657L240.718 199.037Z" fill="#FFBE9D"/>
<path d="M236.868 212.252L237.373 212.447L242.388 199.492L241.848 199.277L236.868 212.252Z" fill="#263238"/>
<path d="M238.982 207.801C238.982 207.876 238.517 207.926 238.047 208.221C237.577 208.516 237.322 208.901 237.252 208.866C237.182 208.831 237.367 208.331 237.912 208.001C238.457 207.671 238.992 207.731 238.982 207.801Z" fill="#263238"/>
<path d="M240.408 198.727C240.483 198.727 240.303 199.682 240.378 200.847C240.453 202.012 240.723 202.927 240.653 202.952C240.3 202.312 240.116 201.592 240.118 200.862C240.03 200.137 240.13 199.402 240.408 198.727Z" fill="#263238"/>
<path d="M239.988 198.891C239.584 200.077 239.099 201.235 238.538 202.356C238.057 203.513 237.494 204.634 236.853 205.711C237.739 203.368 238.787 201.089 239.988 198.891Z" fill="#263238"/>
<path d="M190.233 197.309H181.023L179.238 217.494C179.238 217.494 174.093 218.159 173.173 218.824L186.673 218.659L186.883 217.494L190.233 197.309Z" fill="#FFBE9D"/>
<path d="M173.173 218.823V219.363L187.068 219.213V218.633L173.173 218.823Z" fill="#263238"/>
<path d="M178.088 219.157C178.018 219.187 177.798 218.772 177.348 218.447C176.898 218.122 176.448 218.022 176.458 217.947C176.643 217.908 176.835 217.915 177.017 217.966C177.199 218.017 177.366 218.112 177.503 218.242C178.018 218.592 178.153 219.117 178.088 219.157Z" fill="#263238"/>
<path d="M187.042 217.094C187.042 217.169 186.117 217.354 185.042 217.854C183.967 218.354 183.238 218.949 183.188 218.889C184.182 217.812 185.559 217.168 187.023 217.094H187.042Z" fill="#263238"/>
<path d="M186.732 216.761C185.481 216.827 184.226 216.807 182.977 216.701C181.725 216.683 180.475 216.576 179.237 216.381C180.489 216.316 181.743 216.336 182.992 216.441C184.245 216.463 185.494 216.57 186.732 216.761Z" fill="#263238"/>
<path d="M199.553 144.526C199.553 144.526 201.473 186.026 202.783 187.741C204.093 189.456 227.973 204.741 227.973 204.741L233.608 191.521C233.608 191.521 216.278 179.486 216.293 178.706C216.308 177.926 216.423 137.516 216.423 137.516L199.553 144.526Z" fill="#455A64"/>
<path d="M204.487 169.363C204.512 169.467 204.531 169.572 204.542 169.678L204.662 170.588L205.077 173.998C205.412 176.933 205.877 180.998 206.412 185.738L206.377 185.663L210.672 189.963L210.907 190.198C213.15 192.022 215.487 193.728 217.907 195.308L223.787 199.158C225.467 200.268 226.787 201.193 227.712 201.848C228.167 202.178 228.517 202.443 228.752 202.618L229.017 202.823C229.077 202.873 229.107 202.898 229.102 202.903L229.002 202.843L228.722 202.658L227.652 201.933C226.727 201.303 225.377 200.398 223.687 199.313C221.997 198.228 219.972 196.948 217.747 195.483C215.321 193.912 212.984 192.208 210.747 190.378L210.512 190.143L206.227 185.838L206.192 185.803V185.763C205.692 181.038 205.257 176.948 204.947 174.008C204.807 172.568 204.692 171.413 204.607 170.593L204.532 169.678C204.504 169.576 204.489 169.47 204.487 169.363Z" fill="#263238"/>
<path d="M210.133 159.578C210.139 159.62 210.139 159.662 210.133 159.703V160.073C210.133 160.418 210.133 160.893 210.158 161.493C210.158 162.753 210.183 164.533 210.203 166.728C210.223 168.923 210.203 171.568 210.228 174.483C210.228 175.943 210.228 177.483 210.228 179.068C210.19 179.867 210.256 180.666 210.423 181.448C210.796 183.054 211.672 184.499 212.923 185.573C213.548 186.073 214.213 186.573 214.848 187.028C216.123 187.973 217.348 188.873 218.553 189.723L224.858 194.223C226.648 195.518 228.088 196.578 229.073 197.323L230.198 198.193L230.488 198.423C230.551 198.48 230.581 198.51 230.578 198.513L230.473 198.448L230.168 198.233L229.013 197.408L224.753 194.373C222.943 193.098 220.793 191.583 218.413 189.873C217.223 189.028 215.978 188.133 214.698 187.188C214.058 186.713 213.408 186.248 212.753 185.723C212.109 185.172 211.557 184.522 211.118 183.798C210.677 183.074 210.357 182.284 210.168 181.458C210.002 180.658 209.936 179.84 209.973 179.023C209.973 177.433 209.973 175.898 209.973 174.438C209.973 171.523 209.973 168.898 210.003 166.683L210.043 161.448C210.043 160.848 210.043 160.373 210.043 160.028V159.658C210.067 159.626 210.098 159.599 210.133 159.578Z" fill="#263238"/>
<path d="M213.973 152.922C213.977 152.962 213.977 153.002 213.973 153.042V153.397C213.973 153.727 213.973 154.177 213.973 154.752C213.973 155.947 213.943 157.652 213.918 159.752C213.843 164.007 213.743 169.882 213.628 176.452V176.477C213.515 177.035 213.515 177.609 213.628 178.167C213.803 178.993 214.143 179.775 214.628 180.467C215.098 181.15 215.641 181.78 216.248 182.347C217.458 183.442 218.698 184.452 219.858 185.412C222.193 187.332 224.358 188.992 226.203 190.332C228.048 191.672 229.598 192.697 230.673 193.387L231.938 194.157L232.263 194.367L232.368 194.447C232.368 194.447 232.323 194.447 232.248 194.392L231.913 194.202C231.618 194.037 231.188 193.787 230.643 193.452C229.553 192.787 227.993 191.782 226.143 190.452C224.293 189.122 222.098 187.482 219.748 185.572C218.578 184.607 217.348 183.612 216.118 182.502C215.498 181.924 214.942 181.282 214.458 180.587C213.95 179.866 213.593 179.049 213.408 178.187C213.285 177.595 213.285 176.984 213.408 176.392V176.417C213.553 169.847 213.678 163.972 213.773 159.722C213.833 157.617 213.878 155.917 213.913 154.722C213.913 154.152 213.948 153.697 213.963 153.367V153.017C213.962 152.985 213.965 152.953 213.973 152.922Z" fill="#263238"/>
<path d="M217.593 134.656L217.963 136.156C219.052 140.597 218.384 145.286 216.098 149.246L199.518 177.986C198.343 180.023 197.487 182.226 196.978 184.521L192.343 207.191L178.088 206.881C178.088 206.881 180.933 190.381 182.428 181.056C183.558 174.056 192.958 152.236 197.508 141.941L199.588 137.656L217.593 134.656Z" fill="#455A64"/>
<path d="M201.108 139.852C201.091 139.91 201.069 139.967 201.043 140.022L200.843 140.522L200.038 142.377C199.683 143.177 199.248 144.157 198.773 145.312C198.298 146.467 197.728 147.757 197.153 149.217C196.578 150.677 195.923 152.262 195.278 153.987C194.633 155.712 193.948 157.557 193.238 159.487C191.863 163.392 190.433 167.722 189.073 172.302C187.713 176.882 186.573 181.302 185.623 185.337C185.163 187.337 184.713 189.272 184.348 191.082C183.983 192.892 183.633 194.582 183.348 196.082C183.063 197.582 182.813 199.017 182.593 200.242C182.373 201.467 182.198 202.527 182.063 203.392C181.928 204.257 181.813 204.892 181.738 205.392C181.698 205.612 181.668 205.782 181.643 205.892C181.636 205.951 181.623 206.01 181.603 206.067C181.596 206.007 181.596 205.946 181.603 205.887C181.603 205.757 181.643 205.587 181.668 205.387C181.733 204.912 181.828 204.242 181.948 203.387C182.068 202.532 182.223 201.457 182.448 200.227C182.673 198.997 182.868 197.597 183.168 196.057C183.468 194.517 183.763 192.827 184.143 191.022C184.523 189.217 184.948 187.292 185.403 185.267C186.348 181.227 187.488 176.812 188.833 172.217C190.178 167.622 191.633 163.297 193.023 159.392C193.738 157.442 194.403 155.587 195.088 153.892C195.773 152.197 196.393 150.577 196.993 149.127C197.593 147.677 198.158 146.377 198.648 145.232C199.138 144.087 199.583 143.112 199.953 142.317L200.803 140.482L201.033 140.007C201.05 139.951 201.075 139.899 201.108 139.852Z" fill="#263238"/>
<path d="M209.158 138.578C209.139 138.637 209.114 138.694 209.083 138.748C209.018 138.873 208.938 139.038 208.838 139.248L207.868 141.133C207.443 141.948 206.923 142.948 206.368 144.133C205.813 145.318 205.113 146.633 204.423 148.133C204.073 148.873 203.703 149.633 203.323 150.463C202.943 151.293 202.568 152.133 202.168 153.013C201.363 154.773 200.568 156.678 199.718 158.678C198.063 162.678 196.343 167.178 194.718 171.898C193.093 176.618 191.718 181.223 190.553 185.398C189.993 187.498 189.448 189.493 189.003 191.398C188.778 192.338 188.543 193.243 188.343 194.118C188.143 194.993 187.958 195.833 187.778 196.618C187.408 198.223 187.128 199.683 186.863 200.963C186.598 202.243 186.363 203.343 186.223 204.248C186.083 205.153 185.918 205.843 185.828 206.333C185.783 206.558 185.748 206.738 185.718 206.873C185.709 206.935 185.694 206.995 185.673 207.053C185.665 206.992 185.665 206.93 185.673 206.868C185.673 206.733 185.723 206.553 185.758 206.323C185.838 205.823 185.953 205.128 186.103 204.233C186.253 203.338 186.443 202.233 186.698 200.933C186.953 199.633 187.198 198.188 187.578 196.583L188.128 194.058C188.323 193.178 188.553 192.273 188.773 191.333C189.208 189.448 189.773 187.448 190.298 185.333C191.453 181.138 192.828 176.553 194.453 171.798C196.078 167.043 197.823 162.588 199.493 158.573C200.353 156.573 201.153 154.663 201.993 152.908C202.398 152.033 202.773 151.173 203.158 150.363L204.278 148.038C204.978 146.538 205.668 145.228 206.278 144.063C206.888 142.898 207.393 141.898 207.833 141.093C208.273 140.288 208.608 139.668 208.833 139.228L209.103 138.728C209.116 138.676 209.134 138.626 209.158 138.578Z" fill="#263238"/>
<path d="M218.528 137.016C218.528 137.016 218.493 137.076 218.418 137.181L218.088 137.656C217.778 138.076 217.343 138.681 216.783 139.456L215.838 140.756L214.758 142.331C213.993 143.471 213.083 144.741 212.178 146.211L210.728 148.496C210.228 149.291 209.728 150.146 209.228 150.996C208.168 152.726 207.148 154.641 206.053 156.641C203.928 160.681 201.758 165.206 199.758 170.076C197.758 174.946 196.173 179.716 194.868 184.076C194.253 186.271 193.643 188.356 193.188 190.331C192.953 191.331 192.688 192.266 192.503 193.186C192.318 194.106 192.123 194.991 191.943 195.836C191.563 197.521 191.328 199.066 191.078 200.411C190.958 201.086 190.848 201.716 190.748 202.296C190.648 202.876 190.583 203.406 190.518 203.886C190.373 204.826 190.263 205.566 190.188 206.081C190.148 206.326 190.118 206.511 190.093 206.656C190.087 206.721 190.074 206.784 190.053 206.846C190.05 206.781 190.05 206.716 190.053 206.651C190.053 206.511 190.093 206.321 190.118 206.076C190.188 205.576 190.278 204.816 190.398 203.871C190.463 203.371 190.533 202.871 190.608 202.276C190.683 201.681 190.808 201.066 190.918 200.386C191.153 199.036 191.378 197.491 191.748 195.801L192.293 193.141C192.483 192.221 192.733 191.271 192.963 190.281C193.413 188.281 194.013 186.211 194.623 184.006C195.918 179.626 197.523 174.861 199.498 169.966C201.473 165.071 203.688 160.556 205.823 156.521C206.928 154.521 207.958 152.606 209.028 150.876C209.553 150.006 210.028 149.156 210.528 148.376L211.998 146.096C212.918 144.631 213.838 143.366 214.613 142.236C215.008 141.671 215.368 141.141 215.713 140.666L216.678 139.381L218.018 137.606L218.373 137.151C218.478 137.061 218.523 137.011 218.528 137.016Z" fill="#263238"/>
<path d="M199.517 177.978C199.457 177.943 203.117 171.478 207.692 163.543C212.267 155.608 216.037 149.203 216.097 149.238C216.157 149.273 212.497 155.738 207.922 163.673C203.347 171.608 199.582 178.013 199.517 177.978Z" fill="#263238"/>
<path d="M211.272 102.75L215.212 102.82L218.347 111.79L215.022 123.235C214.277 126.235 219.832 131.8 219.832 136.485L196.292 139.855L197.792 129.905L195.757 123.21V122.71L188.107 118.895L190.632 112.71C194.517 103.61 201.302 103.055 201.302 103.055L211.272 102.75Z" fill="#263238"/>
<path d="M195.893 122.611C195.711 122.561 195.54 122.474 195.393 122.356C194.995 122.074 194.656 121.717 194.393 121.306C193.999 120.675 193.823 119.932 193.893 119.191C193.927 118.384 194.168 117.6 194.593 116.914C195.017 116.227 195.611 115.661 196.318 115.271L196.253 115.361C196.438 114.006 196.603 112.861 196.753 112.016C196.8 111.575 196.882 111.139 196.998 110.711C197.002 111.154 196.97 111.598 196.903 112.036C196.818 112.866 196.683 114.036 196.518 115.396V115.456L196.458 115.486C195.794 115.865 195.236 116.404 194.835 117.053C194.433 117.703 194.2 118.443 194.158 119.206C194.088 119.902 194.242 120.603 194.598 121.206C194.844 121.613 195.159 121.975 195.528 122.276C195.656 122.381 195.777 122.493 195.893 122.611Z" fill="#455A64"/>
<path d="M215.213 102.821C215.213 102.821 222.633 103.696 221.848 112.516C221.048 121.516 219.683 122.611 219.683 122.611L209.218 118.531C211.403 114.106 211.463 114.061 212.508 109.301L215.213 102.801V102.821Z" fill="#263238"/>
<path d="M212.902 109.242C212.815 109.71 212.684 110.168 212.512 110.612C212.237 111.442 211.852 112.612 211.367 113.842C210.882 115.072 210.368 116.192 209.988 116.982C209.802 117.417 209.576 117.834 209.312 118.227C209.441 117.772 209.608 117.329 209.812 116.902C210.153 116.097 210.628 114.987 211.113 113.747L212.327 110.547C212.48 110.096 212.673 109.659 212.902 109.242Z" fill="#455A64"/>
<path d="M214.643 85.3125C215.573 87.1775 216.068 88.8125 217.918 89.7525C218.753 90.1875 219.768 90.4325 220.273 91.2275C220.778 92.0225 220.563 93.3425 221.273 94.0975C222.273 95.1925 224.338 94.3025 225.468 95.2725C226.468 96.1325 226.153 97.9875 227.238 98.7725C227.848 99.2025 228.683 99.1075 229.378 99.3775C230.523 99.8175 231.063 101.133 231.213 102.348C231.368 103.32 231.245 104.317 230.858 105.223C230.658 105.671 230.348 106.063 229.958 106.362C229.567 106.66 229.108 106.857 228.623 106.933C227.328 107.068 225.863 106.178 224.813 106.933C224.475 107.246 224.183 107.604 223.943 107.997C223.616 108.413 223.192 108.743 222.709 108.959C222.226 109.176 221.698 109.271 221.17 109.238C220.642 109.205 220.13 109.045 219.677 108.77C219.225 108.496 218.846 108.116 218.573 107.662C217.848 106.457 217.893 104.797 216.838 103.872C216.231 103.452 215.553 103.144 214.838 102.963C214.153 102.708 213.438 102.278 213.233 101.577C212.995 100.955 212.658 100.376 212.233 99.8625C211.703 99.0725 210.998 100.037 210.298 99.6475C209.598 99.2575 209.863 98.4975 209.798 97.6975" fill="#67BC2A"/>
<path d="M211.108 102.402C211.154 102.565 211.173 102.734 211.163 102.902C211.151 103.375 211.056 103.842 210.883 104.282C210.625 104.945 210.203 105.531 209.658 105.987C208.976 106.536 208.139 106.86 207.265 106.912C206.391 106.965 205.522 106.745 204.778 106.282C204.183 105.894 203.695 105.363 203.358 104.737C203.13 104.322 202.981 103.867 202.918 103.397C202.885 103.232 202.885 103.062 202.918 102.897C203.021 103.516 203.227 104.112 203.528 104.662C203.869 105.244 204.346 105.735 204.918 106.092C205.62 106.52 206.438 106.721 207.258 106.667C208.081 106.622 208.87 106.325 209.518 105.817C210.041 105.391 210.454 104.846 210.723 104.227C210.951 103.644 211.081 103.028 211.108 102.402Z" fill="#455A64"/>
<path d="M211.013 102.861L211.683 87.3262L205.508 82.6562L199.903 85.4013C199.903 85.4013 199.718 92.4412 199.903 95.4962C200.088 98.5512 203.173 98.8763 203.173 98.8763C203.173 98.8763 203.103 100.661 203.033 102.546C203.014 103.085 203.105 103.623 203.3 104.126C203.495 104.629 203.789 105.087 204.166 105.473C204.542 105.859 204.993 106.166 205.491 106.373C205.989 106.581 206.523 106.686 207.063 106.681C208.084 106.67 209.063 106.267 209.797 105.557C210.532 104.847 210.967 103.882 211.013 102.861Z" fill="#FFBE9D"/>
<path d="M200.518 90.5502C200.518 90.6273 200.54 90.7027 200.583 90.7668C200.626 90.831 200.687 90.881 200.758 90.9105C200.83 90.94 200.908 90.9477 200.984 90.9327C201.059 90.9176 201.129 90.8805 201.183 90.8259C201.238 90.7714 201.275 90.7019 201.29 90.6262C201.305 90.5506 201.297 90.4722 201.268 90.4009C201.238 90.3296 201.188 90.2687 201.124 90.2259C201.06 90.183 200.985 90.1602 200.908 90.1602C200.804 90.1602 200.705 90.2012 200.632 90.2744C200.559 90.3475 200.518 90.4467 200.518 90.5502Z" fill="#263238"/>
<path d="M200.138 90.1254C200.188 90.1754 200.478 89.9304 200.898 89.9054C201.318 89.8804 201.633 90.0854 201.678 90.0304C201.723 89.9754 201.648 89.9104 201.508 89.8154C201.323 89.6945 201.103 89.6382 200.883 89.6554C200.66 89.6657 200.447 89.7501 200.278 89.8954C200.153 90.0054 200.113 90.1054 200.138 90.1254Z" fill="#263238"/>
<path d="M205.048 90.5512C205.049 90.6282 205.073 90.7031 205.116 90.7665C205.159 90.83 205.221 90.8792 205.292 90.908C205.363 90.9367 205.442 90.9437 205.517 90.9281C205.592 90.9125 205.661 90.875 205.715 90.8203C205.769 90.7655 205.806 90.696 205.821 90.6205C205.835 90.545 205.827 90.4668 205.798 90.3959C205.768 90.3249 205.718 90.2643 205.654 90.2216C205.59 90.179 205.515 90.1563 205.438 90.1563C205.386 90.1562 205.335 90.1665 205.287 90.1864C205.24 90.2063 205.197 90.2355 205.16 90.2722C205.124 90.309 205.095 90.3526 205.076 90.4005C205.057 90.4484 205.047 90.4996 205.048 90.5512Z" fill="#263238"/>
<path d="M204.803 90.1236C204.853 90.1736 205.143 89.9286 205.563 89.9086C205.983 89.8886 206.298 90.0886 206.343 90.0286C206.388 89.9686 206.313 89.9136 206.173 89.8186C205.987 89.6983 205.767 89.6408 205.546 89.6543C205.324 89.6678 205.113 89.7516 204.943 89.8936C204.818 90.0036 204.778 90.1036 204.803 90.1236Z" fill="#263238"/>
<path d="M220.573 96.1172C220.189 96.1317 219.808 96.0456 219.468 95.8672C218.963 95.5984 218.543 95.193 218.258 94.6972C217.902 94.0787 217.6 93.4315 217.353 92.7622C216.783 91.3472 216.353 90.0272 216.058 89.0672L215.938 88.6572C215.918 88.5176 215.892 88.3791 215.858 88.2422C214.188 81.8772 208.588 80.6922 207.483 80.6922C206.293 80.6922 204.218 80.0422 201.188 83.1922C200.732 83.6631 200.347 84.1968 200.043 84.7772C199.375 85.6176 198.913 86.602 198.693 87.6522C198.563 88.1416 198.54 88.6529 198.623 89.1522C198.683 89.1522 198.693 88.5722 198.928 87.6872C199.066 87.167 199.263 86.6639 199.513 86.1872C199.253 87.3583 199.363 88.5813 199.828 89.6872L200.913 89.3872L204.798 88.0622C204.448 86.8572 204.963 85.3622 205.258 84.6622L205.288 84.6372C205.501 85.9129 206.115 87.0875 207.041 87.9903C207.967 88.8931 209.157 89.477 210.438 89.6572L211.163 99.6572C216.333 98.5472 216.208 91.6572 216.163 90.2272C216.398 91.0172 216.703 91.9272 217.083 92.8822C217.338 93.5668 217.656 94.2263 218.033 94.8522C218.354 95.3756 218.819 95.7956 219.373 96.0622C219.75 96.2375 220.171 96.2984 220.583 96.2372C220.868 96.1822 221.003 96.0922 220.998 96.0772C220.855 96.0815 220.713 96.0949 220.573 96.1172Z" fill="#67BC2A"/>
<path d="M203.287 93.6567C203.061 93.6052 202.83 93.5767 202.597 93.5717C202.492 93.5717 202.387 93.5717 202.362 93.4717C202.359 93.3619 202.385 93.2531 202.437 93.1567C202.527 92.8817 202.622 92.5917 202.727 92.2867C202.927 91.6667 203.097 91.1017 203.227 90.6917C203.308 90.4725 203.36 90.244 203.382 90.0117C203.268 90.214 203.178 90.4287 203.112 90.6517C202.967 91.0567 202.777 91.6117 202.577 92.2317C202.482 92.5417 202.392 92.8317 202.302 93.1117C202.241 93.2499 202.227 93.4047 202.262 93.5517C202.278 93.5893 202.303 93.6225 202.334 93.6486C202.366 93.6747 202.403 93.6929 202.442 93.7017C202.502 93.7108 202.563 93.7108 202.622 93.7017C202.845 93.7138 203.068 93.6987 203.287 93.6567Z" fill="#263238"/>
<path d="M212.012 93.5486C211.966 93.043 212.02 92.5331 212.172 92.0486C212.254 91.8067 212.4 91.5911 212.593 91.424C212.786 91.257 213.021 91.1447 213.272 91.0986C213.565 91.0869 213.852 91.1819 214.08 91.3658C214.308 91.5497 214.462 91.8101 214.512 92.0986C214.543 92.3899 214.488 92.6838 214.354 92.9441C214.22 93.2044 214.012 93.4198 213.757 93.5636C213.497 93.6997 213.209 93.775 212.916 93.7836C212.622 93.7923 212.33 93.7342 212.062 93.6136" fill="#FFBE9D"/>
<path d="M212.903 93.1024C212.903 93.0674 213.068 93.1424 213.283 93.1024C213.417 93.0547 213.533 92.9665 213.614 92.85C213.696 92.7335 213.739 92.5946 213.738 92.4524C213.75 92.381 213.746 92.3077 213.727 92.2378C213.708 92.1679 213.674 92.1029 213.628 92.0474C213.582 92.0094 213.53 91.9809 213.473 91.9637C213.416 91.9466 213.357 91.941 213.298 91.9474C213.068 91.9474 212.908 92.0274 212.893 91.9874C212.878 91.9474 212.998 91.8474 213.268 91.7674C213.353 91.7463 213.443 91.7444 213.529 91.7617C213.615 91.7789 213.697 91.815 213.768 91.8674C213.848 91.9435 213.909 92.0376 213.945 92.142C213.982 92.2463 213.993 92.3579 213.978 92.4674C213.967 92.677 213.888 92.8773 213.753 93.0374C213.637 93.1696 213.477 93.255 213.303 93.2774C213.013 93.2824 212.878 93.1174 212.903 93.1024Z" fill="#EB996E"/>
<path d="M210.337 82.3118C209.992 82.1789 209.682 81.9661 209.434 81.6905C209.187 81.415 209.008 81.0848 208.912 80.7268C208.829 80.368 208.842 79.9933 208.952 79.6416C209.062 79.29 209.264 78.9741 209.537 78.7268C209.823 78.4894 210.173 78.3437 210.542 78.3089C210.912 78.2741 211.283 78.3518 211.607 78.5318C212.109 78.8781 212.474 79.3894 212.637 79.9768C212.795 80.3491 212.838 80.7598 212.762 81.1568C212.669 81.4444 212.501 81.7024 212.277 81.9051C212.052 82.1078 211.778 82.248 211.482 82.3118C210.892 82.436 210.284 82.4529 209.687 82.3618" fill="#67BC2A"/>
<path d="M222.597 90.7761C222.65 90.5738 222.661 90.3626 222.627 90.1561C222.573 89.919 222.457 89.7002 222.292 89.5211C222.073 89.288 221.789 89.1245 221.477 89.0511C221.093 88.9576 220.696 88.9289 220.302 88.9661C219.872 88.9961 219.412 89.0711 218.907 89.0861C218.365 89.1181 217.826 88.9894 217.357 88.7161C216.889 88.3645 216.561 87.8575 216.432 87.2861C216.116 86.2813 215.597 85.352 214.907 84.5561C214.343 83.9071 213.678 83.3533 212.937 82.9161C212.24 82.5293 211.502 82.2208 210.737 81.9961C210.956 81.9999 211.173 82.0352 211.382 82.1011C211.957 82.2465 212.51 82.4667 213.027 82.7561C213.802 83.1836 214.499 83.7399 215.087 84.4011C215.812 85.2117 216.354 86.1682 216.677 87.2061C216.791 87.7216 217.081 88.1813 217.497 88.5061C217.924 88.751 218.411 88.869 218.902 88.8461C219.402 88.8461 219.847 88.7711 220.287 88.7511C220.704 88.7202 221.124 88.7608 221.527 88.8711C221.867 88.9658 222.172 89.1589 222.402 89.4261C222.573 89.6291 222.685 89.8745 222.727 90.1361C222.75 90.304 222.734 90.4748 222.682 90.6361C222.642 90.7311 222.602 90.7811 222.597 90.7761Z" fill="#67BC2A"/>
<path d="M212.578 82.9077C211.555 81.8988 210.258 81.2136 208.848 80.9377C209.588 80.9048 210.324 81.07 210.98 81.4163C211.636 81.7626 212.187 82.2774 212.578 82.9077Z" fill="#263238"/>
<path d="M203.173 98.8856C204.624 98.8228 206.027 98.3475 207.218 97.5156C207.218 97.5156 206.218 99.7706 203.143 99.6456L203.173 98.8856Z" fill="#EB996E"/>
<path d="M204.678 94.0664C204.035 94.3944 203.35 94.6316 202.643 94.7714C202.799 94.9824 203.02 95.1357 203.273 95.2071C203.525 95.2786 203.794 95.2643 204.038 95.1664C204.154 95.1393 204.263 95.0888 204.359 95.0179C204.454 94.9471 204.535 94.8574 204.595 94.7544C204.655 94.6514 204.693 94.5372 204.707 94.4189C204.721 94.3006 204.711 94.1807 204.678 94.0664Z" fill="white"/>
<path d="M210.273 118.922C209.123 121.807 207.823 124.707 207.208 124.762C200.438 125.382 193.208 123.137 190.653 122.262C190.393 121.972 190.098 121.627 189.773 121.197C189.493 120.831 189.277 120.42 189.133 119.982C188.938 119.444 188.817 118.882 188.773 118.312C188.785 118.201 188.763 118.089 188.708 117.992C188.653 117.895 188.569 117.818 188.467 117.771C188.366 117.724 188.253 117.711 188.143 117.733C188.034 117.755 187.934 117.81 187.858 117.892C187.568 118.272 187.493 119.722 188.158 121.282C188.823 122.842 186.463 121.602 185.593 121.167C184.723 120.732 181.968 119.502 181.618 119.667C181.118 119.902 181.273 120.492 182.153 120.907C183.033 121.322 185.578 122.757 185.323 123.207C185.068 123.657 180.678 121.362 180.678 121.362C180.678 121.362 179.813 120.722 179.508 121.232C178.948 122.147 183.803 124.232 184.273 124.422C184.593 124.552 184.338 125.047 183.998 124.887C183.658 124.727 179.663 122.507 179.083 123.437C178.638 124.147 183.083 125.187 183.633 126.107C184.183 127.027 180.358 124.977 179.963 125.677C179.818 125.937 179.743 126.152 182.123 127.007C183.869 127.547 185.644 127.993 187.438 128.342V128.367C187.438 128.367 211.713 139.232 216.308 128.747C217.408 126.247 218.488 123.812 219.103 122.377" fill="#FFBE9D"/>
<path d="M153.013 149.857L153.348 96.0075L149.928 95.9375L149.673 149.857H153.013Z" fill="#263238"/>
<path d="M60.8727 140.07L35.7677 162.865C34.8306 163.748 34.084 164.814 33.5741 165.996C33.0642 167.178 32.8017 168.453 32.8027 169.74C32.8027 174.97 37.2377 178.39 42.4677 178.37C55.2227 178.32 75.9327 177.56 75.7827 177.71C75.6327 177.86 75.9877 169.865 75.9877 169.865L46.6627 168.585L69.7527 148.89L60.8727 140.07Z" fill="#CC8F71"/>
<path d="M62.1871 145.73C62.1871 145.73 58.8721 175.365 59.1471 177.575C59.4221 179.785 60.2521 216.685 60.2521 216.685L68.0271 216.38L70.1271 177.475L76.6271 147.915L62.1871 145.73Z" fill="#CC8F71"/>
<path d="M58.9372 169.859C58.9749 170.359 58.9749 170.86 58.9372 171.359C58.9372 172.294 58.9372 173.584 58.9922 175.014C59.0472 176.444 59.1772 177.724 59.2772 178.654C59.3518 179.151 59.3952 179.652 59.4072 180.154C59.2485 179.667 59.1429 179.164 59.0922 178.654C58.9099 177.443 58.7898 176.223 58.7322 174.999C58.6757 173.775 58.6841 172.548 58.7572 171.324C58.7668 170.831 58.8271 170.34 58.9372 169.859Z" fill="#A8674A"/>
<path d="M43.8125 170.286C44.2321 169.882 44.7109 169.545 45.2325 169.286C45.7077 168.957 46.2304 168.702 46.7825 168.531C46.3608 168.932 45.8823 169.269 45.3625 169.531C44.8849 169.856 44.3628 170.111 43.8125 170.286Z" fill="#A8674A"/>
<path d="M38.3724 111.738L27.7274 104.348L27.2324 105.178L37.8074 112.663L38.3724 111.738Z" fill="#263238"/>
<path d="M34.7574 111.601C34.7574 111.601 33.4374 107.921 33.1174 107.156C32.7974 106.391 32.3074 105.006 32.1174 104.976C31.9274 104.946 31.1824 105.046 32.1174 107.386C33.0524 109.726 30.9374 108.251 30.9374 108.251L28.8974 106.811C28.8974 106.811 27.2674 111.501 28.1474 112.951C28.8392 114.038 29.6202 115.065 30.4824 116.021L34.7574 111.601Z" fill="#CC8F71"/>
<path d="M57.7878 89.1562C55.6178 90.6562 57.1978 93.5913 55.9528 94.8363C55.4878 95.2963 54.8278 95.5262 54.3728 95.9962C52.8078 97.6112 54.6128 100.661 53.2428 102.441C52.7778 103.051 52.0328 103.361 51.4228 103.831C50.6196 104.492 50.0779 105.416 49.8947 106.44C49.7114 107.463 49.8986 108.518 50.4228 109.416L62.4928 106.761L60.6128 90.3063L57.7878 89.1562Z" fill="#263238"/>
<path d="M72.3779 87.2891C73.1379 89.0891 75.9079 88.9041 77.2029 90.3641C78.0429 91.3141 78.0979 92.7741 78.9379 93.7191C79.7779 94.6641 81.1979 94.8441 82.3179 95.4591C84.5729 96.6941 85.3679 99.4591 85.9579 101.989C81.706 103.722 77.2783 104.988 72.7529 105.764C72.2229 105.859 70.3279 105.894 67.3379 106.469L66.3379 89.4941L72.3779 87.2891Z" fill="#263238"/>
<path d="M62.4771 108.505C62.4771 107.505 61.9771 103.005 61.9771 103.005C61.9771 103.005 58.7621 102.825 58.4121 99.6595C58.0621 96.4945 57.9121 89.1595 57.9121 89.1595L63.5971 86.0195L68.8921 90.7495L70.0671 106.475L62.4771 108.505Z" fill="#CC8F71"/>
<path d="M69.7628 93.0309C69.7628 93.0309 64.5029 92.7959 63.3429 88.0959L57.9379 93.6209C57.4044 92.5018 57.2225 91.2472 57.4162 90.0226C57.6098 88.798 58.17 87.6608 59.0229 86.7609C62.0229 83.3359 64.2029 83.9109 65.4329 83.8459C66.5879 83.7909 72.4629 84.7359 74.5229 91.2659C74.6729 91.7409 74.8328 92.9259 74.9429 93.4559L69.7628 93.0309Z" fill="#263238"/>
<path d="M58.687 94.4594C58.6934 94.5673 58.7422 94.6682 58.8228 94.7403C58.9033 94.8124 59.009 94.8498 59.117 94.8444C59.1967 94.8393 59.2731 94.8109 59.3366 94.7626C59.4002 94.7143 59.448 94.6482 59.4742 94.5728C59.5003 94.4974 59.5036 94.4159 59.4836 94.3386C59.4636 94.2613 59.4212 94.1917 59.3617 94.1384C59.3022 94.0852 59.2283 94.0507 59.1493 94.0393C59.0703 94.0279 58.9897 94.0401 58.9176 94.0744C58.8455 94.1087 58.7851 94.1636 58.7441 94.232C58.7031 94.3005 58.6832 94.3796 58.687 94.4594Z" fill="#263238"/>
<path d="M58.2722 94.0419C58.3272 94.0919 58.6172 93.8219 59.0522 93.7769C59.4872 93.7319 59.8272 93.9219 59.8722 93.8619C59.9172 93.8019 59.8322 93.7419 59.6822 93.6519C59.4842 93.5325 59.2517 93.4831 59.0222 93.5119C58.7926 93.5374 58.5772 93.6355 58.4072 93.7919C58.2822 93.9119 58.2472 94.0169 58.2722 94.0419Z" fill="#263238"/>
<path d="M63.3973 94.2312C63.4023 94.3109 63.4308 94.3873 63.4791 94.4509C63.5274 94.5144 63.5934 94.5623 63.6688 94.5884C63.7443 94.6146 63.8257 94.6179 63.903 94.5978C63.9803 94.5778 64.05 94.5354 64.1032 94.4759C64.1565 94.4165 64.191 94.3426 64.2023 94.2636C64.2137 94.1845 64.2015 94.1039 64.1672 94.0318C64.1329 93.9597 64.0781 93.8994 64.0096 93.8584C63.9411 93.8173 63.862 93.7975 63.7823 93.8012C63.7286 93.8038 63.676 93.817 63.6275 93.8401C63.579 93.8631 63.5356 93.8956 63.4998 93.9356C63.4639 93.9756 63.4364 94.0224 63.4188 94.0731C63.4012 94.1239 63.3939 94.1776 63.3973 94.2312Z" fill="#263238"/>
<path d="M63.1228 93.7969C63.1778 93.8469 63.4628 93.5769 63.8978 93.5319C64.3328 93.4869 64.6728 93.6819 64.7178 93.6219C64.7628 93.5619 64.6778 93.5019 64.5328 93.4119C64.3332 93.2959 64.1017 93.2469 63.8723 93.2721C63.6428 93.2973 63.4275 93.3953 63.2578 93.5519C63.1328 93.6569 63.0978 93.7769 63.1228 93.7969Z" fill="#263238"/>
<path d="M61.7275 97.57C61.4908 97.5209 61.2489 97.5024 61.0075 97.515C60.8975 97.515 60.7875 97.515 60.7575 97.42C60.7384 97.2998 60.754 97.1766 60.8025 97.065L61.0575 96.145C61.3021 95.362 61.486 94.5613 61.6075 93.75C61.3126 94.5159 61.0704 95.3011 60.8825 96.1C60.8025 96.425 60.7225 96.73 60.6425 97.025C60.5918 97.1741 60.5918 97.3359 60.6425 97.485C60.6626 97.5224 60.6903 97.5551 60.7239 97.5809C60.7575 97.6068 60.7962 97.6252 60.8375 97.635C60.9005 97.6448 60.9645 97.6448 61.0275 97.635C61.2626 97.642 61.4977 97.6202 61.7275 97.57Z" fill="#263238"/>
<path d="M63.1923 97.9119C63.6223 97.5969 62.0073 98.7019 61.1123 98.7469C61.2837 98.9602 61.5218 99.1097 61.7884 99.1714C62.0551 99.233 62.3346 99.2033 62.5823 99.0869C63.4973 98.6569 63.1923 97.9119 63.1923 97.9119Z" fill="white"/>
<path d="M61.877 102.997C63.382 102.857 64.8161 102.292 66.012 101.367C66.012 101.367 65.172 103.742 61.982 103.772L61.877 102.997Z" fill="#A8674A"/>
<path d="M63.4779 87.7076C63.4779 87.7076 62.4279 90.0126 63.0079 91.6776L58.0079 93.2426C58.0079 93.2426 56.5079 86.8526 63.4779 87.7076Z" fill="#263238"/>
<path d="M70.0375 179.154L38.3125 158.209C45.0225 151.029 52.3125 144.709 60.4975 139.609L79.7475 138.324C81.7775 153.849 70.1275 166.689 70.0375 179.154Z" fill="#263238"/>
<path d="M60.2774 216.035L60.2324 217.415C60.2324 217.415 53.4524 218.745 55.0724 219.285C56.5174 219.785 65.4724 219.68 67.6624 219.62H68.1624V216.335L60.2774 216.035Z" fill="#67BC2A"/>
<g opacity="0.5">
<path d="M65.2822 219.461C65.4158 218.794 65.7939 218.202 66.3422 217.801C66.8764 217.395 67.5449 217.207 68.2122 217.276L68.1472 219.491L65.2822 219.461Z" fill="white"/>
</g>
<g opacity="0.5">
<path d="M56.9374 218.18C56.9374 218.18 54.5574 218.795 54.8374 219.18C55.1174 219.565 64.1724 219.825 68.1724 219.59V219.41L57.6124 219.205C57.6124 219.205 57.3774 218.215 56.9374 218.18Z" fill="white"/>
</g>
<path d="M68.2723 219.425H68.1323H67.7423H66.3023C65.0823 219.425 63.3973 219.425 61.5423 219.375C59.6873 219.325 58.0023 219.245 56.7873 219.17L55.3473 219.07L54.9573 219.035H54.8223H54.9373H55.3273L56.7723 219.105C57.9873 219.165 59.6673 219.235 61.5223 219.285C63.3773 219.335 65.0623 219.355 66.2823 219.36H67.7223H68.1123C68.1678 219.376 68.2215 219.398 68.2723 219.425Z" fill="#263238"/>
<path d="M57.5879 219.346C57.5288 219.106 57.4451 218.873 57.3379 218.651C57.1921 218.445 57.0244 218.256 56.8379 218.086C57.0786 218.18 57.2774 218.357 57.3979 218.586C57.5569 218.805 57.625 219.078 57.5879 219.346Z" fill="#263238"/>
<path d="M59.9371 218.225C59.9371 218.225 59.8071 218.1 59.6971 217.915C59.6184 217.808 59.5638 217.685 59.5371 217.555C59.5621 217.555 59.6671 217.68 59.7771 217.865C59.8871 218.05 59.9821 218.21 59.9371 218.225Z" fill="#263238"/>
<path d="M60.6076 217.899C60.6076 217.899 60.4676 217.834 60.3376 217.709C60.2076 217.584 60.1076 217.464 60.1276 217.444C60.1476 217.424 60.2676 217.509 60.4026 217.639C60.5376 217.769 60.6276 217.884 60.6076 217.899Z" fill="#263238"/>
<path d="M61.037 217.156C60.9034 217.2 60.7616 217.214 60.622 217.196C60.392 217.196 60.207 217.171 60.207 217.141C60.3407 217.097 60.4824 217.084 60.622 217.101C60.7627 217.09 60.9041 217.109 61.037 217.156Z" fill="#263238"/>
<path d="M61.1925 216.656C61.0532 216.743 60.8915 216.786 60.7275 216.781C60.5566 216.809 60.3813 216.781 60.2275 216.701C60.384 216.689 60.5411 216.689 60.6975 216.701C60.8609 216.672 61.0265 216.657 61.1925 216.656Z" fill="#263238"/>
<path d="M59.7077 217.526C59.5422 217.554 59.3732 217.554 59.2077 217.526C59.0261 217.495 58.8472 217.45 58.6727 217.391C58.5645 217.356 58.4605 217.309 58.3627 217.251C58.3328 217.234 58.3067 217.211 58.286 217.183C58.2654 217.156 58.2506 217.124 58.2427 217.091C58.2355 217.053 58.2397 217.013 58.2548 216.978C58.2699 216.942 58.2953 216.912 58.3277 216.891C58.5241 216.8 58.7463 216.78 58.9555 216.836C59.1647 216.892 59.3478 217.019 59.4727 217.196C59.55 217.297 59.603 217.415 59.6277 217.541C59.6396 217.585 59.6396 217.632 59.6277 217.676C59.5813 217.517 59.5068 217.368 59.4077 217.236C59.2974 217.099 59.1498 216.996 58.9827 216.941C58.8862 216.9 58.7825 216.879 58.6777 216.879C58.573 216.879 58.4693 216.9 58.3727 216.941C58.2927 217.001 58.3177 217.096 58.4077 217.151C58.4989 217.202 58.5942 217.246 58.6927 217.281C58.8555 217.343 59.0226 217.393 59.1927 217.431C59.5177 217.506 59.7077 217.511 59.7077 217.526Z" fill="#263238"/>
<path d="M59.5774 217.544C59.5175 217.436 59.4997 217.31 59.5274 217.189C59.5462 217.057 59.5978 216.931 59.6774 216.824C59.7211 216.749 59.7837 216.686 59.8592 216.642C59.9346 216.598 60.0202 216.575 60.1074 216.574C60.1585 216.587 60.2026 216.619 60.2305 216.664C60.2584 216.709 60.2681 216.763 60.2574 216.814C60.2438 216.895 60.2131 216.971 60.1674 217.039C60.0968 217.149 60.0128 217.25 59.9174 217.339C59.8363 217.431 59.733 217.499 59.6174 217.539C59.6174 217.539 59.7224 217.449 59.8674 217.294C59.9518 217.203 60.0256 217.102 60.0874 216.994C60.1624 216.889 60.2174 216.694 60.0874 216.669C59.9574 216.644 59.8274 216.774 59.7474 216.874C59.6727 216.972 59.6198 217.084 59.5924 217.204C59.5743 217.317 59.5693 217.431 59.5774 217.544Z" fill="#263238"/>
<path d="M68.1677 217.251C68.1677 217.251 67.9427 217.226 67.5827 217.251C67.1152 217.291 66.6686 217.462 66.2937 217.744C65.9188 218.026 65.6308 218.408 65.4627 218.846C65.3327 219.186 65.3127 219.411 65.2977 219.411C65.2827 219.411 65.2977 219.351 65.2977 219.251C65.3172 219.106 65.3506 218.964 65.3977 218.826C65.5526 218.364 65.8437 217.959 66.2328 217.666C66.6219 217.372 67.0907 217.203 67.5777 217.181C67.7231 217.176 67.8687 217.185 68.0127 217.206C68.0664 217.212 68.1188 217.228 68.1677 217.251Z" fill="#263238"/>
<path d="M64.3073 218.657C63.9258 218.734 63.5358 218.761 63.1473 218.737C62.7569 218.746 62.3669 218.704 61.9873 218.612C61.9873 218.587 62.4873 218.612 63.1473 218.642C63.8073 218.672 64.3023 218.657 64.3073 218.657Z" fill="#263238"/>
<path d="M65.8573 218.703C65.8573 218.703 65.8123 218.813 65.7573 218.928C65.7023 219.043 65.6723 219.148 65.6423 219.148C65.6123 219.148 65.6073 219.023 65.6723 218.888C65.7373 218.753 65.8423 218.683 65.8573 218.703Z" fill="#263238"/>
<path d="M66.4678 217.987C66.4678 217.987 66.4328 218.087 66.3478 218.172C66.2628 218.257 66.1778 218.302 66.1628 218.282C66.1478 218.262 66.1978 218.182 66.2778 218.102C66.3578 218.022 66.4378 217.972 66.4678 217.987Z" fill="#263238"/>
<path d="M67.3123 217.658C67.3123 217.688 67.2023 217.658 67.0823 217.723C66.9623 217.788 66.8823 217.818 66.8573 217.798C66.8323 217.778 66.9073 217.673 67.0523 217.628C67.1973 217.583 67.3223 217.658 67.3123 217.658Z" fill="#263238"/>
<path d="M67.9376 217.534C67.9376 217.559 67.9026 217.599 67.8326 217.624C67.7626 217.649 67.7076 217.649 67.6976 217.624C67.6876 217.599 67.7376 217.559 67.8026 217.534C67.8676 217.509 67.9026 217.509 67.9376 217.534Z" fill="#263238"/>
<path d="M74.7578 177.801L76.1378 177.846C76.1378 177.846 77.4628 184.626 78.0028 183.006C78.5028 181.561 78.4028 172.606 78.3428 170.416V169.916L75.0628 169.891L74.7578 177.801Z" fill="#67BC2A"/>
<g opacity="0.5">
<path d="M78.1822 172.797C77.515 172.663 76.9216 172.285 76.5172 171.737C76.1221 171.199 75.9436 170.531 76.0172 169.867L78.2322 169.932L78.1822 172.797Z" fill="white"/>
</g>
<g opacity="0.5">
<path d="M76.9023 181.157C76.9023 181.157 77.5173 183.537 77.9023 183.252C78.2873 182.967 78.5523 173.922 78.3123 169.922H78.1373L77.9373 180.492C77.9373 180.492 76.9373 180.702 76.9023 181.157Z" fill="white"/>
</g>
<path d="M78.1469 169.805C78.1469 169.805 78.1469 169.855 78.1469 169.945C78.1469 170.035 78.1469 170.19 78.1469 170.335C78.1469 170.725 78.1469 171.21 78.1469 171.775C78.1469 172.995 78.1469 174.68 78.0969 176.535C78.0469 178.39 77.9619 180.075 77.8869 181.29C77.8469 181.86 77.8169 182.34 77.7869 182.73C77.7869 182.876 77.7769 183.006 77.7569 183.12C77.7623 183.165 77.7623 183.21 77.7569 183.255C77.7503 183.21 77.7503 183.164 77.7569 183.12C77.7569 183 77.7569 182.875 77.7569 182.725C77.7569 182.335 77.7969 181.855 77.8269 181.285C77.8819 180.07 77.9569 178.39 78.0069 176.535C78.0569 174.68 78.0769 172.995 78.0819 171.775C78.0819 171.21 78.0819 170.725 78.0819 170.335C78.0819 170.19 78.0819 170.06 78.0819 169.945C78.0954 169.895 78.1174 169.847 78.1469 169.805Z" fill="#263238"/>
<path d="M78.0676 180.49C77.8277 180.548 77.5947 180.632 77.3726 180.74C77.1667 180.876 76.9772 181.036 76.8076 181.215C76.9016 180.974 77.0791 180.776 77.3076 180.655C77.5311 180.506 77.8025 180.447 78.0676 180.49Z" fill="#263238"/>
<path d="M76.9377 178.123C76.8506 178.224 76.7433 178.305 76.6227 178.363C76.5162 178.442 76.3931 178.497 76.2627 178.523C76.2627 178.498 76.3877 178.393 76.5727 178.278C76.7577 178.163 76.9377 178.098 76.9377 178.123Z" fill="#263238"/>
<path d="M76.6228 177.466C76.6228 177.466 76.5578 177.611 76.4278 177.741C76.2978 177.871 76.1828 177.971 76.1678 177.951C76.1528 177.931 76.2328 177.811 76.3578 177.676C76.4828 177.541 76.6028 177.451 76.6228 177.466Z" fill="#263238"/>
<path d="M75.8877 177.039C75.9318 177.173 75.9455 177.314 75.9277 177.454C75.9389 177.595 75.9201 177.736 75.8727 177.869C75.8287 177.735 75.815 177.594 75.8327 177.454C75.8216 177.313 75.8403 177.172 75.8877 177.039Z" fill="#263238"/>
<path d="M75.3623 176.887C75.4487 177.026 75.4905 177.188 75.4823 177.352C75.5076 177.514 75.4814 177.68 75.4073 177.827C75.395 177.67 75.395 177.513 75.4073 177.357C75.3793 177.202 75.3643 177.044 75.3623 176.887Z" fill="#263238"/>
<path d="M76.2476 178.371C76.2773 178.536 76.2773 178.706 76.2476 178.871C76.2222 179.055 76.1769 179.236 76.1126 179.411C76.0816 179.52 76.0362 179.624 75.9776 179.721C75.9405 179.779 75.8837 179.822 75.8176 179.841C75.7788 179.849 75.7387 179.845 75.7022 179.83C75.6657 179.815 75.6345 179.789 75.6126 179.756C75.5243 179.559 75.5064 179.338 75.5619 179.129C75.6175 178.921 75.7431 178.738 75.9176 178.611C76.0202 178.535 76.1378 178.483 76.2626 178.456C76.3085 178.444 76.3567 178.444 76.4026 178.456C76.2428 178.5 76.0933 178.574 75.9626 178.676C75.8239 178.785 75.7211 178.933 75.6676 179.101C75.6308 179.199 75.6141 179.304 75.6183 179.409C75.6226 179.513 75.6479 179.616 75.6926 179.711C75.7476 179.791 75.8426 179.761 75.9026 179.676C75.9539 179.585 75.9974 179.49 76.0326 179.391C76.0947 179.228 76.1449 179.061 76.1826 178.891C76.2226 178.561 76.2326 178.371 76.2476 178.371Z" fill="#263238"/>
<path d="M76.2679 178.502C76.1598 178.562 76.0333 178.579 75.9128 178.552C75.7793 178.532 75.6523 178.481 75.5429 178.402C75.4682 178.357 75.4064 178.294 75.3634 178.219C75.3205 178.144 75.2979 178.058 75.2979 177.972C75.3037 177.946 75.3146 177.922 75.3299 177.9C75.3451 177.879 75.3645 177.861 75.3868 177.847C75.409 177.833 75.4339 177.823 75.4598 177.819C75.4857 177.815 75.5122 177.816 75.5378 177.822C75.6184 177.835 75.6951 177.866 75.7628 177.912C75.8728 177.982 75.9735 178.066 76.0629 178.162C76.152 178.245 76.2205 178.347 76.2628 178.462C76.2628 178.462 76.1728 178.357 76.0128 178.212C75.9231 178.126 75.8242 178.05 75.7178 177.987C75.6078 177.917 75.4179 177.862 75.3929 177.987C75.3679 178.112 75.4979 178.247 75.5979 178.327C75.6942 178.4 75.8049 178.453 75.9229 178.482C76.0367 178.501 76.1525 178.508 76.2679 178.502Z" fill="#263238"/>
<path d="M75.9725 169.91C75.9617 170.105 75.9617 170.301 75.9725 170.495C76.0176 170.963 76.1906 171.41 76.4725 171.785C76.7555 172.16 77.1385 172.448 77.5775 172.615C77.7628 172.68 77.9514 172.735 78.1425 172.78C78.0897 172.791 78.0353 172.791 77.9825 172.78C77.8376 172.766 77.6949 172.734 77.5575 172.685C77.0953 172.531 76.6908 172.239 76.3972 171.85C76.1036 171.461 75.9346 170.992 75.9125 170.505C75.9056 170.36 75.914 170.214 75.9375 170.07C75.9375 169.96 75.9675 169.905 75.9725 169.91Z" fill="#263238"/>
<path d="M77.3776 173.77C77.4581 174.151 77.4867 174.541 77.4626 174.93C77.4715 175.32 77.4295 175.71 77.3376 176.09C77.3076 176.09 77.3376 175.59 77.3676 174.93C77.3976 174.27 77.3526 173.775 77.3776 173.77Z" fill="#263238"/>
<path d="M77.4379 172.215C77.4379 172.215 77.5429 172.265 77.6629 172.32C77.7829 172.375 77.8829 172.405 77.8829 172.435C77.8829 172.465 77.7529 172.47 77.6179 172.405C77.4829 172.34 77.4029 172.235 77.4379 172.215Z" fill="#263238"/>
<path d="M76.7078 171.609C76.7078 171.609 76.8078 171.644 76.8878 171.729C76.9678 171.814 77.0228 171.899 77.0028 171.914C76.9828 171.929 76.9028 171.879 76.8178 171.799C76.7328 171.719 76.6878 171.654 76.7078 171.609Z" fill="#263238"/>
<path d="M76.3977 170.766C76.4277 170.766 76.4227 170.876 76.4577 170.996C76.4927 171.116 76.5577 171.196 76.5377 171.216C76.5177 171.236 76.4127 171.171 76.3677 171.021C76.3227 170.871 76.3727 170.756 76.3977 170.766Z" fill="#263238"/>
<path d="M76.257 170.156C76.282 170.156 76.322 170.191 76.347 170.261C76.372 170.331 76.347 170.386 76.347 170.396C76.347 170.406 76.282 170.356 76.262 170.291C76.242 170.226 76.232 170.156 76.257 170.156Z" fill="#263238"/>
<path d="M34.6423 111.246C34.8573 110.746 47.5673 122.036 50.1423 121.151C51.3473 120.736 54.7073 117.276 57.9473 113.696V113.616C59.7599 110.568 62.0917 107.861 64.8373 105.616C65.4899 105.09 66.2561 104.722 67.0752 104.543C67.8943 104.364 68.744 104.377 69.5569 104.583C70.3698 104.789 71.1238 105.181 71.7591 105.728C72.3944 106.275 72.8936 106.963 73.2173 107.736C75.7173 113.701 75.4023 121.151 78.1123 132.366L78.3023 133.051L78.2623 132.981C78.6723 134.631 79.1523 136.356 79.7073 138.171L78.3023 133.051C78.6427 133.643 79.0342 134.203 79.4723 134.726C79.9989 135.241 80.4053 135.866 80.6623 136.556C80.8423 137.271 80.4673 138.186 79.7373 138.266V138.326L60.7773 139.596V139.656C60.4216 139.689 60.0647 139.61 59.7557 139.431C59.4467 139.252 59.2009 138.981 59.0523 138.656C58.7669 138 58.7209 137.264 58.9223 136.576C59.1234 135.892 59.3758 135.223 59.6773 134.576C59.7673 134.351 59.8523 134.121 59.9273 133.891L59.3723 128.256C55.4223 131.116 51.5623 133.391 49.6273 133.056C44.7523 132.211 29.4873 116.781 29.4873 116.781C29.4873 116.781 34.4373 111.721 34.6423 111.246Z" fill="#455A64"/>
<path d="M72.1028 111.977C72.0328 112.248 71.9374 112.513 71.8178 112.767C71.6228 113.267 71.3178 113.987 70.8778 114.852C70.4378 115.717 69.8778 116.732 69.2228 117.822C68.4794 118.993 67.6767 120.127 66.8178 121.217C65.9442 122.295 65.0146 123.326 64.0328 124.307C63.1178 125.207 62.2578 125.972 61.5028 126.577C60.7478 127.182 60.1278 127.657 59.6778 127.957C59.4546 128.127 59.217 128.277 58.9678 128.407C59.1705 128.212 59.3878 128.033 59.6178 127.872C60.0478 127.547 60.6528 127.062 61.3878 126.437C62.1228 125.812 62.9628 125.037 63.8628 124.142C64.7628 123.247 65.6928 122.197 66.6128 121.052C67.5328 119.907 68.3278 118.757 69.0178 117.692C69.7078 116.627 70.2728 115.627 70.7128 114.772C71.1528 113.917 71.5028 113.217 71.7128 112.727C71.8229 112.467 71.9533 112.216 72.1028 111.977Z" fill="#263238"/>
<path d="M50.0279 125.315C49.8405 124.664 49.7347 123.992 49.7129 123.315C49.6075 122.644 49.5873 121.962 49.6529 121.285C49.8434 121.936 49.9509 122.608 49.9729 123.285C50.0782 123.957 50.0967 124.639 50.0279 125.315Z" fill="#263238"/>
<path d="M51.042 125.102C50.5693 123.954 50.2612 122.746 50.127 121.512C50.5996 122.659 50.9077 123.868 51.042 125.102Z" fill="#263238"/>
<path d="M40.6374 78.3516C40.4787 77.6816 40.0943 77.0865 39.5488 76.6663C39.0033 76.2461 38.3299 76.0264 37.6415 76.0439C36.9531 76.0615 36.2918 76.3154 35.7684 76.7629C35.2451 77.2104 34.8916 77.8243 34.7674 78.5016C34.6431 77.8243 34.2897 77.2104 33.7663 76.7629C33.243 76.3154 32.5816 76.0615 31.8933 76.0439C31.2049 76.0264 30.5315 76.2461 29.9859 76.6663C29.4404 77.0865 29.0561 77.6816 28.8974 78.3516C28.7543 79.3751 29.0083 80.4145 29.6074 81.2566C30.2056 82.085 30.908 82.8328 31.6974 83.4816C32.7624 84.4366 33.7424 85.3366 34.8074 86.2916C35.8724 85.3366 36.7774 84.4366 37.8424 83.4816C38.6335 82.8331 39.3376 82.0853 39.9374 81.2566C40.5372 80.4151 40.7881 79.374 40.6374 78.3516Z" fill="#67BC2A"/>
<path d="M46.1326 86.1215C46.1326 86.1215 46.1776 86.2465 46.2476 86.4815L46.5626 87.5315C46.8326 88.4665 47.2226 89.8215 47.7276 91.5565L47.7576 91.6615L47.6526 91.6315L42.6526 90.4065H42.7276C41.316 91.5179 39.6967 92.3362 37.9646 92.8137C36.2326 93.2912 34.4227 93.4181 32.641 93.1871C30.8593 92.956 29.1416 92.3717 27.5886 91.4683C26.0357 90.5649 24.6786 89.3606 23.5971 87.9259C22.5156 86.4913 21.7312 84.8552 21.2901 83.1136C20.8491 81.372 20.76 79.5598 21.0283 77.7833C21.2966 76.0068 21.9168 74.3017 22.8525 72.768C23.7882 71.2343 25.0207 69.9028 26.4776 68.8515C28.8 67.2006 31.5885 66.3336 34.4376 66.3765C35.7552 66.4055 37.0625 66.6158 38.3226 67.0015C39.5015 67.3917 40.6256 67.9311 41.6676 68.6065C43.5244 69.8496 45.0542 71.5218 46.1276 73.4815C46.9873 75.1072 47.511 76.8892 47.6676 78.7215C47.7876 80.1016 47.6897 81.4919 47.3776 82.8415C47.1816 83.6917 46.8984 84.5194 46.5326 85.3115C46.4076 85.5865 46.3076 85.7865 46.2326 85.9215C46.1576 86.0565 46.1176 86.1215 46.1176 86.1215C46.1176 86.1215 46.1176 86.0515 46.2076 85.9115C46.2976 85.7715 46.3676 85.5665 46.4876 85.2915C46.8282 84.4949 47.0927 83.6679 47.2776 82.8215C47.5718 81.481 47.6545 80.1026 47.5226 78.7365C47.3413 76.7319 46.707 74.7947 45.6676 73.0711C44.6282 71.3474 43.2109 69.8824 41.5226 68.7865C39.4173 67.4 36.9583 66.6469 34.4376 66.6165C33.0842 66.6131 31.7372 66.8034 30.4376 67.1815C29.085 67.604 27.8051 68.2312 26.6426 69.0415C25.2018 70.074 23.9821 71.3843 23.0553 72.8952C22.1285 74.4062 21.5133 76.0872 21.2459 77.8395C20.9785 79.5918 21.0644 81.3798 21.4984 83.0984C21.9325 84.817 22.7059 86.4314 23.7732 87.8466C24.8405 89.2617 26.1801 90.4491 27.7132 91.3388C29.2463 92.2285 30.9419 92.8025 32.7002 93.0271C34.4584 93.2517 36.2438 93.1222 37.9513 92.6464C39.6588 92.1706 41.2539 91.358 42.6426 90.2565H42.6726H42.7126L47.7126 91.5265L47.6376 91.6065C47.1376 89.8565 46.7826 88.4865 46.5276 87.5465L46.2476 86.4965C46.1526 86.2415 46.1326 86.1215 46.1326 86.1215Z" fill="#263238"/>
</svg>
