<svg width="13" height="15" viewBox="0 0 13 15" fill="none" xmlns="http://www.w3.org/2000/svg">
    <path d="M8.10915 3.51643C8.18428 3.74074 8.22366 3.97564 8.22577 4.21241C8.22577 4.40618 8.06895 4.56328 7.87568 4.56328C7.68241 4.56328 7.52558 4.40617 7.52558 4.21241C7.52558 3.43819 6.9759 2.80859 6.30043 2.80859C5.62496 2.80859 5.07528 3.43819 5.07528 4.21241C5.07528 4.40618 4.91846 4.56328 4.72518 4.56328C4.53191 4.56328 4.37509 4.40617 4.37509 4.21241C4.3772 3.97564 4.41658 3.74074 4.49171 3.51643C4.18908 3.53135 3.90791 3.67741 3.72131 3.91678C3.5346 4.15601 3.46111 4.46494 3.51971 4.76292C3.5782 5.06091 3.76315 5.31873 4.0264 5.46913C4.13399 5.53212 4.2001 5.64762 4.2001 5.77241V7.01996H8.40076V5.77241C8.40076 5.64762 8.46687 5.53211 8.57446 5.46913C8.83771 5.31873 9.02267 5.06094 9.08115 4.76292C9.13975 4.46494 9.06627 4.15601 8.87956 3.91678C8.69296 3.67742 8.41178 3.53138 8.10915 3.51643Z" fill="#67BC2A" />
    <path d="M4.11328 7.72266H8.31394V8.42468H4.11328V7.72266Z" fill="#67BC2A" />
    <path d="M12.2518 0.000213827H1.40026C1.02895 0.000566346 0.673126 0.148621 0.410585 0.411842C0.148043 0.674933 0.000480076 1.03178 0 1.40391V11.5899C0.301337 11.358 0.670306 11.2315 1.05017 11.2302H12.602V0.350868C12.602 0.257803 12.5652 0.168502 12.4995 0.1027C12.4339 0.0368976 12.3448 -0.000117038 12.2519 2.78021e-07L12.2518 0.000213827ZM9.10127 5.95895V8.77363C9.10139 8.86681 9.06447 8.95611 8.99883 9.02191C8.9332 9.08771 8.84412 9.12461 8.7513 9.12461H3.85032C3.75749 9.12461 3.66842 9.08771 3.60278 9.02191C3.53715 8.95611 3.50023 8.86681 3.50035 8.77363V5.95895C3.10593 5.66319 2.85455 5.21433 2.80802 4.7228C2.76149 4.23128 2.92417 3.74307 3.25611 3.37821C3.58793 3.01348 4.05804 2.8062 4.55054 2.80761C4.65052 2.81149 4.75002 2.82394 4.84789 2.84509C5.18686 2.38037 5.72658 2.10576 6.30078 2.10576C6.87498 2.10576 7.41471 2.38037 7.75367 2.84509C7.85154 2.82394 7.95105 2.81149 8.05102 2.80761C8.54352 2.8062 9.01364 3.01348 9.34546 3.37821C9.67737 3.74307 9.84006 4.23128 9.79355 4.7228C9.74702 5.21433 9.49561 5.66319 9.10122 5.95895H9.10127Z" fill="#67BC2A" />
    <path d="M0 12.9867C0 13.2661 0.110642 13.5339 0.307548 13.7314C0.504571 13.9288 0.771692 14.0398 1.05017 14.0398H12.602V11.9336H1.05017C0.771686 11.9336 0.504559 12.0445 0.307548 12.2421C0.110642 12.4396 0 12.7074 0 12.9867Z" fill="#67BC2A" />
</svg>