<svg width="70" height="117" viewBox="0 0 70 117" fill="none" xmlns="http://www.w3.org/2000/svg">
<path d="M46.9395 12.8125C46.9395 16.0576 45.6035 20.8865 43.4012 24.908C42.3048 26.91 41.0233 28.6563 39.6396 29.8899C38.2539 31.1252 36.8368 31.7865 35.4395 31.7865C34.0421 31.7865 32.625 31.1252 31.2393 29.8899C29.8556 28.6563 28.5741 26.91 27.4777 24.908C25.2754 20.8865 23.9395 16.0576 23.9395 12.8125C23.9395 6.46123 29.0882 1.3125 35.4395 1.3125C41.7907 1.3125 46.9395 6.46123 46.9395 12.8125Z" stroke="black" stroke-width="2"/>
<line x1="1.94749" y1="105.098" x2="5.21507" y2="55.663" stroke="black" stroke-width="2"/>
<path d="M23.6676 36.844C23.6676 36.844 19.4815 38.297 17.0188 39.6751C14.7178 40.9628 13.3691 41.7 11.4873 43.5472C9.58324 45.4162 8.71136 46.7131 7.47705 49.0786C6.15592 51.6105 5.14763 56.0104 5.14763 56.0104" stroke="black" stroke-width="2"/>
<path d="M19.9192 56.6774C20.0551 56.1421 19.7313 55.598 19.196 55.4621C18.6607 55.3262 18.1166 55.65 17.9807 56.1853L19.9192 56.6774ZM17.2111 63.8924L18.1914 64.0895L17.2111 63.8924ZM15.0412 80.1495L16.0324 80.2819L16.0351 80.2611L16.037 80.2401L15.0412 80.1495ZM13.4438 92.1081L12.4526 91.9757L13.4438 92.1081ZM18.1914 64.0895C18.4823 62.6425 18.9133 60.7925 19.2737 59.2961C19.4536 58.5497 19.6151 57.8945 19.7316 57.426C19.7898 57.1918 19.8368 57.0043 19.8692 56.8755C19.8854 56.8111 19.8979 56.7614 19.9064 56.7279C19.9106 56.7112 19.9139 56.6984 19.916 56.69C19.9171 56.6857 19.9179 56.6825 19.9184 56.6804C19.9187 56.6794 19.9189 56.6786 19.919 56.6781C19.9191 56.6778 19.9191 56.6776 19.9192 56.6775C19.9192 56.6775 19.9192 56.6774 19.9192 56.6774C19.9192 56.6774 19.9192 56.6774 18.9499 56.4313C17.9807 56.1853 17.9807 56.1853 17.9807 56.1854C17.9806 56.1854 17.9806 56.1855 17.9806 56.1856C17.9806 56.1857 17.9805 56.1859 17.9804 56.1862C17.9803 56.1868 17.9801 56.1877 17.9798 56.1888C17.9792 56.1911 17.9784 56.1945 17.9772 56.1989C17.975 56.2077 17.9717 56.2208 17.9674 56.2379C17.9587 56.2721 17.946 56.3225 17.9296 56.3877C17.8968 56.518 17.8494 56.7072 17.7907 56.9433C17.6733 57.4154 17.5106 58.0755 17.3294 58.8277C16.9678 60.3287 16.5293 62.2092 16.2307 63.6954L18.1914 64.0895ZM15.0412 80.1495C16.037 80.2401 16.037 80.2401 16.037 80.2401C16.0371 80.24 16.0371 80.2399 16.0371 80.2398C16.0371 80.2396 16.0371 80.2391 16.0372 80.2386C16.0373 80.2375 16.0374 80.2357 16.0377 80.2334C16.0381 80.2288 16.0387 80.2218 16.0396 80.2124C16.0413 80.1937 16.0439 80.1657 16.0473 80.1288C16.0542 80.0549 16.0645 79.9455 16.0781 79.8038C16.1052 79.5204 16.1454 79.108 16.1976 78.5933C16.3021 77.5638 16.4544 76.1257 16.646 74.4923C17.0302 71.218 17.5689 67.1873 18.1914 64.0895L16.2307 63.6954C15.5912 66.8771 15.045 70.975 14.6597 74.2593C14.4666 75.9053 14.3131 77.354 14.2078 78.3915C14.1552 78.9103 14.1146 79.3265 14.0872 79.6132C14.0735 79.7566 14.063 79.8677 14.056 79.9431C14.0525 79.9808 14.0498 80.0096 14.048 80.029C14.0471 80.0387 14.0464 80.0461 14.046 80.0511C14.0458 80.0536 14.0456 80.0555 14.0455 80.0568C14.0454 80.0575 14.0454 80.058 14.0453 80.0583C14.0453 80.0585 14.0453 80.0586 14.0453 80.0587C14.0453 80.0588 14.0453 80.0589 15.0412 80.1495ZM12.8376 104.199L14.435 92.2405L12.4526 91.9757L10.8552 103.934L12.8376 104.199ZM14.435 92.2405L16.0324 80.2819L14.05 80.0171L12.4526 91.9757L14.435 92.2405Z" fill="black"/>
<line x1="67.9123" y1="104.261" x2="64.6779" y2="55.2235" stroke="black" stroke-width="2"/>
<path d="M58.1465 105.57C57.2384 96.3306 56.7293 91.1502 55.8213 81.9104C55.1823 75.3502 55.3966 71.5918 54.1955 65.1109C53.5348 61.5457 52.0703 56.0728 52.0703 56.0728" stroke="black" stroke-width="2" stroke-linecap="round"/>
<path d="M46.9034 36.8721C49.5042 38.0858 51.1445 38.4348 53.5631 39.9799C55.5607 41.2561 58.2931 43.7838 58.2931 43.7838C58.2931 43.7838 61.0618 46.7672 62.3017 49.0269C63.625 51.4387 64.1641 52.9597 64.6553 55.6665" stroke="black" stroke-width="2"/>
<line x1="23.2728" y1="36.8789" x2="47.3471" y2="37.0058" stroke="black" stroke-width="2"/>
<path d="M18.8944 56.6523C18.8944 56.6523 20.2089 62.1644 20.6017 65.9202C21.0601 70.3033 21.3632 71.5366 21.5377 75.9402C21.6927 79.8523 21.3371 82.8474 21.1821 86.7595C21.0076 91.1631 19.7761 94.9779 19.4311 99.3713C18.9171 105.917 19.4311 108.217 19.4311 115.208" stroke="black" stroke-width="2" stroke-linecap="round"/>
<path d="M51.9414 56.6484C51.9414 56.6484 50.1552 60.9178 49.4765 63.7885C48.4828 67.9919 48.5424 70.4895 48.5368 74.8087C48.5311 79.1945 49.1336 81.6274 49.4765 85.9998C49.7224 89.1348 49.7431 90.9028 50.0745 94.03C50.5081 98.1212 51.3079 100.349 51.6122 104.452C51.9231 108.644 51.6122 115.216 51.6122 115.216" stroke="black" stroke-width="2" stroke-linecap="round"/>
<path d="M35.4395 104.602L35.4395 115.208" stroke="black" stroke-width="2" stroke-linecap="round"/>
<path d="M2.02343 104.094C2.02343 104.094 1.85918 105.153 2.02458 105.797C2.15632 106.31 2.32637 106.573 2.61478 107.018C3.22479 107.957 3.74644 108.443 4.75848 108.923C5.69813 109.369 6.34291 109.494 7.37855 109.4C8.5614 109.291 9.25194 108.953 10.1773 108.209C10.8592 107.66 10.8672 107.505 11.2262 106.706C11.6593 105.743 11.8667 103.79 11.8667 103.79" stroke="black" stroke-width="2"/>
<path d="M67.9038 103.7C67.9038 103.7 68.0561 104.891 68.0044 105.554C67.9632 106.082 67.9626 106.505 67.7536 106.993C67.3114 108.024 66.8778 108.594 65.9554 109.244C65.099 109.847 64.4798 110.084 63.4334 110.172C62.2381 110.272 61.4923 110.06 60.4418 109.489C59.6676 109.068 59.6325 108.917 59.1357 108.193C58.5363 107.321 58.0826 105.196 58.0826 105.196" stroke="black" stroke-width="2"/>
</svg>
