<svg width="48" height="49" viewBox="0 0 48 49" fill="none" xmlns="http://www.w3.org/2000/svg">
<path d="M47.75 8.31641V13.3164H40.25V20.8164H35.25V13.3164H27.75V8.31641H35.25V0.816406H40.25V8.31641H47.75ZM26.5 25.8164C28.57 25.8164 30.25 24.1364 30.25 22.0664C30.25 19.9964 28.57 18.3164 26.5 18.3164C24.43 18.3164 22.75 19.9964 22.75 22.0664C22.75 24.1364 24.43 25.8164 26.5 25.8164ZM35.25 33.9014L33.9675 32.4764C31.9825 30.2639 28.5175 30.2639 26.5275 32.4764L24.89 34.3014L12.75 20.8164L5.25 29.1489V13.3164H22.75V8.31641H5.25C2.4875 8.31641 0.25 10.5539 0.25 13.3164V43.3164C0.25 46.0789 2.4875 48.3164 5.25 48.3164H35.25C38.0125 48.3164 40.25 46.0789 40.25 43.3164V25.8164H35.25V33.9014Z" fill="black" fill-opacity="0.5"/>
</svg>
