<svg width="20" height="15" viewBox="0 0 20 15" fill="none" xmlns="http://www.w3.org/2000/svg">
    <path d="M12.513 11.8945C12.513 11.8945 9.28499 11.0097 8.82932 10.0463C8.62148 9.6052 8.82574 9.04193 9.03358 8.65339C9.12876 8.51698 9.22104 8.37292 9.31016 8.22123C9.84884 7.3016 10.2599 6.09123 10.302 4.59674C10.3654 2.34725 8.73291 0.522022 6.79566 0.515625H6.79153H6.7867C4.85012 0.522093 3.21763 2.34721 3.28088 4.59674C3.32303 6.09126 3.73458 7.30149 4.27273 8.22123H4.27218H4.27273C4.36198 8.37308 4.45537 8.51714 4.54999 8.65339C4.75729 9.04189 4.96156 9.60505 4.75426 10.0463C4.29933 11.0098 1.07023 11.8945 1.07023 11.8945C0.449044 12.1158 0 12.7435 0 13.4818V15.0007H13.5831V13.4818C13.583 12.7435 13.1353 12.1158 12.5129 11.8945H12.513Z" fill="#67BC2A" />
    <path d="M18.438 12.8557C18.4049 12.8434 16.2435 12.2451 15.9353 11.5796C15.793 11.2757 15.933 10.886 16.0741 10.6173C16.1383 10.5234 16.2006 10.4243 16.2614 10.3193C16.627 9.68443 16.9065 8.84915 16.9352 7.81718C16.9785 6.26507 15.87 5.00364 14.5534 5H14.5506H14.5477C13.2317 5.00363 12.122 6.26517 12.1653 7.81718C12.194 8.84901 12.4736 9.68432 12.8396 10.3193C12.9004 10.4244 12.9634 10.5234 13.0269 10.6173C13.037 10.6369 13.0472 10.6564 13.0567 10.6759C14.1236 11.1559 14.8277 12.2879 14.8277 13.5579V15H19.1641V13.951C19.1642 13.4408 18.8594 13.0084 18.4381 12.8557L18.438 12.8557Z" fill="#67BC2A" />
</svg>